<svg t="1608773054259" class="icon" viewBox="0 0 1024 1024" version="1.1" xmlns="http://www.w3.org/2000/svg" p-id="3878" width="200" height="200"><path d="M806.698667 609.066667a21.333333 21.333333 0 0 1 1.066666 30.165333l-29.098666 31.232a21.333333 21.333333 0 0 1-30.165334 1.024l-236.117333-220.16-236.16 220.16a21.333333 21.333333 0 0 1-30.122667-1.024l-29.098666-31.232a21.333333 21.333333 0 0 1 1.024-30.165333L482.261333 362.666667l13.44-14.421334a21.290667 21.290667 0 0 1 16.725334-6.741333 21.290667 21.290667 0 0 1 16.64 6.741333l13.44 14.506667z" p-id="3879" fill="#e6e6e6"></path></svg>