<svg t="1614568729905" class="icon" viewBox="0 0 1024 1024" version="1.1" xmlns="http://www.w3.org/2000/svg" p-id="2328" width="200" height="200"><path d="M510.765 136.515c-206.863 0-374.543 167.696-374.542 374.527 0 206.856 167.682 374.528 374.542 374.527s374.542-167.674 374.542-374.527c0-206.832-167.682-374.528-374.542-374.527zM510.766 230.147c60.682 0 116.865 19.242 162.787 51.949l-391.739 391.743c-32.715-45.924-51.956-102.111-51.956-162.796 0-155.124 125.753-280.898 280.909-280.898zM510.765 791.938c-60.658 0-116.82-19.22-162.732-51.903l391.721-391.724c32.689 45.915 51.919 102.078 51.918 162.731 0 155.143-125.755 280.896-280.906 280.896z" p-id="2329" fill="#8a8a8a"></path></svg>