<?xml version="1.0" encoding="utf-8"?>
<svg version="1.1" xmlns:xlink="http://www.w3.org/1999/xlink" width="17px" height="17px" xmlns="http://www.w3.org/2000/svg">
  <g transform="matrix(1 0 0 1 -249 -22 )">
    <path d="M 12.0218393247007 3.09360497561249  C 11.971876895506 1.37098577524554  10.4698843178338 -0.000852596706019383  8.63472666662439 0  C 6.7973917229099 0  5.30192569685978 1.36909338996621  5.23877257132711 3.08490730101121  L 0.951096346337257 3.08490730101121  C 0.473821941109396 3.08490707939826  0.0867842502266698 3.44799101891132  0.0863195322899756 3.89616310332784  C 0.0867842599774023 4.34433518125974  0.473821948005595 4.70741911066478  0.951096346337257 4.70741888904291  L 1.9059716015625 4.70741888904291  L 1.9059716015625 13.8016279771425  C 1.9059716015625 15.5091395631863  3.14040470992289 16.9035348801857  4.66239504763596 16.9035348801857  L 12.4272823895597 16.9035348801857  C 13.9492727272727 16.9035348801857  15.1837058179535 15.5174418881875  15.1837058356331 13.8016279771425  L 15.1837058356331 4.71651191324432  L 16.0484826320008 4.71651191324432  C 16.5259213046613 4.71651197554307  16.9130270022264 4.35318727278504  16.9132594460481 3.90486077792912  C 16.9127947281114 3.4566886935126  16.5257570372287 3.09360475399954  16.0484826320008 3.09360497561249  L 12.0218393247007 3.09360497561249  Z M 10.2607091426796 2.93981427999037  L 6.73886983565848 2.93981427999037  C 6.80160193952922 2.11353522607195  7.56322864087865 1.4699073387804  8.50421021661932 1.4699073387804  C 9.44519179235998 1.4699073387804  10.2072395153713 2.11313987647182  10.2607091426796 2.93981427999037  Z M 4.7588088137429 15.4332325893756  L 4.7588088137429 15.4249302643744  C 4.21106071002435 15.4249302643744  3.60815885699066 14.7749767834808  3.60815885699066 13.8470930981495  L 3.60815885699066 5  L 13.7825484673803 5  L 13.7825484673803 13.8553954231507  C 13.7825484673803 14.7836744746837  13.1800676536881 15.4332325893756  12.63231953229 15.4332325893756  L 4.7588088137429 15.4332325893756  Z " fill-rule="nonzero" fill="#d81e06" stroke="none" transform="matrix(1 0 0 1 249 22 )" />
  </g>
</svg>