<?xml version="1.0" encoding="utf-8"?>
<svg version="1.1" xmlns:xlink="http://www.w3.org/1999/xlink" width="7px" height="6px" xmlns="http://www.w3.org/2000/svg">
  <g transform="matrix(1 0 0 1 -254 -29 )">
    <path d="M 0.89826856672127 5.96273068699597  C 1.33878018705897 5.96273068699597  1.6987682000378 5.62685671345766  1.6987682000378 5.20609152179939  L 1.6987682000378 0.887711924017136  C 1.6987682000378 0.46694673235887  1.33878020514113 0.131072758820564  0.89826856672127 0.131072774319556  C 0.458187554876513 0.131072774319556  0.0977689334047381 0.466946747857863  0.0977689334047381 0.887711924017136  L 0.0977689334047381 5.20609152179939  C 0.0977689334047381 5.62685671345766  0.447852951045867 5.96273068699597  0.898699175214214 5.96273068699597  Z M 3.69980194291835 5.96273068699597  C 4.14031356325605 5.96273068699597  4.50073216664567 5.62685671345766  4.50073218472782 5.20609152179939  L 4.50073218472782 0.887711924017136  C 4.50073218472782 0.46694673235887  4.14031358133821 0.131072758820564  3.69980194291835 0.131072774319556  C 3.25972093107359 0.131072774319556  2.89930230960181 0.466946747857863  2.89930232768397 0.887711924017136  L 2.89930232768397 5.20609152179939  C 2.89930232768397 5.62685671345766  3.25972093107359 5.96273068699597  3.70023255141129 5.96273068699597  Z M 5.30080119146925 5.20609152179939  C 5.30080119146925 5.62685671345766  5.65088520911038 5.96273068699597  6.10130082478579 5.96273068699597  C 6.54138183663054 5.96273068699597  6.90180045810232 5.62685671345766  6.90180045810232 5.20609152179939  L 6.90180045810232 0.887711924017136  C 6.90180045810232 0.46694673235887  6.5413818547127 0.131072758820564  6.10130082478579 0.131072774319556  C 5.66121979485887 0.131072789818548  5.30080119146925 0.466946747857863  5.30080119146925 0.887711924017136  L 5.30080119146925 5.20609152179939  Z " fill-rule="nonzero" fill="#d81e06" stroke="none" transform="matrix(1 0 0 1 254 29 )" />
  </g>
</svg>