<?xml version="1.0" encoding="utf-8"?>
<svg version="1.1" xmlns:xlink="http://www.w3.org/1999/xlink" width="317px" height="214px" xmlns="http://www.w3.org/2000/svg">
  <defs>
    <filter x="10px" y="0px" width="317px" height="214px" filterUnits="userSpaceOnUse" id="filter255">
      <feOffset dx="5" dy="5" in="SourceAlpha" result="shadowOffsetInner" />
      <feGaussianBlur stdDeviation="2.5" in="shadowOffsetInner" result="shadowGaussian" />
      <feComposite in2="shadowGaussian" operator="atop" in="SourceAlpha" result="shadowComposite" />
      <feColorMatrix type="matrix" values="0 0 0 0 0  0 0 0 0 0  0 0 0 0 0  0 0 0 0.0235294117647059 0  " in="shadowComposite" />
    </filter>
    <g id="widget256">
      <path d="M 11 4  A 3 3 0 0 1 14 1 L 313 1  A 3 3 0 0 1 316 4 L 316 200  A 3 3 0 0 1 313 203 L 14 203  A 3 3 0 0 1 11 200 L 11 4  Z " fill-rule="nonzero" fill="#ffffff" stroke="none" />
      <path d="M 10.5 4  A 3.5 3.5 0 0 1 14 0.5 L 313 0.5  A 3.5 3.5 0 0 1 316.5 4 L 316.5 200  A 3.5 3.5 0 0 1 313 203.5 L 14 203.5  A 3.5 3.5 0 0 1 10.5 200 L 10.5 4  Z " stroke-width="1" stroke="#797979" fill="none" stroke-opacity="0.250980392156863" />
    </g>
  </defs>
  <g transform="matrix(1 0 0 1 -10 0 )">
    <use xlink:href="#widget256" filter="url(#filter255)" />
    <use xlink:href="#widget256" />
  </g>
</svg>