<?xml version="1.0" encoding="utf-8"?>
<svg version="1.1" xmlns:xlink="http://www.w3.org/1999/xlink" width="301px" height="413px" xmlns="http://www.w3.org/2000/svg">
  <g transform="matrix(1 0 0 1 -190 -2307 )">
    <path d="M 191 2313  A 5 5 0 0 1 196 2308 L 485 2308  A 5 5 0 0 1 490 2313 L 490 2714  A 5 5 0 0 1 485 2719 L 196 2719  A 5 5 0 0 1 191 2714 L 191 2313  Z " fill-rule="nonzero" fill="#ffffff" stroke="none" />
    <path d="M 190.5 2313  A 5.5 5.5 0 0 1 196 2307.5 L 485 2307.5  A 5.5 5.5 0 0 1 490.5 2313 L 490.5 2714  A 5.5 5.5 0 0 1 485 2719.5 L 196 2719.5  A 5.5 5.5 0 0 1 190.5 2714 L 190.5 2313  Z " stroke-width="1" stroke="#797979" fill="none" stroke-opacity="0.392156862745098" />
  </g>
</svg>