<?xml version="1.0" encoding="utf-8"?>
<svg version="1.1" xmlns:xlink="http://www.w3.org/1999/xlink" width="436px" height="343px" xmlns="http://www.w3.org/2000/svg">
  <g transform="matrix(1 0 0 1 -1 0 )">
    <path d="M 2 6  A 5 5 0 0 1 7 1 L 431 1  A 5 5 0 0 1 436 6 L 436 337  A 5 5 0 0 1 431 342 L 7 342  A 5 5 0 0 1 2 337 L 2 6  Z " fill-rule="nonzero" fill="#ffffff" stroke="none" />
    <path d="M 1.5 6  A 5.5 5.5 0 0 1 7 0.5 L 431 0.5  A 5.5 5.5 0 0 1 436.5 6 L 436.5 337  A 5.5 5.5 0 0 1 431 342.5 L 7 342.5  A 5.5 5.5 0 0 1 1.5 337 L 1.5 6  Z " stroke-width="1" stroke="#797979" fill="none" stroke-opacity="0.392156862745098" />
  </g>
</svg>