<?xml version="1.0" encoding="utf-8"?>
<svg version="1.1" xmlns:xlink="http://www.w3.org/1999/xlink" width="5px" height="3px" xmlns="http://www.w3.org/2000/svg">
  <defs>
    <mask fill="white" id="clip107">
      <path d="M 4.9072265625 2.43229166666667  C 4.96907552083333 2.49826388888889  5 2.57638888888889  5 2.66666666666667  C 5 2.75694444444444  4.96907552083333 2.83506944444444  4.9072265625 2.90104166666667  C 4.84537760416667 2.96701388888889  4.77213541666667 3  4.6875 3  L 0.3125 3  C 0.227864583333333 3  0.154622395833333 2.96701388888889  0.0927734375 2.90104166666667  C 0.0309244791666667 2.83506944444444  0 2.75694444444444  0 2.66666666666667  C 0 2.57638888888889  0.0309244791666667 2.49826388888889  0.0927734375 2.43229166666667  L 2.2802734375 0.0989583333333335  C 2.34212239583333 0.0329861111111107  2.41536458333333 0  2.5 0  C 2.58463541666667 0  2.65787760416667 0.0329861111111107  2.7197265625 0.0989583333333335  L 4.9072265625 2.43229166666667  Z " fill-rule="evenodd" />
    </mask>
  </defs>
  <g transform="matrix(1 0 0 1 -149 -10 )">
    <path d="M 4.9072265625 2.43229166666667  C 4.96907552083333 2.49826388888889  5 2.57638888888889  5 2.66666666666667  C 5 2.75694444444444  4.96907552083333 2.83506944444444  4.9072265625 2.90104166666667  C 4.84537760416667 2.96701388888889  4.77213541666667 3  4.6875 3  L 0.3125 3  C 0.227864583333333 3  0.154622395833333 2.96701388888889  0.0927734375 2.90104166666667  C 0.0309244791666667 2.83506944444444  0 2.75694444444444  0 2.66666666666667  C 0 2.57638888888889  0.0309244791666667 2.49826388888889  0.0927734375 2.43229166666667  L 2.2802734375 0.0989583333333335  C 2.34212239583333 0.0329861111111107  2.41536458333333 0  2.5 0  C 2.58463541666667 0  2.65787760416667 0.0329861111111107  2.7197265625 0.0989583333333335  L 4.9072265625 2.43229166666667  Z " fill-rule="nonzero" fill="#ffffff" stroke="none" transform="matrix(1 0 0 1 149 10 )" />
    <path d="M 4.9072265625 2.43229166666667  C 4.96907552083333 2.49826388888889  5 2.57638888888889  5 2.66666666666667  C 5 2.75694444444444  4.96907552083333 2.83506944444444  4.9072265625 2.90104166666667  C 4.84537760416667 2.96701388888889  4.77213541666667 3  4.6875 3  L 0.3125 3  C 0.227864583333333 3  0.154622395833333 2.96701388888889  0.0927734375 2.90104166666667  C 0.0309244791666667 2.83506944444444  0 2.75694444444444  0 2.66666666666667  C 0 2.57638888888889  0.0309244791666667 2.49826388888889  0.0927734375 2.43229166666667  L 2.2802734375 0.0989583333333335  C 2.34212239583333 0.0329861111111107  2.41536458333333 0  2.5 0  C 2.58463541666667 0  2.65787760416667 0.0329861111111107  2.7197265625 0.0989583333333335  L 4.9072265625 2.43229166666667  Z " stroke-width="2" stroke="#999999" fill="none" transform="matrix(1 0 0 1 149 10 )" mask="url(#clip107)" />
  </g>
</svg>