<?xml version="1.0" encoding="utf-8"?>
<svg version="1.1" xmlns:xlink="http://www.w3.org/1999/xlink" width="115px" height="26px" xmlns="http://www.w3.org/2000/svg">
  <g transform="matrix(1 0 0 1 -48 0 )">
    <path d="M 49 2  A 1 1 0 0 1 50 1 L 161 1  A 1 1 0 0 1 162 2 L 162 24  A 1 1 0 0 1 161 25 L 50 25  A 1 1 0 0 1 49 24 L 49 2  Z " fill-rule="nonzero" fill="#ffffff" stroke="none" />
    <path d="M 48.5 2  A 1.5 1.5 0 0 1 50 0.5 L 161 0.5  A 1.5 1.5 0 0 1 162.5 2 L 162.5 24  A 1.5 1.5 0 0 1 161 25.5 L 50 25.5  A 1.5 1.5 0 0 1 48.5 24 L 48.5 2  Z " stroke-width="1" stroke="#000000" fill="none" stroke-opacity="0.364705882352941" />
  </g>
</svg>