<?xml version="1.0" encoding="utf-8"?>
<svg version="1.1" xmlns:xlink="http://www.w3.org/1999/xlink" width="26px" height="24px" xmlns="http://www.w3.org/2000/svg">
  <g transform="matrix(1 0 0 1 -1280 -21 )">
    <path d="M 25.8619259543679 5.84692279916159  C 26.0306720769709 5.36018323170732  25.7825160822088 4.8341111089939  25.3010934148615 4.66203144054878  C 24.8196707475142 4.48995177210366  24.2886168812145 4.74069643673781  24.1198708163175 5.21760291539634  L 23.4051815052379 7.20389391196646  C 22.5664141823509 5.33068385099085  21.2412611039595 3.68363563262195  19.5538002241655 2.44957860137195  C 14.1886673029119 -1.48367086509146  6.54546217373935 -0.411860384908538  2.52533482776989 4.84886078506097  C 0.579791690340909 7.39563981516768  -0.244086252663352 10.5324062881098  0.21252080078125 13.6790058784299  C 0.669127854225852 16.8403551448171  2.36155185102983 19.6378788395579  4.96718995472301 21.5504213986281  C 7.15096285289418 23.1483040015244  9.70696975763494 23.9251207602896  12.243124165483 23.9251207602896  C 15.9505749667081 23.9251207602896  19.6083945401278 22.2780725419207  21.9956553511186 19.1560557736281  C 23.0527999667081 17.7745018959604  23.7724523947976 16.2307014672256  24.1446864013672 14.5590704554116  C 24.2538750332919 14.0624977134146  23.9362353426847 13.5757580887957  23.4399233243075 13.4675937118902  C 22.9436113059304 13.3594293635671  22.4472992875533 13.6691727610518  22.3381106267756 14.1657455030488  C 22.0254340531783 15.5767987614329  21.4149702570135 16.8846042016006  20.521608647017 18.0498293540396  C 17.1119450683594 22.5091509432165  10.6251469815341 23.4187149009146  6.06900262340198 20.0754528487043  C 3.8604141401811 18.4579040110518  2.43103551802201 16.093037738186  2.0439121315696 13.4184280964177  C 1.65678874511718 10.7585681307165  2.35162558815696 8.10854131097561  3.99938150301846 5.9550872046494  C 7.40408196466619 1.49576561547256  13.8859169633345 0.581285099085366  18.4470244096236 3.92454715129573  C 20.099743441495 5.13402136051829  21.3355603560014 6.81056895960366  22.0055815851385 8.70344525533537  L 18.8242215332031 7.47430478277439  C 18.3477619828658 7.29239199695122  17.8117449995561 7.52347039824695  17.6231464377663 7.99546034679878  C 17.4345478759766 8.46745029535061  17.6727776367188 8.99843897675305  18.1492371870561 9.18526832126524  L 22.8344226451527 10.9994796493902  C 22.9436112770774 11.0437287061738  23.0577630548651 11.0633949409299  23.1719148326527 11.0633949409299  C 23.1868041836825 11.0633949409299  23.2016935635653 11.0584783822409  23.2165829145952 11.0584783822409  C 23.2513247625178 11.0633949409299  23.2860666104403 11.078144616997  23.3208084295099 11.078144616997  C 23.7029686989524 11.078144616997  24.0603133256392 10.8421496570122  24.1943175714666 10.4684909394055  L 25.8619259543679 5.84692279916159  Z " fill-rule="nonzero" fill="#000000" stroke="none" fill-opacity="0.698039215686274" transform="matrix(1 0 0 1 1280 21 )" />
  </g>
</svg>