<?xml version="1.0" encoding="utf-8"?>
<svg version="1.1" xmlns:xlink="http://www.w3.org/1999/xlink" width="22px" height="17px" xmlns="http://www.w3.org/2000/svg">
  <g transform="matrix(1 0 0 1 -480 -23 )">
    <path d="M 0.40649669349348 0.485442457011765  C 0.660373701576439 0.220848287280726  1.01868756830363 0.0623323195871705  1.38702935004626 0  L 20.5244144760043 0  C 20.8541121541174 0.0594458343017117  21.1769615300012 0.186210501627542  21.4227672753618 0.404620963449724  C 21.733142911262 0.673544861108951  21.9170692253976 1.07596855213136  21.9143788044901 1.48272195219579  C 21.9146233812259 4.65400340487485  21.9148679771652 7.82528485755391  21.9143788044901 10.9963257572017  C 21.4188539515721 10.3966591379356  20.7968797576858 9.89825992448869  20.0976173949477 9.54562806686812  C 19.3738967441211 9.17856378282026  18.5684854087743 8.97001546646596  17.7550028491123 8.93633985516537  C 16.802108055027 8.89424532215347  15.8389408075976 9.0917288034284  14.9851020687488 9.5105092129248  C 14.2670068172692 9.86049513829114  13.6266889265201 10.3625024583449  13.118201180147 10.9715501359026  C 12.551747307135 11.6481896079788  12.1506314170493 12.4578477673558  11.9610797035666 13.3141707407041  C 11.6869023271242 14.537076910924  11.8444136816745 15.8494640116761  12.408421748922 16.9727865528646  C 8.76144686370698 16.9732676400409  5.1147165744313 16.9730270870097  1.46798626595205 16.9730270870097  C 1.05415207835058 16.9754324851188  0.644475810478161 16.7945462942353  0.371521356121568 16.4890602811038  C 0.150173879645956 16.2480390430604  0.0220124631204064 15.9317287478809  0 15.6089238419228  L 0 1.40647072070701  C 0.0215232904453484 1.06538478534212  0.164115099247569 0.731755578449779  0.40649669349348 0.485442457011765  Z M 7.73224222691643 2.92091156480731  C 7.22497740262914 2.60123369716597  6.60324778547861 2.46244202040816  6.00524272620939 2.53556623246642  C 5.45517589776715 2.59906883320187  4.9283444353276 2.84081169256663  4.52551648888811 3.21461110265184  C 4.09284943174875 3.61054020178196  3.80301874094377 4.15392041464011  3.72034973027706 4.72953301504227  C 3.63499031790646 5.30129697469254  3.75165633979854 5.90000141960606  4.04882450550793 6.3988817202293  C 4.37265220753828 6.94947814630109  4.91024529599693 7.37475314768978  5.52806158935773 7.56429877554353  C 6.13046914509174 7.75312280096208  6.80184906862659 7.7180039281326  7.37955375953632 7.46567732086476  C 7.95799219985685 7.21695880131759  8.43713000820516 6.75488115031162  8.70250239171802 6.19177664651773  C 8.97985934253941 5.61231540536367  9.02339509610517 4.92966242857143  8.82528298563223 4.31965257666115  C 8.64306876625757 3.74620484022308  8.24708912204745 3.24323536470288  7.73224222691643 2.92091156480731  Z M 12.6948282694087 3.10660857079533  C 12.5991963844905 3.1073301921167  12.5008740786648 3.09939235758168  12.4091554983328 3.12994096833791  C 12.2851520015363 3.16938955020941  12.1790030289276 3.25935156791797  12.1217706516995 3.3743297599569  C 12.04570538573 3.52250249500628  12.0562224542169 3.70940220949196  12.1491639182277 3.84795333321854  C 12.2381920776523 3.98722607826647  12.4040192524572 4.07261783390177  12.5710693493479 4.06852865900481  C 14.6830422531031 4.06900974618111  16.7952597527976 4.06900974618111  18.9072326565528 4.06876919314988  C 19.07428273424 4.07285836804684  19.2403545049842 3.98746661241154  19.3301164138196 3.84843442039483  C 19.4299062184669 3.69954006402409  19.4340641189923 3.49556200974304  19.3401443096315 3.34281899373424  C 19.2530728217035 3.19488679282993  19.0813756516122 3.10155722154578  18.9077218292278 3.10660857079533  C 16.836594258131 3.1068491049404  14.7657112637698 3.10660857079533  12.6948282694087 3.10660857079533  Z M 12.6940945199979 5.19930794755202  C 12.5991963652869 5.20002956887339  12.5018524048114 5.19209173433838  12.4103784012151 5.22239979206337  C 12.2802603323964 5.26305108243254  12.1694642865872 5.36022929446858  12.1139439849165 5.48314533992868  C 12.0439932909691 5.63324240479709  12.0608695082139 5.81845832360881  12.157724315218 5.95340134072856  C 12.2484645501999 6.08497680427272  12.4089109023935 6.16483614236833  12.5705801766729 6.1612280357615  C 14.6913580733577 6.1612280357615  16.8121359700424 6.16267127840423  18.9329138667272 6.16050641444014  C 19.2024441699691 6.16074694858521  19.4347978684031 5.90866087546244  19.4066708332606 5.64454777402153  C 19.3951754386271 5.45885076803351  19.2626115256368 5.28878887808428  19.0845552259912 5.22745114131292  C 18.9884341683979 5.19161066604824  18.8839972905501 5.19978901584216  18.783473736492 5.19930794755202  L 12.6940945199979 5.19930794755202  Z M 6.31023753949826 8.25344634422806  C 5.51803369354585 8.28110846969882  4.7385481451092 8.56157828961373  4.11339437684398 9.04025319323875  C 3.52737386567972 9.48332817463033  3.07783059129554 10.0974271825514  2.83373690228872 10.7834477318054  C 2.59355653707163 11.4567196314199  2.55417870323493 12.1971022383767  2.71804920654318 12.8917822057147  C 5.21646303137166 12.892263292891  7.71463226026082 12.8913011185384  10.2130460850893 12.892263292891  C 10.3964832265498 12.1218131623543  10.3262879366631 11.2948360912646  10.0129773031197 10.5659994254497  C 9.68743752553202 9.80204388680524  9.09799286325308 9.15066112320443  8.36522264276112 8.74318610181863  C 7.7452051203715 8.39368124474243  7.02368571777727 8.22313828650306  6.31023753949826 8.25344634422806  Z " fill-rule="nonzero" fill="#4077f0" stroke="none" transform="matrix(1 0 0 1 480 23 )" />
  </g>
</svg>