<?xml version="1.0" encoding="utf-8"?>
<svg version="1.1" xmlns:xlink="http://www.w3.org/1999/xlink" width="11px" height="20px" xmlns="http://www.w3.org/2000/svg">
  <g transform="matrix(1 0 0 1 -347 -15 )">
    <path d="M 0.353395589192709 0.274359199438203  C 0.490318274764302 0.166855608918064  0.660538919601685 0.108362638001044  0.835943603515626 0.108541081460674  C 1.03487548828125 0.108541081460674  1.23378499348958 0.183286516853933  1.38477986653646 0.332821278089888  L 10.6997111002604 9.48749122191011  C 11.0047444661458 9.78897471910112  11.0040059407552 10.2754564606742  10.69814453125 10.5760840941011  L 1.38323567708333 19.7310393258427  C 1.05439046223958 20.0547313904494  0.500541178385416 20.0256539676966  0.21202392578125 19.6433900983146  C -0.021148681640625 19.3344891151685  0.0502197265624995 18.89453125  0.327054850260416 18.6224762991573  L 9.06036376953125 10.0391502808989  C 9.06578165715059 10.0338298426792  9.06579166335428 10.0252148999087  9.06038614908854 10.0198823735955  L 0.337953694661459 1.45051351825843  C 0.00682576497395833 1.12320049157303  -0.0135172526041662 0.562653616573034  0.353395589192709 0.274359199438203  Z " fill-rule="nonzero" fill="#000000" stroke="none" fill-opacity="0.8" transform="matrix(1 0 0 1 347 15 )" />
  </g>
</svg>