<svg t="1611043388480" class="icon" viewBox="0 0 1024 1024" version="1.1" xmlns="http://www.w3.org/2000/svg" p-id="7330" width="200" height="200"><path d="M512 3.778314C230.274952 3.778314 1.891717 232.161549 1.891717 513.886597c0 281.730168 228.383235 510.113403 510.108283 510.113403 281.730168 0 510.113403-228.383235 510.113403-510.113403 0-281.719928-228.388355-510.108283-510.113403-510.108283z m-43.409658 134.345188c9.358752-10.029428 21.38997-15.046702 36.114132-15.046702 18.051947 0 31.091739 5.360292 39.114258 16.050157 8.693195 12.707014 12.696775 28.429512 12.041457 47.147015l-13.044912 452.384035c-1.99667 16.710594-6.358627 29.084829-13.034673 37.107348-8.022519 8.703434-17.39151 13.044912-28.086494 13.044912-10.024308 0-18.394964-4.013819-25.07613-12.041457-7.362081-9.348512-10.705224-22.070885-10.029428-38.110803l-12.041458-452.389154c-1.346472-20.063976 3.338023-36.114133 14.043248-48.145351zM559.868889 863.329484c-14.713924 14.713924-33.093529 22.081125-55.164415 22.081124-22.741562-0.686035-41.474424-8.380895-56.172989-23.07434-12.712134-15.394839-19.055401-32.433092-19.055401-51.160834 0.655317-21.395089 7.351842-39.447036 20.058856-54.16096 14.038128-14.048367 32.427972-21.057191 55.169534-21.057191 21.400209 0 39.457275 7.008824 54.176319 21.057191 14.033008 15.394839 21.052072 33.441666 21.052071 54.16096-0.670676 20.734652-7.362081 38.121042-20.063975 52.15405z" fill="#D81E06" p-id="7331"></path></svg>