<svg t="1613989532053" class="icon" viewBox="0 0 1024 1024" version="1.1" xmlns="http://www.w3.org/2000/svg" p-id="2988" width="200" height="200"><path d="M512 1024a512 512 0 1 1 512-512 512 512 0 0 1-512 512zM512 64a448 448 0 1 0 448 448 448 448 0 0 0-448-448z m204.8 270.08a33.28 33.28 0 0 0-12.8-44.16 32.64 32.64 0 0 0-43.52 12.16l-204.8 354.56-113.92-105.6a30.72 30.72 0 0 0-44.8 0 32.64 32.64 0 0 0 0 45.44L441.6 729.6a32 32 0 0 0 45.44 0c3.84-2.56 229.76-395.52 229.76-395.52z" p-id="2989" fill="#1afa29"></path></svg>