<?xml version="1.0" encoding="utf-8"?>
<svg version="1.1" xmlns:xlink="http://www.w3.org/1999/xlink" width="564px" height="294px" xmlns="http://www.w3.org/2000/svg">
  <g transform="matrix(1 0 0 1 -2 0 )">
    <path d="M 3 6  A 5 5 0 0 1 8 1 L 560 1  A 5 5 0 0 1 565 6 L 565 288  A 5 5 0 0 1 560 293 L 8 293  A 5 5 0 0 1 3 288 L 3 6  Z " fill-rule="nonzero" fill="#ffffff" stroke="none" />
    <path d="M 2.5 6  A 5.5 5.5 0 0 1 8 0.5 L 560 0.5  A 5.5 5.5 0 0 1 565.5 6 L 565.5 288  A 5.5 5.5 0 0 1 560 293.5 L 8 293.5  A 5.5 5.5 0 0 1 2.5 288 L 2.5 6  Z " stroke-width="1" stroke="#797979" fill="none" stroke-opacity="0.392156862745098" />
  </g>
</svg>