<?xml version="1.0" encoding="utf-8"?>
<svg version="1.1" xmlns:xlink="http://www.w3.org/1999/xlink" width="12px" height="12px" viewBox="64 103.5  12 12" xmlns="http://www.w3.org/2000/svg">
  <path d="M 70 103.5  C 73.36 103.5  76 106.14  76 109.5  C 76 112.86  73.36 115.5  70 115.5  C 66.64 115.5  64 112.86  64 109.5  C 64 106.14  66.64 103.5  70 103.5  Z " fill-rule="nonzero" fill="#ffffff" stroke="none" />
  <path d="M 70 104  C 73.08 104  75.5 106.42  75.5 109.5  C 75.5 112.58  73.08 115  70 115  C 66.92 115  64.5 112.58  64.5 109.5  C 64.5 106.42  66.92 104  70 104  Z " stroke-width="1" stroke="#797979" fill="none" />
  <path d="M 70 112.5  C 68.32 112.5  67 111.18  67 109.5  C 67 107.82  68.32 106.5  70 106.5  C 71.68 106.5  73 107.82  73 109.5  C 73 111.18  71.68 112.5  70 112.5  " fill-rule="nonzero" fill="#797979" stroke="none" />
</svg>