<?xml version="1.0" encoding="utf-8"?>
<svg version="1.1" xmlns:xlink="http://www.w3.org/1999/xlink" width="72px" height="96px" xmlns="http://www.w3.org/2000/svg">
  <g transform="matrix(1 0 0 1 -14 -11 )">
    <path d="M 14 11  L 86 11  L 86 107  L 14 107  L 14 11  " fill-rule="nonzero" fill="#cccccc" stroke="none" />
    <path d="M 19 16  L 81 16  L 81 102  L 19 102  L 19 16  " fill-rule="nonzero" fill="#ffffff" stroke="none" />
    <path d="M 56.84 36.2  C 53.816 36.2  51.44 33.824  51.44 30.8  C 51.44 27.776  53.816 25.4  56.84 25.4  C 59.864 25.4  62.24 27.776  62.24 30.8  C 62.24 33.824  59.864 36.2  56.84 36.2  " fill-rule="nonzero" fill="#cccccc" stroke="none" />
    <path d="M 21 100  L 21 54.9  L 35.5 34.4  L 55.8 50.8  L 67.4 46.7  L 79 50.8  L 79 100  L 21 100  " fill-rule="nonzero" fill="#169bd5" stroke="none" />
  </g>
</svg>