<?xml version="1.0" encoding="utf-8"?>
<svg version="1.1" xmlns:xlink="http://www.w3.org/1999/xlink" width="12px" height="12px" viewBox="64 52.5  12 12" xmlns="http://www.w3.org/2000/svg">
  <path d="M 70 52.5  C 73.36 52.5  76 55.14  76 58.5  C 76 61.86  73.36 64.5  70 64.5  C 66.64 64.5  64 61.86  64 58.5  C 64 55.14  66.64 52.5  70 52.5  Z " fill-rule="nonzero" fill="#ffffff" stroke="none" />
  <path d="M 70 53  C 73.08 53  75.5 55.42  75.5 58.5  C 75.5 61.58  73.08 64  70 64  C 66.92 64  64.5 61.58  64.5 58.5  C 64.5 55.42  66.92 53  70 53  Z " stroke-width="1" stroke="#797979" fill="none" />
  <path d="M 70 61.5  C 68.32 61.5  67 60.18  67 58.5  C 67 56.82  68.32 55.5  70 55.5  C 71.68 55.5  73 56.82  73 58.5  C 73 60.18  71.68 61.5  70 61.5  " fill-rule="nonzero" fill="#797979" stroke="none" />
</svg>