<?xml version="1.0" encoding="utf-8"?>
<svg version="1.1" xmlns:xlink="http://www.w3.org/1999/xlink" width="135px" height="50px" xmlns="http://www.w3.org/2000/svg">
  <g transform="matrix(1 0 0 1 0 -25 )">
    <path d="M 1 31  A 5 5 0 0 1 6 26 L 129 26  A 5 5 0 0 1 134 31 L 134 69  A 5 5 0 0 1 129 74 L 6 74  A 5 5 0 0 1 1 69 L 1 31  Z " fill-rule="nonzero" fill="#ffffff" stroke="none" />
    <path d="M 0.5 31  A 5.5 5.5 0 0 1 6 25.5 L 129 25.5  A 5.5 5.5 0 0 1 134.5 31 L 134.5 69  A 5.5 5.5 0 0 1 129 74.5 L 6 74.5  A 5.5 5.5 0 0 1 0.5 69 L 0.5 31  Z " stroke-width="1" stroke="#797979" fill="none" stroke-opacity="0.392156862745098" />
  </g>
</svg>