<?xml version="1.0" encoding="utf-8"?>
<svg version="1.1" xmlns:xlink="http://www.w3.org/1999/xlink" width="300px" height="400px" xmlns="http://www.w3.org/2000/svg">
  <g transform="matrix(1 0 0 1 -13 -11 )">
    <path d="M 13 11  L 313 11  L 313 411  L 13 411  L 13 11  " fill-rule="nonzero" fill="#cccccc" stroke="none" />
    <path d="M 34 32  L 292 32  L 292 390  L 34 390  L 34 32  " fill-rule="nonzero" fill="#ffffff" stroke="none" />
    <path d="M 191.5 116  C 178.9 116  169 106.1  169 93.5  C 169 80.9  178.9 71  191.5 71  C 204.1 71  214 80.9  214 93.5  C 214 106.1  204.1 116  191.5 116  " fill-rule="nonzero" fill="#cccccc" stroke="none" />
    <path d="M 42 383  L 42 194.35  L 102.75 108.6  L 187.8 177.2  L 236.4 160.05  L 285 177.2  L 285 383  L 42 383  " fill-rule="nonzero" fill="#169bd5" stroke="none" />
  </g>
</svg>