<?xml version="1.0" encoding="utf-8"?>
<svg version="1.1" xmlns:xlink="http://www.w3.org/1999/xlink" width="1614px" height="1210px" xmlns="http://www.w3.org/2000/svg">
  <g transform="matrix(1 0 0 1 -283 -194 )">
    <path d="M 284 200  A 5 5 0 0 1 289 195 L 1891 195  A 5 5 0 0 1 1896 200 L 1896 1398  A 5 5 0 0 1 1891 1403 L 289 1403  A 5 5 0 0 1 284 1398 L 284 200  Z " fill-rule="nonzero" fill="#ffffff" stroke="none" />
    <path d="M 283.5 200  A 5.5 5.5 0 0 1 289 194.5 L 1891 194.5  A 5.5 5.5 0 0 1 1896.5 200 L 1896.5 1398  A 5.5 5.5 0 0 1 1891 1403.5 L 289 1403.5  A 5.5 5.5 0 0 1 283.5 1398 L 283.5 200  Z " stroke-width="1" stroke="#333333" fill="none" stroke-opacity="0.333333333333333" />
  </g>
</svg>