<?xml version="1.0" encoding="utf-8"?>
<svg version="1.1" xmlns:xlink="http://www.w3.org/1999/xlink" width="148px" height="30px" xmlns="http://www.w3.org/2000/svg">
  <g transform="matrix(1 0 0 1 -42 0 )">
    <path d="M 43 6  A 5 5 0 0 1 48 1 L 184 1  A 5 5 0 0 1 189 6 L 189 24  A 5 5 0 0 1 184 29 L 48 29  A 5 5 0 0 1 43 24 L 43 6  Z " fill-rule="nonzero" fill="#ffffff" stroke="none" />
    <path d="M 42.5 6  A 5.5 5.5 0 0 1 48 0.5 L 184 0.5  A 5.5 5.5 0 0 1 189.5 6 L 189.5 24  A 5.5 5.5 0 0 1 184 29.5 L 48 29.5  A 5.5 5.5 0 0 1 42.5 24 L 42.5 6  Z " stroke-width="1" stroke="#797979" fill="none" stroke-opacity="0.392156862745098" />
  </g>
</svg>