<?xml version="1.0" encoding="utf-8"?>
<svg version="1.1" xmlns:xlink="http://www.w3.org/1999/xlink" width="12px" height="12px" viewBox="874 150  12 12" xmlns="http://www.w3.org/2000/svg">
  <path d="M 880 150  C 883.36 150  886 152.64  886 156  C 886 159.36  883.36 162  880 162  C 876.64 162  874 159.36  874 156  C 874 152.64  876.64 150  880 150  Z " fill-rule="nonzero" fill="#ffffff" stroke="none" />
  <path d="M 880 150.5  C 883.08 150.5  885.5 152.92  885.5 156  C 885.5 159.08  883.08 161.5  880 161.5  C 876.92 161.5  874.5 159.08  874.5 156  C 874.5 152.92  876.92 150.5  880 150.5  Z " stroke-width="1" stroke="#797979" fill="none" />
  <path d="M 880 159  C 878.32 159  877 157.68  877 156  C 877 154.32  878.32 153  880 153  C 881.68 153  883 154.32  883 156  C 883 157.68  881.68 159  880 159  " fill-rule="nonzero" fill="#797979" stroke="none" />
</svg>