<?xml version="1.0" encoding="utf-8"?>
<svg version="1.1" xmlns:xlink="http://www.w3.org/1999/xlink" width="12px" height="12px" viewBox="113 409.5  12 12" xmlns="http://www.w3.org/2000/svg">
  <path d="M 119 409.5  C 122.36 409.5  125 412.14  125 415.5  C 125 418.86  122.36 421.5  119 421.5  C 115.64 421.5  113 418.86  113 415.5  C 113 412.14  115.64 409.5  119 409.5  Z " fill-rule="nonzero" fill="#f0f0f0" stroke="none" />
  <path d="M 119 410  C 122.08 410  124.5 412.42  124.5 415.5  C 124.5 418.58  122.08 421  119 421  C 115.92 421  113.5 418.58  113.5 415.5  C 113.5 412.42  115.92 410  119 410  Z " stroke-width="1" stroke="#797979" fill="none" />
  <path d="M 119 418.5  C 117.32 418.5  116 417.18  116 415.5  C 116 413.82  117.32 412.5  119 412.5  C 120.68 412.5  122 413.82  122 415.5  C 122 417.18  120.68 418.5  119 418.5  " fill-rule="nonzero" fill="#797979" stroke="none" />
</svg>