<?xml version="1.0" encoding="utf-8"?>
<svg version="1.1" xmlns:xlink="http://www.w3.org/1999/xlink" width="12px" height="12px" viewBox="113 452.5  12 12" xmlns="http://www.w3.org/2000/svg">
  <path d="M 119 452.5  C 122.36 452.5  125 455.14  125 458.5  C 125 461.86  122.36 464.5  119 464.5  C 115.64 464.5  113 461.86  113 458.5  C 113 455.14  115.64 452.5  119 452.5  Z " fill-rule="nonzero" fill="#ffffff" stroke="none" />
  <path d="M 119 453  C 122.08 453  124.5 455.42  124.5 458.5  C 124.5 461.58  122.08 464  119 464  C 115.92 464  113.5 461.58  113.5 458.5  C 113.5 455.42  115.92 453  119 453  Z " stroke-width="1" stroke="#797979" fill="none" />
  <path d="M 119 461.5  C 117.32 461.5  116 460.18  116 458.5  C 116 456.82  117.32 455.5  119 455.5  C 120.68 455.5  122 456.82  122 458.5  C 122 460.18  120.68 461.5  119 461.5  " fill-rule="nonzero" fill="#797979" stroke="none" />
</svg>