<svg t="1611026520228" class="icon" viewBox="0 0 1024 1024" version="1.1" xmlns="http://www.w3.org/2000/svg" p-id="9515" width="200" height="200"><path d="M512 981.333333C256 981.333333 42.666667 768 42.666667 512S256 42.666667 512 42.666667 981.333333 256 981.333333 512 768 981.333333 512 981.333333z m0-85.333333c213.333333 0 384-170.666667 384-384S725.333333 128 512 128 128 298.666667 128 512s170.666667 384 384 384zM691.2 341.333333c17.066667-17.066667 42.666667-17.066667 59.733333 0s17.066667 42.666667 0 59.733334L503.466667 682.666667c-17.066667 17.066667-42.666667 17.066667-59.733334 8.533333l-170.666666-145.066667c-17.066667-17.066667-25.6-42.666667-8.533334-59.733333 17.066667-17.066667 42.666667-17.066667 59.733334-8.533333L469.333333 597.333333l221.866667-256z" fill="#56CD36" p-id="9516"></path></svg>