<svg t="1611026642628" class="icon" viewBox="0 0 1024 1024" version="1.1" xmlns="http://www.w3.org/2000/svg" p-id="11815" width="200" height="200"><path d="M511.94514313 32a27.42857156 27.42857156 0 0 1 27.42857156 27.42857156v74.88a27.42857156 27.42857156 0 0 1-27.42857157 27.42857157H224v700.52571375h548.57142844V471.40571469a27.42857156 27.42857156 0 0 1 27.42857156-27.42857157h82.28571469a27.42857156 27.42857156 0 0 1 27.42857062 27.42857157v429.80571375c0 3.29142844-0.192 6.528-0.54857062 9.73714312-4.93714313 43.94057156-43.06285688 78.50057156-90.18514313 80.91428532L813.71428531 992h-630.85714218C131.59314312 992 89.73714312 954.01142844 86.99428531 906.14857156L86.85714313 901.21142844V122.78857156C86.85714313 74.34971469 127.01257156 34.74285688 177.59085687 32.16457156L182.85714312 32h329.088z m-75.70285782 428.16a13.71428531 13.71428531 0 0 1 5.54057157 5.54057156l61.35771468 113.25257157a27.456 27.456 0 0 0 42.37714313 5.12914218h0.02742844l22.73828531-40.86857062a13.71428531 13.71428531 0 0 1 23.97257156 0l116.10514313 209.00571375a13.71428531 13.71428531 0 0 1-12.01371469 20.352H274.46857156a13.71428531 13.71428531 0 0 1-12.06857156-20.24228532l155.27314312-286.62857156a13.71428531 13.71428531 0 0 1 18.59657157-5.54057156zM739.136 131.40114313a27.31885688 27.31885688 0 0 1 38.64685688 0l60.45257156 60.45257156a27.37371469 27.37371469 0 0 1 0 38.67428531l-224.77714313 224.832a23.58857156 23.58857156 0 0 1-16.59428531 6.85714313h-77.62285687a11.712 11.712 0 0 1-11.73942844-11.68457157v-77.70514312c0-6.19885687 2.496-12.20571469 6.88457062-16.56685688zM821.312 49.22514312a27.37371469 27.37371469 0 0 1 38.67428531 1e-8L920.41142844 109.62285687c10.69714313 10.69714313 10.69714313 27.97714313 0.05485687 38.64685782l-15.552 15.52457062a27.37371469 27.37371469 0 0 1-38.64685687 0l-60.45257157-60.45257062a27.37371469 27.37371469 0 0 1 0-38.67428625z" p-id="11816" fill="#d81e06"></path></svg>