<svg t="1611034473510" class="icon" viewBox="0 0 1024 1024" version="1.1" xmlns="http://www.w3.org/2000/svg" p-id="13514" width="200" height="200"><path d="M825.6 192C652.8 19.2 371.2 19.2 192 192S19.2 652.8 192 832c172.8 172.8 460.8 172.8 633.6 0 179.2-179.2 179.2-460.8 0-640z m-44.8 595.2c-147.2 147.2-390.4 147.2-544 0-147.2-147.2-147.2-390.4 0-544 147.2-147.2 390.4-147.2 544 0s153.6 390.4 0 544z" p-id="13515" fill="#d81e06"></path><path d="M512 972.8c-121.6 0-236.8-44.8-326.4-134.4C6.4 659.2 6.4 371.2 185.6 192 275.2 102.4 390.4 57.6 512 57.6c121.6 0 236.8 44.8 326.4 134.4 179.2 179.2 179.2 467.2 0 646.4-89.6 83.2-204.8 134.4-326.4 134.4zM512 70.4c-115.2 0-230.4 44.8-307.2 128-172.8 172.8-172.8 448 0 620.8 83.2 83.2 192 128 307.2 128s230.4-44.8 307.2-128c172.8-172.8 172.8-448 0-620.8-83.2-76.8-192-128-307.2-128z m0 838.4c-102.4 0-204.8-38.4-275.2-115.2-160-153.6-160-403.2-6.4-556.8C307.2 160 403.2 121.6 512 121.6c102.4 0 204.8 38.4 275.2 115.2 153.6 153.6 153.6 403.2 0 556.8-70.4 70.4-172.8 115.2-275.2 115.2z m0-768c-102.4 0-192 38.4-262.4 108.8-147.2 147.2-147.2 384 0 531.2 70.4 64 160 108.8 262.4 108.8s192-38.4 262.4-108.8c147.2-147.2 147.2-384 0-531.2C704 179.2 608 140.8 512 140.8z" p-id="13516" fill="#d81e06"></path><path d="M505.6 448l102.4-102.4c19.2-19.2 44.8-19.2 57.6 0 19.2 19.2 19.2 44.8 0 57.6L569.6 505.6l102.4 102.4c19.2 19.2 19.2 44.8 0 57.6-19.2 19.2-44.8 19.2-57.6 0L505.6 569.6l-96 96c-19.2 19.2-44.8 19.2-57.6 0-19.2-19.2-19.2-44.8 0-57.6L448 505.6 352 409.6c-19.2-19.2-19.2-44.8 0-57.6 19.2-19.2 44.8-19.2 57.6 0L505.6 448z" p-id="13517" fill="#d81e06"></path><path d="M640 684.8c-12.8 0-25.6-6.4-32-12.8L505.6 576l-89.6 96c-19.2 19.2-51.2 19.2-70.4 0-6.4-6.4-12.8-19.2-12.8-32s6.4-25.6 12.8-32L441.6 512 345.6 416c-6.4-12.8-12.8-25.6-12.8-38.4 0-12.8 6.4-25.6 12.8-32 19.2-19.2 51.2-19.2 70.4 0L512 441.6l96-96c6.4-6.4 19.2-12.8 32-12.8s25.6 6.4 32 12.8 12.8 19.2 12.8 32-6.4 25.6-12.8 32L576 505.6l96 96c6.4 12.8 12.8 25.6 12.8 38.4 0 12.8-6.4 25.6-12.8 32-6.4 6.4-19.2 12.8-32 12.8z m-134.4-128l102.4 102.4c12.8 12.8 19.2 12.8 32 12.8 6.4 0 19.2-6.4 25.6-12.8 6.4-6.4 6.4-12.8 6.4-19.2 0-6.4-6.4-19.2-12.8-25.6L556.8 505.6l102.4-102.4c6.4-6.4 12.8-12.8 12.8-25.6 0-6.4-6.4-19.2-12.8-25.6-6.4-6.4-12.8-6.4-19.2-6.4-6.4 0-19.2 6.4-25.6 12.8L505.6 460.8 403.2 352c-12.8-12.8-38.4-12.8-51.2 0-6.4 6.4-6.4 19.2-6.4 25.6 0 6.4 6.4 19.2 12.8 25.6l102.4 102.4-108.8 108.8c-6.4 6.4-6.4 12.8-6.4 25.6 0 6.4 6.4 19.2 12.8 25.6 12.8 12.8 38.4 12.8 51.2 0l96-108.8z" p-id="13518" fill="#d81e06"></path></svg>