<?xml version="1.0" encoding="utf-8"?>
<svg version="1.1" xmlns:xlink="http://www.w3.org/1999/xlink" width="1920px" height="969px" xmlns="http://www.w3.org/2000/svg">
  <g>
    <path d="M 1 6  A 5 5 0 0 1 6 1 L 1914 1  A 5 5 0 0 1 1919 6 L 1919 963  A 5 5 0 0 1 1914 968 L 6 968  A 5 5 0 0 1 1 963 L 1 6  Z " fill-rule="nonzero" fill="#000000" stroke="none" fill-opacity="0.811764705882353" />
    <path d="M 0.5 6  A 5.5 5.5 0 0 1 6 0.5 L 1914 0.5  A 5.5 5.5 0 0 1 1919.5 6 L 1919.5 963  A 5.5 5.5 0 0 1 1914 968.5 L 6 968.5  A 5.5 5.5 0 0 1 0.5 963 L 0.5 6  Z " stroke-width="1" stroke="#797979" fill="none" stroke-opacity="0.392156862745098" />
  </g>
</svg>