<?xml version="1.0" encoding="utf-8"?>
<svg version="1.1" xmlns:xlink="http://www.w3.org/1999/xlink" width="4px" height="4px" xmlns="http://www.w3.org/2000/svg">
  <defs>
    <mask fill="white" id="clip239">
      <path d="M 3.92578125 0.131944444444445  C 3.97526041666667 0.219907407407407  4 0.324074074074074  4 0.444444444444445  C 4 0.564814814814815  3.97526041666667 0.668981481481481  3.92578125 0.756944444444445  L 2.17578125 3.86805555555556  C 2.12630208333333 3.95601851851852  2.06770833333333 4  2 4  C 1.93229166666667 4  1.87369791666667 3.95601851851852  1.82421875 3.86805555555556  L 0.07421875 0.756944444444445  C 0.0247395833333333 0.668981481481481  0 0.564814814814815  0 0.444444444444445  C 0 0.324074074074074  0.0247395833333333 0.219907407407407  0.07421875 0.131944444444445  C 0.123697916666667 0.043981481481481  0.182291666666667 0  0.25 0  L 3.75 0  C 3.81770833333333 0  3.87630208333333 0.043981481481481  3.92578125 0.131944444444445  Z " fill-rule="evenodd" />
    </mask>
  </defs>
  <g transform="matrix(1 0 0 1 -106 -11 )">
    <path d="M 3.92578125 0.131944444444445  C 3.97526041666667 0.219907407407407  4 0.324074074074074  4 0.444444444444445  C 4 0.564814814814815  3.97526041666667 0.668981481481481  3.92578125 0.756944444444445  L 2.17578125 3.86805555555556  C 2.12630208333333 3.95601851851852  2.06770833333333 4  2 4  C 1.93229166666667 4  1.87369791666667 3.95601851851852  1.82421875 3.86805555555556  L 0.07421875 0.756944444444445  C 0.0247395833333333 0.668981481481481  0 0.564814814814815  0 0.444444444444445  C 0 0.324074074074074  0.0247395833333333 0.219907407407407  0.07421875 0.131944444444445  C 0.123697916666667 0.043981481481481  0.182291666666667 0  0.25 0  L 3.75 0  C 3.81770833333333 0  3.87630208333333 0.043981481481481  3.92578125 0.131944444444445  Z " fill-rule="nonzero" fill="#ffffff" stroke="none" transform="matrix(1 0 0 1 106 11 )" />
    <path d="M 3.92578125 0.131944444444445  C 3.97526041666667 0.219907407407407  4 0.324074074074074  4 0.444444444444445  C 4 0.564814814814815  3.97526041666667 0.668981481481481  3.92578125 0.756944444444445  L 2.17578125 3.86805555555556  C 2.12630208333333 3.95601851851852  2.06770833333333 4  2 4  C 1.93229166666667 4  1.87369791666667 3.95601851851852  1.82421875 3.86805555555556  L 0.07421875 0.756944444444445  C 0.0247395833333333 0.668981481481481  0 0.564814814814815  0 0.444444444444445  C 0 0.324074074074074  0.0247395833333333 0.219907407407407  0.07421875 0.131944444444445  C 0.123697916666667 0.043981481481481  0.182291666666667 0  0.25 0  L 3.75 0  C 3.81770833333333 0  3.87630208333333 0.043981481481481  3.92578125 0.131944444444445  Z " stroke-width="2" stroke="#000000" fill="none" stroke-opacity="0.356862745098039" transform="matrix(1 0 0 1 106 11 )" mask="url(#clip239)" />
  </g>
</svg>