<?xml version="1.0" encoding="utf-8"?>
<svg version="1.1" xmlns:xlink="http://www.w3.org/1999/xlink" width="70px" height="26px" xmlns="http://www.w3.org/2000/svg">
  <g transform="matrix(1 0 0 1 -45 0 )">
    <path d="M 46 2  A 1 1 0 0 1 47 1 L 113 1  A 1 1 0 0 1 114 2 L 114 24  A 1 1 0 0 1 113 25 L 47 25  A 1 1 0 0 1 46 24 L 46 2  Z " fill-rule="nonzero" fill="#d9dce2" stroke="none" />
    <path d="M 45.5 2  A 1.5 1.5 0 0 1 47 0.5 L 113 0.5  A 1.5 1.5 0 0 1 114.5 2 L 114.5 24  A 1.5 1.5 0 0 1 113 25.5 L 47 25.5  A 1.5 1.5 0 0 1 45.5 24 L 45.5 2  Z " stroke-width="1" stroke="#000000" fill="none" stroke-opacity="0.356862745098039" />
  </g>
</svg>