<?xml version="1.0" encoding="utf-8"?>
<svg version="1.1" xmlns:xlink="http://www.w3.org/1999/xlink" width="96px" height="134px" xmlns="http://www.w3.org/2000/svg">
  <g transform="matrix(1 0 0 1 -387 -336 )">
    <path d="M 387 336  L 483 336  L 483 470  L 387 470  L 387 336  " fill-rule="nonzero" fill="#cccccc" stroke="none" />
    <path d="M 394 343  L 476 343  L 476 463  L 394 463  L 394 343  " fill-rule="nonzero" fill="#ffffff" stroke="none" />
    <path d="M 444.12 370.5  C 440.088 370.5  436.92 367.332  436.92 363.3  C 436.92 359.268  440.088 356.1  444.12 356.1  C 448.152 356.1  451.32 359.268  451.32 363.3  C 451.32 367.332  448.152 370.5  444.12 370.5  " fill-rule="nonzero" fill="#cccccc" stroke="none" />
    <path d="M 397 461  L 397 397.75  L 416.25 369  L 443.2 392  L 458.6 386.25  L 474 392  L 474 461  L 397 461  " fill-rule="nonzero" fill="#169bd5" stroke="none" />
  </g>
</svg>