<?xml version="1.0" encoding="utf-8"?>
<svg version="1.1" xmlns:xlink="http://www.w3.org/1999/xlink" width="60px" height="80px" xmlns="http://www.w3.org/2000/svg">
  <g transform="matrix(1 0 0 1 -638 -88 )">
    <path d="M 697.5 100  C 697.5 100  697.5 156  697.5 156  C 697.5 162.608  684.1 167.5  668 167.5  C 651.9 167.5  638.5 162.608  638.5 156  C 638.5 156  638.5 100  638.5 100  C 638.5 93.392  651.9 88.5  668 88.5  C 684.1 88.5  697.5 93.392  697.5 100  Z " fill-rule="nonzero" fill="#ffffff" stroke="none" />
    <path d="M 638.5 100.35  C 638.5 93.714  651.48 88.5  668 88.5  C 684.52 88.5  697.5 93.714  697.5 100.35  C 697.5 100.35  697.5 155.65  697.5 155.65  C 697.5 162.286  684.52 167.5  668 167.5  C 651.48 167.5  638.5 162.286  638.5 155.65  C 638.5 155.65  638.5 100.35  638.5 100.35  Z " stroke-width="1" stroke="#797979" fill="none" />
    <path d="M 697.5 100  C 697.5 106.44  684.52 111.5  668 111.5  C 651.48 111.5  638.5 106.44  638.5 100  " stroke-width="1" stroke="#797979" fill="none" />
  </g>
</svg>