<?xml version="1.0" encoding="utf-8"?>
<svg version="1.1" xmlns:xlink="http://www.w3.org/1999/xlink" width="4px" height="4px" xmlns="http://www.w3.org/2000/svg">
  <defs>
    <mask fill="white" id="clip240">
      <path d="M 3.92578125 3.24305555555556  C 3.97526041666667 3.33101851851852  4 3.43518518518518  4 3.55555555555556  C 4 3.67592592592593  3.97526041666667 3.78009259259259  3.92578125 3.86805555555556  C 3.87630208333333 3.95601851851852  3.81770833333333 4  3.75 4  L 0.25 4  C 0.182291666666667 4  0.123697916666667 3.95601851851852  0.07421875 3.86805555555556  C 0.0247395833333333 3.78009259259259  0 3.67592592592593  0 3.55555555555556  C 0 3.43518518518518  0.0247395833333333 3.33101851851852  0.07421875 3.24305555555556  L 1.82421875 0.131944444444445  C 1.87369791666667 0.043981481481481  1.93229166666667 0  2 0  C 2.06770833333333 0  2.12630208333333 0.043981481481481  2.17578125 0.131944444444445  L 3.92578125 3.24305555555556  Z " fill-rule="evenodd" />
    </mask>
  </defs>
  <g transform="matrix(1 0 0 1 -106 -11 )">
    <path d="M 3.92578125 3.24305555555556  C 3.97526041666667 3.33101851851852  4 3.43518518518518  4 3.55555555555556  C 4 3.67592592592593  3.97526041666667 3.78009259259259  3.92578125 3.86805555555556  C 3.87630208333333 3.95601851851852  3.81770833333333 4  3.75 4  L 0.25 4  C 0.182291666666667 4  0.123697916666667 3.95601851851852  0.07421875 3.86805555555556  C 0.0247395833333333 3.78009259259259  0 3.67592592592593  0 3.55555555555556  C 0 3.43518518518518  0.0247395833333333 3.33101851851852  0.07421875 3.24305555555556  L 1.82421875 0.131944444444445  C 1.87369791666667 0.043981481481481  1.93229166666667 0  2 0  C 2.06770833333333 0  2.12630208333333 0.043981481481481  2.17578125 0.131944444444445  L 3.92578125 3.24305555555556  Z " fill-rule="nonzero" fill="#ffffff" stroke="none" transform="matrix(1 0 0 1 106 11 )" />
    <path d="M 3.92578125 3.24305555555556  C 3.97526041666667 3.33101851851852  4 3.43518518518518  4 3.55555555555556  C 4 3.67592592592593  3.97526041666667 3.78009259259259  3.92578125 3.86805555555556  C 3.87630208333333 3.95601851851852  3.81770833333333 4  3.75 4  L 0.25 4  C 0.182291666666667 4  0.123697916666667 3.95601851851852  0.07421875 3.86805555555556  C 0.0247395833333333 3.78009259259259  0 3.67592592592593  0 3.55555555555556  C 0 3.43518518518518  0.0247395833333333 3.33101851851852  0.07421875 3.24305555555556  L 1.82421875 0.131944444444445  C 1.87369791666667 0.043981481481481  1.93229166666667 0  2 0  C 2.06770833333333 0  2.12630208333333 0.043981481481481  2.17578125 0.131944444444445  L 3.92578125 3.24305555555556  Z " stroke-width="2" stroke="#000000" fill="none" stroke-opacity="0.356862745098039" transform="matrix(1 0 0 1 106 11 )" mask="url(#clip240)" />
  </g>
</svg>