<?xml version="1.0" encoding="utf-8"?>
<svg version="1.1" xmlns:xlink="http://www.w3.org/1999/xlink" width="13px" height="13px" xmlns="http://www.w3.org/2000/svg">
  <g transform="matrix(1 0 0 1 -27 -4 )">
    <path d="M 33.5 4  C 37.14 4  40 6.86  40 10.5  C 40 14.14  37.14 17  33.5 17  C 29.86 17  27 14.14  27 10.5  C 27 6.86  29.86 4  33.5 4  Z " fill-rule="nonzero" fill="#ffffff" stroke="none" />
    <path d="M 33.5 4.5  C 36.86 4.5  39.5 7.14  39.5 10.5  C 39.5 13.86  36.86 16.5  33.5 16.5  C 30.14 16.5  27.5 13.86  27.5 10.5  C 27.5 7.14  30.14 4.5  33.5 4.5  Z " stroke-width="1" stroke="#ffffff" fill="none" />
  </g>
</svg>