<?xml version="1.0" encoding="utf-8"?>
<svg version="1.1" xmlns:xlink="http://www.w3.org/1999/xlink" width="121px" height="26px" xmlns="http://www.w3.org/2000/svg">
  <g transform="matrix(1 0 0 1 -70 0 )">
    <path d="M 71 2  A 1 1 0 0 1 72 1 L 189 1  A 1 1 0 0 1 190 2 L 190 24  A 1 1 0 0 1 189 25 L 72 25  A 1 1 0 0 1 71 24 L 71 2  Z " fill-rule="nonzero" fill="#d9dce2" stroke="none" />
    <path d="M 70.5 2  A 1.5 1.5 0 0 1 72 0.5 L 189 0.5  A 1.5 1.5 0 0 1 190.5 2 L 190.5 24  A 1.5 1.5 0 0 1 189 25.5 L 72 25.5  A 1.5 1.5 0 0 1 70.5 24 L 70.5 2  Z " stroke-width="1" stroke="#000000" fill="none" stroke-opacity="0.356862745098039" />
  </g>
</svg>