<?xml version="1.0" encoding="utf-8"?>
<svg version="1.1" xmlns:xlink="http://www.w3.org/1999/xlink" width="26px" height="25px" xmlns="http://www.w3.org/2000/svg">
  <g transform="matrix(1 0 0 1 -142 -68 )">
    <path d="M 19.703125 22.703125  C 19.9010416666667 22.5052083333333  20 22.2708333333333  20 22  C 20 21.7291666666667  19.9010416666667 21.4947916666667  19.703125 21.296875  C 19.5052083333333 21.0989583333333  19.2708333333333 21  19 21  C 18.7291666666667 21  18.4947916666667 21.0989583333333  18.296875 21.296875  C 18.0989583333333 21.4947916666667  18 21.7291666666667  18 22  C 18 22.2708333333333  18.0989583333333 22.5052083333333  18.296875 22.703125  C 18.4947916666667 22.9010416666667  18.7291666666667 23  19 23  C 19.2708333333333 23  19.5052083333333 22.9010416666667  19.703125 22.703125  Z M 23.703125 22.703125  C 23.9010416666667 22.5052083333333  24 22.2708333333333  24 22  C 24 21.7291666666667  23.9010416666667 21.4947916666667  23.703125 21.296875  C 23.5052083333333 21.0989583333333  23.2708333333333 21  23 21  C 22.7291666666667 21  22.4947916666667 21.0989583333333  22.296875 21.296875  C 22.0989583333333 21.4947916666667  22 21.7291666666667  22 22  C 22 22.2708333333333  22.0989583333333 22.5052083333333  22.296875 22.703125  C 22.4947916666667 22.9010416666667  22.7291666666667 23  23 23  C 23.2708333333333 23  23.5052083333333 22.9010416666667  23.703125 22.703125  Z M 25.5625 17.4375  C 25.8541666666667 17.7291666666667  26 18.0833333333333  26 18.5  L 26 23.5  C 26 23.9166666666667  25.8541666666667 24.2708333333333  25.5625 24.5625  C 25.2708333333333 24.8541666666667  24.9166666666667 25  24.5 25  L 1.5 25  C 1.08333333333333 25  0.729166666666667 24.8541666666667  0.4375 24.5625  C 0.145833333333333 24.2708333333333  0 23.9166666666667  0 23.5  L 0 18.5  C 0 18.0833333333333  0.145833333333333 17.7291666666667  0.4375 17.4375  C 0.729166666666667 17.1458333333333  1.08333333333333 17  1.5 17  L 8.171875 17  C 8.390625 17.5833333333333  8.7578125 18.0625  9.2734375 18.4375  C 9.7890625 18.8125  10.3645833333333 19  11 19  L 15 19  C 15.6354166666667 19  16.2109375 18.8125  16.7265625 18.4375  C 17.2421875 18.0625  17.609375 17.5833333333333  17.828125 17  L 24.5 17  C 24.9166666666667 17  25.2708333333333 17.1458333333333  25.5625 17.4375  Z M 20.703125 7.296875  C 21.0260416666667 7.609375  21.0989583333333 7.96875  20.921875 8.375  C 20.7447916666667 8.79166666666666  20.4375 9  20 9  L 16 9  L 16 16  C 16 16.2708333333333  15.9010416666667 16.5052083333333  15.703125 16.703125  C 15.5052083333333 16.9010416666667  15.2708333333333 17  15 17  L 11 17  C 10.7291666666667 17  10.4947916666667 16.9010416666667  10.296875 16.703125  C 10.0989583333333 16.5052083333333  10 16.2708333333333  10 16  L 10 9  L 6 9  C 5.5625 9  5.25520833333333 8.79166666666666  5.078125 8.375  C 4.90104166666667 7.96875  4.97395833333333 7.609375  5.296875 7.296875  L 12.296875 0.296874999999999  C 12.484375 0.0989583333333321  12.71875 0  13 0  C 13.28125 0  13.515625 0.0989583333333321  13.703125 0.296874999999999  L 20.703125 7.296875  Z " fill-rule="nonzero" fill="#ffffff" stroke="none" transform="matrix(1 0 0 1 142 68 )" />
  </g>
</svg>