<?xml version="1.0" encoding="utf-8"?>
<svg version="1.1" xmlns:xlink="http://www.w3.org/1999/xlink" width="19px" height="19px" xmlns="http://www.w3.org/2000/svg">
  <g transform="matrix(1 0 0 1 -257 -67 )">
    <path d="M 6.66091954876078 18.6724137932138  C 6.44252875269397 18.890804589207  6.22413793103448 19  5.89655172413793 19  L 1.0919540315194 19  C 0.436781617726293 19  0 18.5632183824208  0 17.9080459688483  L 0 13.1034482778477  C 0 12.7758620710615  0.109195410829741 12.5574712750682  0.327586206896552 12.3390804534823  L 12.3390804512392 0.327586213184407  C 12.7758620689655 -0.109195404394802  13.4310344827586 -0.109195404394802  13.8678161004849 0.327586213184407  L 18.6724137931034 5.13218390418501  C 18.8908045891703 5.35057470017828  19 5.56896552176422  19 5.89655172855046  C 19 6.2241379353367  18.8908045891703 6.44252873132997  18.6724137931034 6.66091955291591  L 6.66091954876078 18.6724137932138  Z M 2.18390803744612 13.5402298954269  L 2.18390803744612 16.8160919632893  L 5.45977010641164 16.8160919632893  L 16.3793103448276 5.89655172855046  L 13.1034482758621 2.62068966068807  L 2.18390803744612 13.5402298954269  Z " fill-rule="nonzero" fill="#ffffff" stroke="none" transform="matrix(1 0 0 1 257 67 )" />
  </g>
</svg>