<?xml version="1.0" encoding="utf-8"?>
<svg version="1.1" xmlns:xlink="http://www.w3.org/1999/xlink" width="23px" height="26px" xmlns="http://www.w3.org/2000/svg">
  <g transform="matrix(1 0 0 1 -438 -77 )">
    <path d="M 22.5208333333333 1.85714285714286  L 21.0833333333333 1.85714285714286  C 21.0833333333333 4.38169642857143  20.5517578125 6.61365327380952  19.4886067708333 8.55301339285714  C 18.4254557291667 10.4923735119048  17.0952690972222 11.9747023809524  15.498046875 13  C 17.0952690972222 14.0252976190476  18.4254557291667 15.5076264880952  19.4886067708333 17.4469866071429  C 20.5517578125 19.3863467261905  21.0833333333333 21.6183035714286  21.0833333333333 24.1428571428571  L 22.5208333333333 24.1428571428571  C 22.6605902777778 24.1428571428571  22.775390625 24.1863839285714  22.865234375 24.2734375  C 22.955078125 24.3604910714286  23 24.4717261904762  23 24.6071428571429  L 23 25.5357142857143  C 23 25.671130952381  22.955078125 25.7823660714286  22.865234375 25.8694196428571  C 22.775390625 25.9564732142857  22.6605902777778 26  22.5208333333333 26  L 0.479166666666667 26  C 0.339409722222222 26  0.224609375 25.9564732142857  0.134765625 25.8694196428571  C 0.044921875 25.7823660714286  0 25.671130952381  0 25.5357142857143  L 0 24.6071428571429  C 0 24.4717261904762  0.044921875 24.3604910714286  0.134765625 24.2734375  C 0.224609375 24.1863839285714  0.339409722222222 24.1428571428571  0.479166666666667 24.1428571428571  L 1.91666666666667 24.1428571428571  C 1.91666666666667 21.6183035714286  2.4482421875 19.3863467261905  3.51139322916667 17.4469866071429  C 4.57454427083333 15.5076264880952  5.90473090277778 14.0252976190476  7.501953125 13  C 5.90473090277778 11.9747023809524  4.57454427083333 10.4923735119048  3.51139322916667 8.55301339285714  C 2.4482421875 6.61365327380952  1.91666666666667 4.38169642857143  1.91666666666667 1.85714285714286  L 0.479166666666667 1.85714285714286  C 0.339409722222222 1.85714285714286  0.224609375 1.81361607142857  0.134765625 1.7265625  C 0.044921875 1.63950892857143  0 1.52827380952381  0 1.39285714285714  L 0 0.464285714285716  C 0 0.328869047619045  0.044921875 0.217633928571428  0.134765625 0.130580357142856  C 0.224609375 0.0435267857142845  0.339409722222222 0  0.479166666666667 0  L 22.5208333333333 0  C 22.6605902777778 0  22.775390625 0.0435267857142845  22.865234375 0.130580357142856  C 22.955078125 0.217633928571428  23 0.328869047619045  23 0.464285714285716  L 23 1.39285714285714  C 23 1.52827380952381  22.955078125 1.63950892857143  22.865234375 1.7265625  C 22.775390625 1.81361607142857  22.6605902777778 1.85714285714286  22.5208333333333 1.85714285714286  Z M 12.6305338541667 12.4704241071429  C 12.7453342013889 12.3108258928571  12.8975694444444 12.1971726190476  13.0872395833333 12.1294642857143  C 13.8559027777778 11.8489583333333  14.599609375 11.401599702381  15.318359375 10.7873883928571  C 16.037109375 10.1731770833333  16.6834852430556 9.43563988095238  17.2574869791667 8.57477678571428  C 17.8314887152778 7.71391369047619  18.2931857638889 6.69828869047619  18.642578125 5.52790178571428  C 18.9919704861111 4.35751488095238  19.1666666666667 3.13392857142857  19.1666666666667 2  L 3.83333333333333 2  C 3.83333333333333 3.13392857142857  4.00802951388889 4.35751488095238  4.357421875 5.52790178571428  C 4.70681423611111 6.69828869047619  5.16851128472222 7.71391369047619  5.74251302083333 8.57477678571428  C 6.31651475694444 9.43563988095238  6.962890625 10.1731770833333  7.681640625 10.7873883928571  C 8.400390625 11.401599702381  9.14409722222222 11.8489583333333  9.91276041666667 12.1294642857143  C 10.1024305555556 12.1971726190476  10.2546657986111 12.3108258928571  10.3694661458333 12.4704241071429  C 10.4842664930556 12.6300223214286  10.5416666666667 12.8065476190476  10.5416666666667 13  C 10.5416666666667 13.1934523809524  10.4842664930556 13.3699776785714  10.3694661458333 13.5295758928571  C 10.2546657986111 13.6891741071429  10.1024305555556 13.8028273809524  9.91276041666667 13.8705357142857  C 8.54513888888889 14.3638392857143  7.32725694444444 15.311755952381  6.25911458333333 16.7142857142857  L 16.7408854166667 16.7142857142857  C 15.6727430555556 15.311755952381  14.4548611111111 14.3638392857143  13.0872395833333 13.8705357142857  C 12.8975694444444 13.8028273809524  12.7453342013889 13.6891741071429  12.6305338541667 13.5295758928571  C 12.5157335069444 13.3699776785714  12.4583333333333 13.1934523809524  12.4583333333333 13  C 12.4583333333333 12.8065476190476  12.5157335069444 12.6300223214286  12.6305338541667 12.4704241071429  Z " fill-rule="nonzero" fill="#ffffff" stroke="none" transform="matrix(1 0 0 1 438 77 )" />
  </g>
</svg>