<?xml version="1.0" encoding="utf-8"?>
<svg version="1.1" xmlns:xlink="http://www.w3.org/1999/xlink" width="22px" height="13px" xmlns="http://www.w3.org/2000/svg">
  <g transform="matrix(1 0 0 1 -43 -73 )">
    <path d="M 5.616015625 7.31319247159091  C 5.6203125 7.31319247159091  5.6224609375 7.31111505681818  5.6224609375 7.31111505681818  L 5.6267578125 7.31111505681818  C 6.04140625 7.31111505681818  6.3787109375 6.9849609375  6.3787109375 6.58401988636364  C 6.3787109375 6.18307883522727  6.04140625 5.85692471590909  5.6267578125 5.85692471590909  C 4.94140625 5.85692471590909  4.3634765625 5.07373934659091  4.3634765625 4.14513494318182  C 4.3634765625 3.21653053977273  4.94140625 2.43334517045455  5.6267578125 2.43334517045455  C 6.04140625 2.43334517045455  6.3787109375 2.10719105113636  6.3787109375 1.70625  C 6.3787109375 1.30530894886364  6.04140625 0.979154829545456  5.6267578125 0.979154829545456  C 4.8662109375 0.979154829545456  4.13359375 1.33854758522727  3.613671875 1.96592684659091  C 3.128125 2.55591264204546  2.8595703125 3.3287109375  2.8595703125 4.14513494318182  C 2.8595703125 4.96155894886364  3.128125 5.73435724431818  3.613671875 6.32434303977273  C 3.6265625 6.34096235795455  3.6416015625 6.35758167613636  3.656640625 6.37420099431818  C 3.1646484375 6.64841974431818  2.72421875 7.01819957386364  2.3439453125 7.47938565340909  C 1.52109375 8.47654474431818  1.065625 9.79362571022727  1.065625 11.1854936079545  C 1.065625 11.5864346590909  1.4029296875 11.9125887784091  1.817578125 11.9125887784091  C 2.2322265625 11.9125887784091  2.56953125 11.5864346590909  2.56953125 11.1854936079545  C 2.56953125 10.1218572443182  2.9068359375 9.12677556818182  3.5169921875 8.38721590909091  C 4.0884765625 7.69543678977273  4.833984375 7.31319247159091  5.616015625 7.31319247159091  Z M 20.9279296875 11.1834161931818  C 20.9322265625 9.79154829545455  20.4767578125 8.47654474431818  19.65390625 7.47938565340909  C 19.2736328125 7.01819957386364  18.833203125 6.64841974431818  18.3412109375 6.37420099431818  C 18.35625 6.35758167613636  18.369140625 6.34096235795455  18.3841796875 6.32434303977273  C 18.8697265625 5.73435724431818  19.13828125 4.96155894886364  19.13828125 4.14513494318182  C 19.13828125 3.3287109375  18.8697265625 2.55591264204546  18.3841796875 1.96592684659091  C 17.86640625 1.33854758522727  17.131640625 0.979154829545456  16.37109375 0.979154829545456  C 15.9564453125 0.979154829545456  15.619140625 1.30530894886364  15.619140625 1.70625  C 15.619140625 2.10719105113636  15.9564453125 2.43334517045455  16.37109375 2.43334517045455  C 17.0564453125 2.43334517045455  17.634375 3.21653053977273  17.634375 4.14513494318182  C 17.634375 5.07373934659091  17.0564453125 5.85692471590909  16.37109375 5.85692471590909  C 15.9564453125 5.85692471590909  15.619140625 6.18307883522727  15.619140625 6.58401988636364  C 15.619140625 6.9849609375  15.9564453125 7.31111505681818  16.37109375 7.31111505681818  L 16.3775390625 7.31111505681818  C 17.1595703125 7.31111505681818  17.905078125 7.693359375  18.4765625 8.38513849431818  C 19.0888671875 9.12469815340909  19.4240234375 10.1197798295455  19.4240234375 11.1834161931818  C 19.4240234375 11.5843572443182  19.761328125 11.9105113636364  20.1759765625 11.9105113636364  C 20.590625 11.9105113636364  20.9279296875 11.5843572443182  20.9279296875 11.1834161931818  Z " fill-rule="nonzero" fill="#ffffff" stroke="none" transform="matrix(1 0 0 1 43 73 )" />
  </g>
</svg>