<?xml version="1.0" encoding="utf-8"?>
<svg version="1.1" xmlns:xlink="http://www.w3.org/1999/xlink" width="22px" height="23px" xmlns="http://www.w3.org/2000/svg">
  <g transform="matrix(1 0 0 1 -459 -68 )">
    <path d="M 1.73953432233146 14.0411683427527  C 0.822658444522472 14.0411683427527  0.0891722261235954 13.3151304853723  0.0891722261235956 12.2260378573803  C 0.0891722261235956 11.3184726146941  0.822658444522472 10.5924347573138  1.73953432233146 10.5924347573138  C 2.83977571980337 10.5924347573138  3.57328607794944 11.3184726146941  3.57328607794944 12.2260378573803  C 3.57328607794944 13.315106590758  2.83979985955056 14.0411683427527  1.73953432233146 14.0411683427527  Z M 2.28967916081461 5.87310505319149  C 2.28967916081461 4.60250893450798  3.2065550386236 3.51344020113032  4.49018609550562 3.51344020113032  C 5.77381715238764 3.51344020113032  6.87405854985955 4.60250893450798  6.87405854985955 5.87310505319149  C 6.87405854985955 7.143701171875  5.77381715238764 8.05126641456117  4.49018609550562 8.05126641456117  C 3.2065550386236 8.05126641456117  2.28967916081461 7.143701171875  2.28967916081461 5.87310505319149  Z M 4.49018609550562 20.0311180601729  C 3.75667573735955 20.0311180601729  3.20655503862359 19.486583693484  3.2065550386236 18.7605219414894  C 3.2065550386236 18.034484084109  3.75667573735955 17.4899258228059  4.49018609550562 17.4899258228059  C 5.22369645365168 17.4899258228059  5.77381715238764 18.0344601894947  5.77381715238764 18.7605219414894  C 5.77381715238764 19.4865597988697  5.22369645365169 20.0311180601729  4.49018609550562 20.0311180601729  Z M 11.0917068995787 22.9353411735372  C 10.1748310217697 22.9353411735372  9.62468618328652 22.3908068068484  9.62468618328652 21.4832176695479  C 9.62468618328652 20.5756524268617  10.1748068820225 20.0310941655585  11.0917068995787 20.0310941655585  C 12.0086069171348 20.0310941655585  12.5587276158708 20.5756285322473  12.5587276158708 21.4832176695479  C 12.5587276158708 22.390782912234  12.0086069171348 22.9353411735372  11.0917068995787 22.9353411735372  Z M 17.6932035639045 19.6680871841755  C 17.1430828651685 19.6680871841755  16.7763276860955 19.3050563081782  16.7763276860955 18.7605219414894  C 16.7763276860955 18.2159875748005  17.1430828651685 17.8529566988032  17.6932035639045 17.8529566988032  C 18.2433242626404 17.8529566988032  18.6100794417135 18.2159875748005  18.6100794417135 18.7605219414894  C 18.6100794417135 19.3050563081782  18.2433242626404 19.6680871841755  17.6932035639045 19.6680871841755  Z M 20.4438070575843 13.8596409574468  C 19.5269311797753 13.8596409574468  18.7934449613764 13.1336031000665  18.7934449613764 12.2260378573803  C 18.7934449613764 11.5  19.5269311797753 10.773914353391  20.4438070575843 10.773914353391  C 21.1772932759831 10.773914353391  21.9108277738764 11.4999522107713  21.9108277738764 12.2260378573803  C 21.9108277738764 13.1336031000665  21.1773415554775 13.8596409574468  20.4438070575843 13.8596409574468  Z M 17.6932035639045 8.95883165724734  C 16.0428414676966 8.95883165724734  14.5758207514045 7.50670815325798  14.5758207514045 5.87310505319149  C 14.5758207514045 4.05797456781915  16.0428414676966 2.78737844913564  17.6932035639045 2.78737844913564  C 19.3435656601124 2.78737844913564  20.8105863764045 4.05797456781915  20.8105863764045 5.87310505319149  C 20.8105863764045 7.50670815325798  19.3435656601124 8.95883165724734  17.6932035639045 8.95883165724734  Z M 11.0917068995787 6.23613592918883  C 9.44134480337079 6.23613592918883  7.97432408707865 4.78401242519947  7.97432408707865 3.15040932513298  C 7.97432408707865 1.51680622506649  9.44134480337079 0.0646827210771275  11.0917068995787 0.0646827210771275  C 12.7420689957865 0.0646827210771275  14.2090897120787 1.51680622506649  14.2090897120787 3.15040932513298  C 14.2090897120787 4.78401242519947  12.7420689957865 6.23613592918883  11.0917068995787 6.23613592918883  Z " fill-rule="nonzero" fill="#ffffff" stroke="none" transform="matrix(1 0 0 1 459 68 )" />
  </g>
</svg>