<?xml version="1.0" encoding="utf-8"?>
<svg version="1.1" xmlns:xlink="http://www.w3.org/1999/xlink" width="22px" height="20px" xmlns="http://www.w3.org/2000/svg">
  <g transform="matrix(1 0 0 1 -954 -72 )">
    <path d="M 22 2.56756756756757  L 21.8625 2.56756756756757  C 21.8625 1.21621621621622  20.7625 0.135135135135135  19.3875 0  L 2.75 0  C 1.375 0  0 1.08108108108108  0 2.56756756756757  L 0 17.2972972972973  C 0 18.7837837837838  1.2375 20  2.75 20  L 11 20  C 11.4125 20  11.825 19.5945945945946  11.825 19.1891891891892  C 11.825 18.7837837837838  11.4125 18.2432432432432  11 18.2432432432432  L 2.75 18.2432432432432  C 2.2 18.2432432432432  1.7875 17.8378378378378  1.7875 17.2972972972973  L 1.7875 8  L 22 8  L 22 2.56756756756757  Z M 20.075 6  L 1.65 6  L 1.65 2.56756756756757  C 1.65 2.02702702702703  2.0625 1.62162162162162  2.6125 2  L 19.25 2  C 19.6625 1.75675675675676  20.075 2.16216216216216  20.075 2.56756756756757  L 20.075 6  Z " fill-rule="nonzero" fill="#ffffff" stroke="none" transform="matrix(1 0 0 1 954 72 )" />
  </g>
</svg>