<?xml version="1.0" encoding="utf-8"?>
<svg version="1.1" xmlns:xlink="http://www.w3.org/1999/xlink" width="22px" height="21px" xmlns="http://www.w3.org/2000/svg">
  <g transform="matrix(1 0 0 1 -727 -71 )">
    <path d="M 2.73765514940925 0  L 17.3384826308385 0  C 18.7881236085748 0.0130279112371803  19.9865294303754 1.14220801299245  20.0715750315903 2.58832437090356  L 20.076137796417 2.74881940250468  L 20.076137796417 8.22024099953184  C 20.0755792434043 8.7234761988459  19.6671798170494 9.1311331710705  19.163586642692 9.1311331710705  C 18.7012887900629 9.1311331710705  18.3120238300652 8.78566974678539  18.2574222248218 8.32693373127341  L 18.2510343663625 8.22024099953184  L 18.2510343663625 2.74881940250468  C 18.2509733380013 2.28650722769443  17.9047144961767 1.89738964413635  17.4452511925035 1.84329912804307  L 17.3384826308385 2  L 2.73765514940925 2  C 2.2750143946084 1.83697679143108  1.8856202527875 2.18298971085088  1.83149129284126 2.64212669124532  L 2 2.74881940250468  L 2 18.2511805974953  C 1.82516446274323 18.7134927723056  2.17142330456786 19.1026103558636  2.63088660824106 19.1567008719569  L 2.73765514940925 19.1630841935861  L 9.12551717509664 19.1630841935861  C 9.62911003969851 19.1636423498993  10.03705674672 19.5717517199238  10.03705674672 20.0749872287734  C 10.03705674672 20.5369567449503  9.69134779057382 20.9259452384336  9.23228573676159 20.9805080641386  L 9.12551717509665 20.9868913857678  L 2.73765514940925 20.9868913857678  C 1.28801417958259 20.9869720779167  0.0896083699056844 19.8577919791165  0.00456276915419727 18.4116756290964  L 0 18.2511805974953  L 0 2.74881940250468  C -8.0745171831981E-05 1.30020800694551  1.12990189789707 0.102653337522861  2.57704604887625 0.0176681384597371  L 2.73765514940925 0  Z M 21.581848119038 12.0867122600655  C 21.9313415585205 12.3854964471714  22.0036978570953 12.8974933530753  21.7506701921596 13.2813059691011  L 21.6813162651791 13.3724963307584  L 16.2060059545189 19.7558215238764  C 15.8932472032364 20.1208022844005  15.3507346966804 20.1806397252789  14.9658481799664 19.8926070663624  L 11.3156412993607 17.1568962780899  C 11.0855350827964 16.9847071409363  10.9500756928812 16.7142331118844  10.9500756928812 16.4269653184924  C 10.9500756928812 15.9233348690556  11.3586390122669 15.5150617224016  11.8626274079084 15.5150617224016  C 12.021242984073 15.5150617224016  12.1771194872444 15.5563755656615  12.3148854436105 15.6349291637406  L 12.4107033614927 15.6978505120552  L 15.3764964404554 17.9201595768961  L 20.2951502006447 12.186109761236  C 20.623261195301 11.8038829342259  21.1993109170645 11.7597913124164  21.581848119038 12.0876241690075  Z M 5.47531031498771 10.9559518082865  L 10.0380688901239 10.9559518082865  C 10.5420572857654 10.9559518082865  10.9506206051511 11.3642249549405  10.9506206051511 11.8678554043773  C 10.9506206051511 12.3714858538142  10.5420572857654 12.7797590004682  10.0380688901239 12.7797590004682  L 5.47531031498771 12.7797590004682  C 4.97132191934624 12.7797590004682  4.56275859996048 12.3714858538142  4.56275859996048 11.8678554043773  C 4.56275859996048 11.3642249549405  4.97132191934623 10.9559518082865  5.47531031498771 10.9559518082865  Z M 5.47531031498771 6.39643380735019  L 14.6008274857568 6.39643380735019  C 15.1048158542021 6.39643380735018  15.5133791735879 6.80470695400419  15.5133791735879 7.30833740344101  C 15.5133791735879 7.81196785287783  15.1048158542021 8.22024099953183  14.6008274585606 8.22024099953183  L 5.47531031498771 8.22024099953183  C 4.97132189215007 8.22024099953183  4.56275857276432 7.81196785287783  4.56275857276432 7.30833740344101  C 4.56275857276432 6.80470695400419  4.97132189215007 6.39643380735018  5.47531028779155 6.39643380735018  Z " fill-rule="nonzero" fill="#ffffff" stroke="none" transform="matrix(1 0 0 1 727 71 )" />
  </g>
</svg>