<?xml version="1.0" encoding="utf-8"?>
<svg version="1.1" xmlns:xlink="http://www.w3.org/1999/xlink" width="22px" height="22px" xmlns="http://www.w3.org/2000/svg">
  <g transform="matrix(1 0 0 1 -279 -70 )">
    <path d="M 0.0991210937499996 18.197265625  C 0.0966796874999998 18.49267578125  0.3359375 18.73193359375  0.63134765625 18.73193359375  L 10.53125 18.73193359375  C 10.82666015625 18.73193359375  11.0634765625 18.49267578125  11.0634765625 18.19970703125  C 11.0634765625 17.904296875  10.82421875 17.66748046875  10.53125 17.66748046875  L 1.6982421875 17.66748046875  C 1.40283203125 17.66748046875  1.166015625 17.42822265625  1.166015625 17.13525390625  L 1.166015625 15.6142578125  C 1.166015625 15.27978515625  1.52978515625 14.99658203125  1.9619140625 14.99658203125  L 8.21923828125 14.99658203125  C 8.41455078125 14.99658203125  8.59521484375 14.88916015625  8.68798828125 14.71826171875  C 9.12744140625 13.91259765625  9.359375 12.99951171875  9.359375 12.0791015625  C 9.359375 11.23193359375  9.17138671875 10.4189453125  8.802734375 9.65966796875  C 8.7587890625 9.5693359375  8.6904296875 9.49609375  8.607421875 9.4423828125  C 7.2841796875 8.60986328125  6.49560546875 7.18896484375  6.49560546875 5.6435546875  C 6.49072265625 3.15576171875  8.5341796875 1.13671875  11.048828125 1.13671875  C 13.5634765625 1.13671875  15.60693359375 3.15576171875  15.60693359375 5.638671875  C 15.60693359375 7.1328125  14.857421875 8.52685546875  13.6025390625 9.36669921875  C 13.52685546875 9.41552734375  13.4658203125 9.48388671875  13.4267578125 9.564453125  C 13.30224609375 9.8037109375  13.197265625 10.05029296875  13.109375 10.306640625  C 13.0068359375 10.6044921875  13.18994140625 10.9267578125  13.49755859375 10.9951171875  C 13.763671875 11.05615234375  14.0322265625 10.90478515625  14.1201171875 10.64599609375  C 14.1591796875 10.52880859375  14.20556640625 10.4140625  14.25439453125 10.3017578125  C 14.291015625 10.21875  14.349609375 10.1455078125  14.4228515625 10.091796875  C 15.8388671875 9.0419921875  16.673828125 7.396484375  16.673828125 5.63623046875  C 16.673828125 4.14697265625  16.087890625 2.748046875  15.0234375 1.69580078125  C 13.96142578125 0.6484375  12.55029296875 0.06982421875  11.048828125 0.06982421875  C 9.54736328125 0.06982421875  8.13623046875 0.6484375  7.07177734375 1.6982421875  C 6.00732421875 2.75048828125  5.42138671875 4.1494140625  5.42138671875 5.638671875  C 5.42138671875 6.59326171875  5.67041015625 7.53564453125  6.13916015625 8.36328125  C 6.54443359375 9.076171875  7.10595703125 9.69384765625  7.77734375 10.169921875  C 7.86279296875 10.228515625  7.92626953125 10.3115234375  7.96533203125 10.4091796875  C 8.18017578125 10.93896484375  8.28759765625 11.498046875  8.28759765625 12.07421875  C 8.28759765625 12.5869140625  8.19970703125 13.0947265625  8.02880859375 13.5732421875  C 7.953125 13.78564453125  7.7529296875 13.9248046875  7.5283203125 13.9248046875  L 1.95947265625 13.9248046875  C 0.93408203125 13.9248046875  0.0991210937499996 14.681640625  0.0991210937499996 15.609375  L 0.0991210937499996 18.197265625  Z M 21.947265625 19.1591796875  C 21.9521484375 19.095703125  21.90087890625 19.04443359375  21.83740234375 19.04443359375  L 20.3212890625 19.04443359375  C 20.2578125 19.04443359375  20.20654296875 19.095703125  20.20654296875 19.1591796875  L 20.20654296875 19.99658203125  C 20.20654296875 20.06005859375  20.2578125 20.111328125  20.3212890625 20.111328125  L 20.7705078125 20.111328125  C 20.833984375 20.111328125  20.88525390625 20.16259765625  20.88525390625 20.22607421875  C 20.88525390625 20.560546875  20.521484375 20.84375  20.08935546875 20.84375  L 1.95947265625 20.84375  C 1.52978515625 20.84375  1.16357421875 20.560546875  1.16357421875 20.22607421875  C 1.16357421875 20.16259765625  1.21484375 20.111328125  1.2783203125 20  L 12.4111328125 20  C 12.474609375 20.111328125  12.52587890625 20.06005859375  12.52587890625 19.99658203125  L 12.52587890625 19.1591796875  C 12.52587890625 19.095703125  12.474609375 19.04443359375  12.4111328125 19  L 0.21142578125 19  C 0.14794921875 19.04443359375  0.0966796874999998 19.095703125  0.0966796874999998 19.1591796875  L 0.0966796874999998 20.22607421875  C 0.0966796874999998 21.15380859375  0.931640625 21.91064453125  1.95703125 22  L 20.0869140625 22  C 21.1123046875 21.91064453125  21.947265625 21.15380859375  21.947265625 20.22607421875  L 21.947265625 19.1591796875  Z " fill-rule="nonzero" fill="#ffffff" stroke="none" transform="matrix(1 0 0 1 279 70 )" />
  </g>
</svg>