<?xml version="1.0" encoding="utf-8"?>
<svg version="1.1" xmlns:xlink="http://www.w3.org/1999/xlink" width="166px" height="185px" xmlns="http://www.w3.org/2000/svg">
  <g transform="matrix(1 0 0 1 -1019 -167 )">
    <path d="M 1019 167  L 1185 167  L 1185 352  L 1019 352  L 1019 167  " fill-rule="nonzero" fill="#cccccc" stroke="none" />
    <path d="M 1031 179  L 1173 179  L 1173 340  L 1031 340  L 1031 179  " fill-rule="nonzero" fill="#ffffff" stroke="none" />
    <path d="M 1117.77 219.65  C 1110.798 219.65  1105.32 214.172  1105.32 207.2  C 1105.32 200.228  1110.798 194.75  1117.77 194.75  C 1124.742 194.75  1130.22 200.228  1130.22 207.2  C 1130.22 214.172  1124.742 219.65  1117.77 219.65  " fill-rule="nonzero" fill="#cccccc" stroke="none" />
    <path d="M 1035 336  L 1035 251.85  L 1068.5 213.6  L 1115.4 244.2  L 1142.2 236.55  L 1169 244.2  L 1169 336  L 1035 336  " fill-rule="nonzero" fill="#169bd5" stroke="none" />
  </g>
</svg>