<?xml version="1.0" encoding="utf-8"?>
<svg version="1.1" xmlns:xlink="http://www.w3.org/1999/xlink" width="21px" height="21px" xmlns="http://www.w3.org/2000/svg">
  <g transform="matrix(1 0 0 1 -1090 -437 )">
    <path d="M 1100.5 437  C 1106.38 437  1111 441.62  1111 447.5  C 1111 453.38  1106.38 458  1100.5 458  C 1094.62 458  1090 453.38  1090 447.5  C 1090 441.62  1094.62 437  1100.5 437  Z " fill-rule="nonzero" fill="#ffffff" stroke="none" fill-opacity="0" />
    <path d="M 1100.5 437.5  C 1106.1 437.5  1110.5 441.9  1110.5 447.5  C 1110.5 453.1  1106.1 457.5  1100.5 457.5  C 1094.9 457.5  1090.5 453.1  1090.5 447.5  C 1090.5 441.9  1094.9 437.5  1100.5 437.5  Z " stroke-width="1" stroke="#d7d7d7" fill="none" />
  </g>
</svg>