<svg t="1611043431105" class="icon" viewBox="0 0 1024 1024" version="1.1" xmlns="http://www.w3.org/2000/svg" p-id="8300" width="200" height="200"><path d="M951.808 531.383a445.294 445.294 0 0 1-38.4 121.563c-12.8 19.237-25.6 25.6-44.763 19.237-19.237-12.873-25.6-25.6-19.237-44.837 18.505-36.279 31.451-75.044 38.4-115.127 25.6-102.4 19.163-198.29 12.8-255.926l-396.8-185.49-396.873 185.49c-6.364 57.636-12.727 147.163 12.873 255.926 44.763 211.018 179.2 358.254 384 447.781 64-25.6 115.2-57.637 166.4-95.963 12.8-12.8 32.037-6.437 44.837 6.363 12.726 12.8 6.363 32.037-6.437 44.763-57.563 44.837-121.563 76.8-192 108.764h-25.6c-236.763-95.964-384-262.217-435.2-498.98a972.654 972.654 0 0 1-12.873-294.254c6.436-12.727 12.873-19.018 19.236-25.6L491.008 0.439h25.6l428.837 204.654c12.8 6.436 19.236 12.873 19.236 25.6 6.364 57.636 12.727 166.4-12.873 300.69zM516.535 723.237c-51.2 0-108.764-25.6-147.164-63.927-83.31-83.164-83.31-211.09 0-294.254 83.164-83.163 211.164-83.163 294.327 0 70.437 70.363 76.8 185.49 19.237 268.654L817.37 768.073a30.94 30.94 0 0 1 0 44.764c-6.436 6.363-12.8 6.363-25.6 6.363-12.873 0-19.236 0-25.6-6.363l-128-128c-38.4 25.6-76.8 38.4-121.563 38.4h-0.073z m102.4-313.418c-25.6-31.963-63.927-44.763-102.327-44.763s-76.8 19.163-102.4 44.763a142.921 142.921 0 0 0 0 204.8c57.563 51.127 147.163 51.127 204.8 0a142.848 142.848 0 0 0 0-204.8z" p-id="8301" fill="#1296db"></path></svg>