<?xml version="1.0" encoding="utf-8"?>
<svg version="1.1" xmlns:xlink="http://www.w3.org/1999/xlink" width="240px" height="320px" xmlns="http://www.w3.org/2000/svg">
  <g transform="matrix(1 0 0 1 -10 -11 )">
    <path d="M 10 11  L 250 11  L 250 331  L 10 331  L 10 11  " fill-rule="nonzero" fill="#cccccc" stroke="none" />
    <path d="M 27 28  L 233 28  L 233 314  L 27 314  L 27 28  " fill-rule="nonzero" fill="#ffffff" stroke="none" />
    <path d="M 152.8 95  C 142.72 95  134.8 87.08  134.8 77  C 134.8 66.92  142.72 59  152.8 59  C 162.88 59  170.8 66.92  170.8 77  C 170.8 87.08  162.88 95  152.8 95  " fill-rule="nonzero" fill="#cccccc" stroke="none" />
    <path d="M 33 308  L 33 157.3  L 81.5 88.8  L 149.4 143.6  L 188.2 129.9  L 227 143.6  L 227 308  L 33 308  " fill-rule="nonzero" fill="#169bd5" stroke="none" />
  </g>
</svg>