<?xml version="1.0" encoding="utf-8"?>
<svg version="1.1" xmlns:xlink="http://www.w3.org/1999/xlink" width="272px" height="454px" xmlns="http://www.w3.org/2000/svg">
  <defs>
    <filter x="0px" y="1px" width="272px" height="454px" filterUnits="userSpaceOnUse" id="filter265">
      <feOffset dx="5" dy="5" in="SourceAlpha" result="shadowOffsetInner" />
      <feGaussianBlur stdDeviation="2.5" in="shadowOffsetInner" result="shadowGaussian" />
      <feComposite in2="shadowGaussian" operator="atop" in="SourceAlpha" result="shadowComposite" />
      <feColorMatrix type="matrix" values="0 0 0 0 0  0 0 0 0 0  0 0 0 0 0  0 0 0 0.0274509803921569 0  " in="shadowComposite" />
    </filter>
    <g id="widget266">
      <path d="M 1 7  A 5 5 0 0 1 6 2 L 256 2  A 5 5 0 0 1 261 7 L 261 439  A 5 5 0 0 1 256 444 L 6 444  A 5 5 0 0 1 1 439 L 1 7  Z " fill-rule="nonzero" fill="#ffffff" stroke="none" />
      <path d="M 0.5 7  A 5.5 5.5 0 0 1 6 1.5 L 256 1.5  A 5.5 5.5 0 0 1 261.5 7 L 261.5 439  A 5.5 5.5 0 0 1 256 444.5 L 6 444.5  A 5.5 5.5 0 0 1 0.5 439 L 0.5 7  Z " stroke-width="1" stroke="#797979" fill="none" stroke-opacity="0.317647058823529" />
    </g>
  </defs>
  <g transform="matrix(1 0 0 1 0 -1 )">
    <use xlink:href="#widget266" filter="url(#filter265)" />
    <use xlink:href="#widget266" />
  </g>
</svg>