<svg t="1611034922682" class="icon" viewBox="0 0 1024 1024" version="1.1" xmlns="http://www.w3.org/2000/svg" p-id="4796" width="200" height="200"><path d="M173.248 407.68l0 0c-0.768 2.272-0.192 4.704 1.44 6.4l10.944 11.2-2.528 15.52c-0.384 2.4 0.576 4.736 2.528 6.112 1.024 0.704 2.24 1.088 3.424 1.088 0.992 0 1.984-0.256 2.848-0.736l13.056-7.2 13.056 7.2c1.92 1.056 4.48 0.896 6.24-0.352 1.952-1.376 2.912-3.744 2.528-6.144l-2.528-15.488 10.912-11.2c1.632-1.696 2.208-4.128 1.44-6.4-0.736-2.176-2.624-3.776-4.8-4.096l-14.976-2.272-6.464-13.824c-0.992-2.112-3.136-3.488-5.408-3.488s-4.416 1.376-5.408 3.488l-6.496 13.824-14.976 2.272c-2.24 0.352-4.064 1.92-4.8 4.096zM749.568 303.392l0 0c-1.504 4.512-0.416 9.408 2.88 12.8l21.856 22.4-5.056 31.008c-0.8 4.768 1.152 9.472 5.024 12.224 2.016 1.408 4.448 2.176 6.848 2.176 1.984 0 3.968-0.512 5.664-1.472l26.112-14.432 26.08 14.4c3.808 2.08 8.992 1.792 12.512-0.672 3.936-2.784 5.856-7.488 5.056-12.288l-5.056-30.976 21.856-22.4c3.296-3.36 4.384-8.256 2.88-12.8-1.44-4.32-5.216-7.552-9.6-8.224l-29.92-4.576-12.96-27.616c-2.016-4.256-6.272-6.976-10.848-6.976s-8.832 2.752-10.816 7.008l-12.96 27.616-29.92 4.576c-4.448 0.672-8.128 3.84-9.6 8.192zM429.408 163.552l0 0c-1.152 3.392-0.32 7.072 2.144 9.6l16.384 16.8-3.808 23.264c-0.576 3.584 0.864 7.104 3.776 9.184 1.536 1.056 3.328 1.632 5.152 1.632 1.504 0 2.976-0.384 4.256-1.088l19.584-10.816 19.552 10.816c2.88 1.568 6.752 1.344 9.376-0.512 2.944-2.08 4.384-5.6 3.808-9.216l-3.776-23.232 16.384-16.8c2.464-2.528 3.296-6.208 2.144-9.6-1.088-3.232-3.904-5.664-7.2-6.144l-22.464-3.424-9.728-20.704c-1.504-3.2-4.704-5.248-8.128-5.248s-6.624 2.048-8.128 5.248l-9.728 20.704-22.464 3.424c-3.328 0.512-6.112 2.88-7.2 6.144zM173.888 647.072l0 0c-2.272 6.784-0.64 14.144 4.32 19.2l32.8 33.6-7.584 46.496c-1.184 7.168 1.696 14.208 7.552 18.368 3.04 2.112 6.688 3.264 10.272 3.264 2.976 0 5.92-0.768 8.512-2.208l39.136-21.632 39.136 21.632c5.728 3.136 13.472 2.72 18.752-1.024 5.888-4.16 8.768-11.232 7.584-18.432l-7.584-46.464 32.768-33.6c4.928-5.056 6.592-12.384 4.32-19.168-2.176-6.496-7.84-11.296-14.4-12.32l-44.896-6.848-19.424-41.44c-3.008-6.368-9.376-10.496-16.256-10.496s-13.28 4.128-16.256 10.496l-19.456 41.44-44.896 6.848c-6.688 1.024-12.192 5.728-14.4 12.288zM869.888 831.008c-34.816 34.816-91.2 34.816-125.984 0.032l-505.28-505.28c-34.784-34.784-34.784-91.2 0.032-125.984s91.2-34.816 125.984-0.032l505.28 505.28c34.784 34.784 34.784 91.2-0.032 125.984zM418.944 296.192l-75.04-75.04c-22.848-22.848-59.904-22.848-82.752 0s-22.848 59.872 0 82.752l75.04 75.04 82.72-82.72z" p-id="4797" fill="#d4237a"></path></svg>