<?xml version="1.0" encoding="utf-8"?>
<svg version="1.1" xmlns:xlink="http://www.w3.org/1999/xlink" width="148px" height="139px" xmlns="http://www.w3.org/2000/svg">
  <g transform="matrix(1 0 0 1 -42 -26 )">
    <path d="M 43 32  A 5 5 0 0 1 48 27 L 184 27  A 5 5 0 0 1 189 32 L 189 159  A 5 5 0 0 1 184 164 L 48 164  A 5 5 0 0 1 43 159 L 43 32  Z " fill-rule="nonzero" fill="#ffffff" stroke="none" />
    <path d="M 42.5 32  A 5.5 5.5 0 0 1 48 26.5 L 184 26.5  A 5.5 5.5 0 0 1 189.5 32 L 189.5 159  A 5.5 5.5 0 0 1 184 164.5 L 48 164.5  A 5.5 5.5 0 0 1 42.5 159 L 42.5 32  Z " stroke-width="1" stroke="#797979" fill="none" stroke-opacity="0.392156862745098" />
  </g>
</svg>