<?xml version="1.0" encoding="utf-8"?>
<svg version="1.1" xmlns:xlink="http://www.w3.org/1999/xlink" width="14px" height="9px" xmlns="http://www.w3.org/2000/svg">
  <defs>
    <mask fill="white" id="clip257">
      <path d="M 13.740234375 0.296875  C 13.9134114583333 0.494791666666665  14 0.729166666666664  14 1  C 14 1.27083333333333  13.9134114583333 1.50520833333333  13.740234375 1.703125  L 7.615234375 8.703125  C 7.44205729166667 8.90104166666666  7.23697916666667 9  7 9  C 6.76302083333333 9  6.55794270833333 8.90104166666666  6.384765625 8.703125  L 0.259765625 1.703125  C 0.0865885416666667 1.50520833333333  0 1.27083333333333  0 1  C 0 0.729166666666664  0.0865885416666667 0.494791666666665  0.259765625 0.296875  C 0.432942708333333 0.0989583333333321  0.638020833333333 0  0.875 0  L 13.125 0  C 13.3619791666667 0  13.5670572916667 0.0989583333333321  13.740234375 0.296875  Z " fill-rule="evenodd" />
    </mask>
  </defs>
  <g transform="matrix(1 0 0 1 -169 -11 )">
    <path d="M 13.740234375 0.296875  C 13.9134114583333 0.494791666666665  14 0.729166666666664  14 1  C 14 1.27083333333333  13.9134114583333 1.50520833333333  13.740234375 1.703125  L 7.615234375 8.703125  C 7.44205729166667 8.90104166666666  7.23697916666667 9  7 9  C 6.76302083333333 9  6.55794270833333 8.90104166666666  6.384765625 8.703125  L 0.259765625 1.703125  C 0.0865885416666667 1.50520833333333  0 1.27083333333333  0 1  C 0 0.729166666666664  0.0865885416666667 0.494791666666665  0.259765625 0.296875  C 0.432942708333333 0.0989583333333321  0.638020833333333 0  0.875 0  L 13.125 0  C 13.3619791666667 0  13.5670572916667 0.0989583333333321  13.740234375 0.296875  Z " fill-rule="nonzero" fill="#000000" stroke="none" fill-opacity="0.56078431372549" transform="matrix(1 0 0 1 169 11 )" />
    <path d="M 13.740234375 0.296875  C 13.9134114583333 0.494791666666665  14 0.729166666666664  14 1  C 14 1.27083333333333  13.9134114583333 1.50520833333333  13.740234375 1.703125  L 7.615234375 8.703125  C 7.44205729166667 8.90104166666666  7.23697916666667 9  7 9  C 6.76302083333333 9  6.55794270833333 8.90104166666666  6.384765625 8.703125  L 0.259765625 1.703125  C 0.0865885416666667 1.50520833333333  0 1.27083333333333  0 1  C 0 0.729166666666664  0.0865885416666667 0.494791666666665  0.259765625 0.296875  C 0.432942708333333 0.0989583333333321  0.638020833333333 0  0.875 0  L 13.125 0  C 13.3619791666667 0  13.5670572916667 0.0989583333333321  13.740234375 0.296875  Z " stroke-width="2" stroke="#797979" fill="none" transform="matrix(1 0 0 1 169 11 )" mask="url(#clip257)" />
  </g>
</svg>