<?xml version="1.0" encoding="utf-8"?>
<svg version="1.1" xmlns:xlink="http://www.w3.org/1999/xlink" width="260px" height="465px" xmlns="http://www.w3.org/2000/svg">
  <g transform="matrix(1 0 0 1 1 2 )">
    <path d="M 0 0  A 1 1 0 0 1 1 -1 L 257 -1  A 1 1 0 0 1 258 0 L 258 461  A 1 1 0 0 1 257 462 L 1 462  A 1 1 0 0 1 0 461 L 0 0  Z " fill-rule="nonzero" fill="#ffffff" stroke="none" />
    <path d="M -0.5 0  A 1.5 1.5 0 0 1 1 -1.5 L 257 -1.5  A 1.5 1.5 0 0 1 258.5 0 L 258.5 461  A 1.5 1.5 0 0 1 257 462.5 L 1 462.5  A 1.5 1.5 0 0 1 -0.5 461 L -0.5 0  Z " stroke-width="1" stroke="#797979" fill="none" stroke-opacity="0.392156862745098" />
  </g>
</svg>