<?xml version="1.0" encoding="utf-8"?>
<svg version="1.1" xmlns:xlink="http://www.w3.org/1999/xlink" width="45px" height="44px" xmlns="http://www.w3.org/2000/svg">
  <g transform="matrix(1 0 0 1 -791 -639 )">
    <path d="M 44.15625 22  C 44.15625 33.9625  34.4625 43.65625  22.5 43.65625  C 10.5375 43.65625  0.84375 33.9625  0.84375 22  C 0.84375 10.0375  10.5375 0.34375  22.5 0.34375  C 34.4625 0.34375  44.15625 10.0375  44.15625 22  Z M 42.09375 22  C 42.09375 11.20625  33.29375 2.40625  22.5 2.40625  C 11.70625 2.40625  2.90625 11.20625  2.90625 22  C 2.90625 32.79375  11.70625 41.59375  22.5 41.59375  C 33.29375 41.59375  42.09375 32.79375  42.09375 22  Z " fill-rule="nonzero" fill="#ffffff" stroke="none" transform="matrix(1 0 0 1 791 639 )" />
  </g>
</svg>