<?xml version="1.0" encoding="utf-8"?>
<svg version="1.1" xmlns:xlink="http://www.w3.org/1999/xlink" width="7px" height="5px" xmlns="http://www.w3.org/2000/svg">
  <defs>
    <mask fill="white" id="clip247">
      <path d="M 6.8701171875 0.164930555555556  C 6.95670572916667 0.274884259259259  7 0.405092592592592  7 0.555555555555556  C 7 0.706018518518519  6.95670572916667 0.836226851851852  6.8701171875 0.946180555555556  L 3.8076171875 4.83506944444444  C 3.72102864583333 4.94502314814815  3.61848958333333 5  3.5 5  C 3.38151041666667 5  3.27897135416667 4.94502314814815  3.1923828125 4.83506944444444  L 0.1298828125 0.946180555555556  C 0.0432942708333333 0.836226851851852  0 0.706018518518519  0 0.555555555555556  C 0 0.405092592592592  0.0432942708333333 0.274884259259259  0.1298828125 0.164930555555556  C 0.216471354166667 0.0549768518518512  0.319010416666667 0  0.4375 0  L 6.5625 0  C 6.68098958333333 0  6.78352864583333 0.0549768518518512  6.8701171875 0.164930555555556  Z " fill-rule="evenodd" />
    </mask>
  </defs>
  <g transform="matrix(1 0 0 1 -190 -13 )">
    <path d="M 6.8701171875 0.164930555555556  C 6.95670572916667 0.274884259259259  7 0.405092592592592  7 0.555555555555556  C 7 0.706018518518519  6.95670572916667 0.836226851851852  6.8701171875 0.946180555555556  L 3.8076171875 4.83506944444444  C 3.72102864583333 4.94502314814815  3.61848958333333 5  3.5 5  C 3.38151041666667 5  3.27897135416667 4.94502314814815  3.1923828125 4.83506944444444  L 0.1298828125 0.946180555555556  C 0.0432942708333333 0.836226851851852  0 0.706018518518519  0 0.555555555555556  C 0 0.405092592592592  0.0432942708333333 0.274884259259259  0.1298828125 0.164930555555556  C 0.216471354166667 0.0549768518518512  0.319010416666667 0  0.4375 0  L 6.5625 0  C 6.68098958333333 0  6.78352864583333 0.0549768518518512  6.8701171875 0.164930555555556  Z " fill-rule="nonzero" fill="#ffffff" stroke="none" transform="matrix(1 0 0 1 190 13 )" />
    <path d="M 6.8701171875 0.164930555555556  C 6.95670572916667 0.274884259259259  7 0.405092592592592  7 0.555555555555556  C 7 0.706018518518519  6.95670572916667 0.836226851851852  6.8701171875 0.946180555555556  L 3.8076171875 4.83506944444444  C 3.72102864583333 4.94502314814815  3.61848958333333 5  3.5 5  C 3.38151041666667 5  3.27897135416667 4.94502314814815  3.1923828125 4.83506944444444  L 0.1298828125 0.946180555555556  C 0.0432942708333333 0.836226851851852  0 0.706018518518519  0 0.555555555555556  C 0 0.405092592592592  0.0432942708333333 0.274884259259259  0.1298828125 0.164930555555556  C 0.216471354166667 0.0549768518518512  0.319010416666667 0  0.4375 0  L 6.5625 0  C 6.68098958333333 0  6.78352864583333 0.0549768518518512  6.8701171875 0.164930555555556  Z " stroke-width="2" stroke="#999999" fill="none" transform="matrix(1 0 0 1 190 13 )" mask="url(#clip247)" />
  </g>
</svg>