<?xml version="1.0" encoding="utf-8"?>
<svg version="1.1" xmlns:xlink="http://www.w3.org/1999/xlink" width="20px" height="20px" xmlns="http://www.w3.org/2000/svg">
  <g transform="matrix(1 0 0 1 -359 -106 )">
    <path d="M 19.0909091145833 19.1969697265625  C 18.6680040797025 19.6276321680057  18.0884194165137 19.8682144801409  17.4848485026042 19.8636363932292  C 16.8812775886946 19.8682144801409  16.3016929255058 19.6276321680057  15.878787890625 19.1969697265625  L 0.727272721354164 4.04545455729166  C 0.265917186753455 3.61555896118142  0.00391432513590454 3.01330443020492  0.00391432513590454 2.3827022157609  C 0.00391432513590454 1.12750959924037  1.0214489872612 0.109974937115069  2.27664160378174 0.109974937115069  C 2.90724381822576 0.109974937115069  3.50949834920225 0.371977798732621  3.9393939453125 0.833333333333332  L 19.0909091145833 15.9848485026042  C 19.520260705514 16.4089907519203  19.761910687441 16.9873865911514  19.761910687441 17.5909091145833  C 19.761910687441 18.1944316380153  19.520260705514 18.7728274772464  19.0909091145833 19.1969697265625  Z " fill-rule="nonzero" fill="#1890ff" stroke="none" transform="matrix(1 0 0 1 359 106 )" />
  </g>
</svg>