<?xml version="1.0" encoding="utf-8"?>
<svg version="1.1" xmlns:xlink="http://www.w3.org/1999/xlink" width="54px" height="50px" xmlns="http://www.w3.org/2000/svg">
  <g transform="matrix(1 0 0 1 -334 -110 )">
    <path d="M 29 33.0927518607475  C 29.3011363696289 34.3649065396534  28.270882524227 35.3961916701858  27 35.3961916701858  C 25.729117475773 35.3961916701858  24.6988636303711 34.3649065396534  25 33.0927518607475  L 25 2.38022111222551  C 24.6988636303711 2.38022111222551  24.6988636303711 2.38022111222551  24.6988636303711 2.38022111222551  C 24.6988636303711 1.10806643331956  25.729117475773 0.0767813027871578  27 0.0767813027871578  C 28.270882524227 0.0767813027871578  29.3011363696289 1.10806643331956  29.3011363696289 2.38022111222551  C 29.3011363696289 2.38022111222551  29.3011363696289 2.38022111222551  29 2.38022111222551  L 29 33.0927518607475  Z M 53.8465908911133 44.4717444837415  C 53.8465908911133 47.4401053768941  51.4426652715172 49.8464373284417  48.4772727392578 49  L 5.52272726074219 49  C 2.55733472848275 49.8464373284417  0.153409108886719 47.4401053768941  0.153409108886719 44.4717444837415  L 0.153409108886719 38.329238347234  C 0.153409108886719 37.057083668328  1.18366295428858 36.0257985377956  2.45454547851562 36.0257985377956  C 3.72542800274267 36.0257985377956  4.75568184814453 37.057083668328  4.75568184814453 38.329238347234  L 4.75568184814453 44.4717444837415  C 4.75568188455002 44.8957960039875  5.09909979201648 45.2395576731231  5.52272726074219 45  L 48.4772727392578 45  C 48.9009002079835 45.2395576731231  49.24431811545 44.8957960039875  49.2443181518555 44.4717444837415  L 49.2443181518555 38.329238347234  C 49.2443181518555 37.057083668328  50.2745719972573 36.0257985377956  51.5454545214844 36.0257985377956  C 52.8163370457114 36.0257985377956  53.8465908911133 37.057083668328  53.8465908911133 38.329238347234  L 53.8465908911133 44.4717444837415  Z " fill-rule="nonzero" fill="#1890ff" stroke="none" transform="matrix(1 0 0 1 334 110 )" />
  </g>
</svg>