<?xml version="1.0" encoding="utf-8"?>
<svg version="1.1" xmlns:xlink="http://www.w3.org/1999/xlink" width="80px" height="26px" xmlns="http://www.w3.org/2000/svg">
  <g transform="matrix(1 0 0 1 -138 -117 )">
    <path d="M 139 119  A 1 1 0 0 1 140 118 L 216 118  A 1 1 0 0 1 217 119 L 217 141  A 1 1 0 0 1 216 142 L 140 142  A 1 1 0 0 1 139 141 L 139 119  Z " fill-rule="nonzero" fill="#ffffff" stroke="none" />
    <path d="M 138.5 119  A 1.5 1.5 0 0 1 140 117.5 L 216 117.5  A 1.5 1.5 0 0 1 217.5 119 L 217.5 141  A 1.5 1.5 0 0 1 216 142.5 L 140 142.5  A 1.5 1.5 0 0 1 138.5 141 L 138.5 119  Z " stroke-width="1" stroke="#797979" fill="none" stroke-opacity="0.501960784313725" />
  </g>
</svg>