<?xml version="1.0" encoding="utf-8"?>
<svg version="1.1" xmlns:xlink="http://www.w3.org/1999/xlink" width="174px" height="229px" xmlns="http://www.w3.org/2000/svg">
  <g transform="matrix(1 0 0 1 -415 -113 )">
    <path d="M 415 113  L 589 113  L 589 342  L 415 342  L 415 113  " fill-rule="nonzero" fill="#cccccc" stroke="none" />
    <path d="M 427 125  L 577 125  L 577 330  L 427 330  L 427 125  " fill-rule="nonzero" fill="#ffffff" stroke="none" />
    <path d="M 518.53 173.45  C 511.222 173.45  505.48 167.708  505.48 160.4  C 505.48 153.092  511.222 147.35  518.53 147.35  C 525.838 147.35  531.58 153.092  531.58 160.4  C 531.58 167.708  525.838 173.45  518.53 173.45  " fill-rule="nonzero" fill="#cccccc" stroke="none" />
    <path d="M 432 326  L 432 218.2  L 467.25 169.2  L 516.6 208.4  L 544.8 198.6  L 573 208.4  L 573 326  L 432 326  " fill-rule="nonzero" fill="#169bd5" stroke="none" />
  </g>
</svg>