<?xml version="1.0" encoding="utf-8"?>
<svg version="1.1" xmlns:xlink="http://www.w3.org/1999/xlink" width="414px" height="231px" xmlns="http://www.w3.org/2000/svg">
  <g transform="matrix(1 0 0 1 -346 -149 )">
    <path d="M 347 155  A 5 5 0 0 1 352 150 L 754 150  A 5 5 0 0 1 759 155 L 759 374  A 5 5 0 0 1 754 379 L 352 379  A 5 5 0 0 1 347 374 L 347 155  Z " fill-rule="nonzero" fill="#ffffff" stroke="none" />
    <path d="M 346.5 155  A 5.5 5.5 0 0 1 352 149.5 L 754 149.5  A 5.5 5.5 0 0 1 759.5 155 L 759.5 374  A 5.5 5.5 0 0 1 754 379.5 L 352 379.5  A 5.5 5.5 0 0 1 346.5 374 L 346.5 155  Z " stroke-width="1" stroke="#797979" fill="none" stroke-opacity="0.392156862745098" />
  </g>
</svg>