<?xml version="1.0" encoding="utf-8"?>
<svg version="1.1" xmlns:xlink="http://www.w3.org/1999/xlink" width="12px" height="12px" xmlns="http://www.w3.org/2000/svg">
  <g transform="matrix(1 0 0 1 -20 -2 )">
    <path d="M 26 2  C 29.36 2  32 4.64  32 8  C 32 11.36  29.36 14  26 14  C 22.64 14  20 11.36  20 8  C 20 4.64  22.64 2  26 2  Z " fill-rule="nonzero" fill="#ffffff" stroke="none" />
    <path d="M 26 2.5  C 29.08 2.5  31.5 4.92  31.5 8  C 31.5 11.08  29.08 13.5  26 13.5  C 22.92 13.5  20.5 11.08  20.5 8  C 20.5 4.92  22.92 2.5  26 2.5  Z " stroke-width="1" stroke="#ffffff" fill="none" />
  </g>
</svg>