<?xml version="1.0" encoding="utf-8"?>
<svg version="1.1" xmlns:xlink="http://www.w3.org/1999/xlink" width="11px" height="11px" xmlns="http://www.w3.org/2000/svg">
  <g transform="matrix(1 0 0 1 -2 -2 )">
    <path d="M 7.5 2  C 10.58 2  13 4.42  13 7.5  C 13 10.58  10.58 13  7.5 13  C 4.42 13  2 10.58  2 7.5  C 2 4.42  4.42 2  7.5 2  Z " fill-rule="nonzero" fill="#ffffff" stroke="none" />
    <path d="M 7.5 2.5  C 10.3 2.5  12.5 4.7  12.5 7.5  C 12.5 10.3  10.3 12.5  7.5 12.5  C 4.7 12.5  2.5 10.3  2.5 7.5  C 2.5 4.7  4.7 2.5  7.5 2.5  Z " stroke-width="1" stroke="#ffffff" fill="none" />
  </g>
</svg>