<?xml version="1.0" encoding="utf-8"?>
<svg version="1.1" xmlns:xlink="http://www.w3.org/1999/xlink" width="24px" height="24px" xmlns="http://www.w3.org/2000/svg">
  <g transform="matrix(1 0 0 1 -250 -69 )">
    <path d="M 23.9560439474588 20.4835164921017  C 23.9560439474588 22.4615384701236  22.4175824175824 24  20.4395604395604 24  L 3.51648350789835 24  C 1.53846152987637 24  0 22.4615384701236  0 20.4835164921017  L 0 3.56043956043956  C 0 1.58241758241758  1.53846152987637 0.0439560525412092  3.51648350789835 0.0439560525412092  L 10.0000000085852 0.0439560525412092  C 10.6593406679258 0.0439560525412092  11.0989011160714 0.483516500686813  11.0989010903159 1.14285713427198  C 11.0989010645604 1.80219776785714  10.6593406421703 2.24175824175824  10.0000000085852 2.24175824175824  L 3.51648350789835 2.24175824175824  C 2.74725273008242 2.24175824175824  2.19780218921703 2.79120878262363  2.19780218921703 3.56043956043956  L 2.19780218921703 20.4835164921017  C 2.19780218921703 21.2527472699176  2.74725273008242 21.802197810783  3.51648350789835 21.802197810783  L 20.4395604395604 21.802197810783  C 21.2087912173764 21.802197810783  21.7582417582418 21.2527472699176  21.7582417582418 20.4835164921017  L 21.7582417582418 13.9999999914148  C 21.7582417582418 13.3406593320742  22.1978022063874 12.9010988839286  22.857142865728 12.9010989096841  C 23.5164835250687 12.9010989354396  23.9560439732143 13.3406593578297  23.9560439474588 13.9999999914148  L 23.9560439474588 20.4835164921017  Z " fill-rule="nonzero" fill="#ffffff" stroke="none" transform="matrix(1 0 0 1 250 69 )" />
  </g>
</svg>