<?xml version="1.0" encoding="utf-8"?>
<svg version="1.1" xmlns:xlink="http://www.w3.org/1999/xlink" width="11px" height="11px" xmlns="http://www.w3.org/2000/svg">
  <g transform="matrix(1 0 0 1 -51 -81 )">
    <path d="M 8.44535520299693 3.02049180327869  C 8.44535520299693 4.67349725601947  7.09289618660348 5.95081967213115  5.51502733414447 5.95081967213115  C 3.86202188140369 5.95081967213115  2.584699465292 4.67349725601947  2.584699465292 3.02049180327869  C 2.584699465292 1.36748635053791  3.86202188140368 0.0901639344262244  5.51502733414447 0.0901639344262244  C 7.16803278688525 0.0901639344262244  8.44535520299693 1.36748635053791  8.44535520299693 3.02049180327869  Z M 6.94262295081967 3.02049180327869  C 6.94262295081967 2.26912569480021  6.26639344262295 1.59289618660348  5.51502733414447 1.59289618660348  C 4.76366122566598 1.59289618660348  4.08743171746926 2.26912569480021  4.08743168224898 3.02049180327869  C 4.08743164702869 3.77185791175717  4.7636611904457 4.44808741995389  5.51502733414447 4.44808741995389  C 6.26639347784323 4.44808741995389  6.94262295081967 3.77185791175717  6.94262295081967 3.02049180327869  Z M 10.9248633997182 9.85792348552766  C 10.9248633997182 10.4590163934426  10.3989071273053 10.9849726658555  9.72267758388832 10.9849726658555  L 1.23224044889856 10.9849726658555  C 0.631147540983604 10.9849726658555  0.105191268570695 10.4590163934426  0.105191268570695 9.85792348552766  L 0.105191268570695 9.10655737704918  C 0.105191268570695 8.05464479700307  1.00683061283299 7.15300545274078  2.05874315765881 7.15300545274078  L 8.97131147540984 7.15300545274078  C 10.0232240554559 7.15300545274078  10.9248633997182 8.05464479700307  10.9248633997182 9.10655737704918  L 10.9248633997182 9.85792348552766  Z M 1.60792348552767 9.10655737704918  L 1.60792348552767 9.48224044889857  L 9.42213114754098 9.48224044889857  L 9.42213114754098 9.10655737704918  C 9.42213114754098 8.88114754098361  9.19672131147541 8.65573770491803  8.97131147540984 8.65573770491803  L 2.05874315765882 8.65573770491803  C 1.83333332159324 8.65573770491803  1.60792348552767 8.88114754098361  1.60792348552767 9.10655737704918  Z " fill-rule="nonzero" fill="#ffffff" stroke="none" transform="matrix(1 0 0 1 51 81 )" />
  </g>
</svg>