<?xml version="1.0" encoding="utf-8"?>
<svg version="1.1" xmlns:xlink="http://www.w3.org/1999/xlink" width="25px" height="27px" xmlns="http://www.w3.org/2000/svg">
  <g transform="matrix(1 0 0 1 -36 -66 )">
    <path d="M 18.4821428571429 24.6636986180972  L 17.1318922183388 23.8823630016588  L 19.4736842105263 19.9633561643836  L 20.8239348493304 20.7439212449165  L 18.4821428571429 24.6636986180972  Z M 23.490758157601 24.6444349315068  L 21.1481829696311 20.7254280942316  L 22.4984335717223 19.9448630136986  L 24.8402255639098 23.8630993150685  L 23.490758157601 24.6444349315068  Z M 18.8596491350446 6.16438357368365  C 18.8596491350446 9.55479454462757  16.0401002628642 12.3287671473673  12.593984962406 12.3287671112479  C 9.14786966194784 12.3287671112479  6.32832078976739 9.55479450850813  6.32832078976739 6.16438357368365  C 6.32832078976739 2.77397263885916  9.14786966194784 0  12.593984962406 0  C 16.0401002628642 0  18.8596491350446 2.77397260273973  18.8596491350446 6.16438357368365  Z M 17.2932330827068 6.16438357368365  C 17.2932330827068 3.62157535450557  15.1785714285714 1.54109590245077  12.593984962406 1.54109590245077  C 10.0093984962406 1.54109590245077  7.89473684210526 3.62157535450556  7.89473684210526 6.16438357368365  C 7.89473684210526 8.70719179286173  10.0093984962406 10.7876712449165  12.593984962406 10.7876712449165  C 15.1785714285714 10.7876712449165  17.2932330827068 8.70719179286173  17.2932330827068 6.16438357368365  Z M 1.62907266946663 26.1986301249465  C 1.62907266946663 26.6609588920698  1.31578947368421 26.9691780581122  0.845864661654135 26.9691780942316  C 0.37593984962406 26.9691780942316  0.0626566538416346 26.6609589281892  0.0626566538416346 26.1986301249465  C 0.0626566538416346 19.4178082191781  5.70175439820254 13.8698630136986  12.593984962406 13.8698630136986  C 14.3170425942787 13.8698630136986  16.0401002628642 14.178082179741  17.6065162784892 14.8715753304259  C 17.9981203007519 15.0256849315068  18.1547618802867 15.4880136986301  17.9981203007519 15.8732876832727  C 17.8414786845042 16.2585616679152  17.3715538724742 16.4126712328767  16.9799498869243 16.2585616317958  C 15.5701754508341 15.7191780821918  14.0820802249765 15.41095888003  12.593984962406 15.4109589161494  C 6.56328319578242 15.4109589161494  1.62907266946663 20.2654109709439  1.62907266946663 26.1986301249465  Z " fill-rule="nonzero" fill="#ffffff" stroke="none" transform="matrix(1 0 0 1 36 66 )" />
  </g>
</svg>