<?xml version="1.0" encoding="utf-8"?>
<svg version="1.1" xmlns:xlink="http://www.w3.org/1999/xlink" width="14px" height="18px" xmlns="http://www.w3.org/2000/svg">
  <g transform="matrix(1 0 0 1 -46 -72 )">
    <path d="M 13.783984375 14.8263950892857  C 13.77783203125 12.8737165178571  13.0826171875 11.0385602678571  11.8275390625 9.65541294642857  C 11.19384765625 8.95931919642857  10.45556640625 8.41916852678571  9.65166015625 8.05530133928571  C 10.478125 7.27106584821429  11.00107421875 6.11166294642857  11.00107421875 4.81891741071429  C 11.00107421875 2.46395089285714  9.26201171875 0.549693080357142  7.1271484375 0.549693080357142  C 4.990234375 0.549693080357142  3.25322265625 2.4662109375  3.25322265625 4.81891741071429  C 3.25322265625 6.10714285714286  3.77412109375 7.26428571428571  4.59443359375 8.04852120535714  C 3.784375 8.41238839285714  3.03994140625 8.95479910714286  2.4021484375 9.65541294642857  C 1.1470703125 11.0363002232143  0.45185546875 12.8737165178571  0.44365234375 14.8286551339286  L 0.44365234375 16.65703125  C 0.44365234375 17.0932198660714  0.765625 17.448046875  1.16142578125 17.448046875  L 13.0662109375 17.448046875  C 13.46201171875 17.448046875  13.783984375 17.0932198660714  13.783984375 16.65703125  L 13.783984375 14.8444754464286  L 13.783984375 14.8263950892857  Z M 4.68876953125 4.81891741071429  C 4.68876953125 3.336328125  5.78388671875 2.13172433035714  7.1271484375 2.13172433035714  C 8.4724609375 2.13172433035714  9.56552734375 3.33858816964286  9.56552734375 4.81891741071429  C 9.56552734375 6.29924665178571  8.47041015625 7.50611049107143  7.1271484375 7.50611049107143  C 5.78388671875 7.50611049107143  4.68876953125 6.30150669642857  4.68876953125 4.81891741071429  Z M 12.35048828125 14.8467354910714  L 12.35048828125 15.8682756696429  L 1.87919921875 15.8682756696429  L 1.87919921875 14.8602957589286  L 1.87919921875 14.8467354910714  C 1.88330078125 11.6713727678571  4.23349609375 9.08814174107142  7.11484375 9.08814174107142  C 9.99619140625 9.08814174107142  12.3443359375 11.6713727678571  12.35048828125 14.8467354910714  Z " fill-rule="nonzero" fill="#ffffff" stroke="none" transform="matrix(1 0 0 1 46 72 )" />
  </g>
</svg>