<?xml version="1.0" encoding="utf-8"?>
<svg version="1.1" xmlns:xlink="http://www.w3.org/1999/xlink" width="18px" height="22px" xmlns="http://www.w3.org/2000/svg">
  <g transform="matrix(1 0 0 1 -958 -70 )">
    <path d="M 17.7272727272727 21.45  C 17.5909090909091 21.8625  17.3181818181818 21.8625  17.1818181818182 21.8625  C 17.0454545454545 21.8625  16.7727272727273 21.725  16.6363636363636 21.725  L 13.2272727272727 18.2875  L 9.95454545454545 21.725  C 9.81818181818182 21.8625  9.68181818181818 22  9.40909090909091 22  C 9.27272727272727 22  9 21.8625  8.86363636363636 21.725  C 8.59090909090909 21.45  8.59090909090909 21.0375  8.86363636363636 20.7625  L 12.2727272727273 17.325  L 8.86363636363637 13.75  C 8.72727272727273 13.475  8.72727272727273 13.0625  8.86363636363637 12.7875  C 9 12.65  9.13636363636364 12.5125  9.40909090909091 12.5125  C 9.68181818181819 12.5125  9.68181818181818 12.65  9.81818181818182 12.7875  L 13.3636363636364 16.3625  L 16.7727272727273 12.7875  C 16.9090909090909 12.65  17.0454545454545 12.5125  17.3181818181818 12.5125  C 17.4545454545455 12.5125  17.7272727272727 12.65  17.8636363636364 12.65  C 18 12.925  18 13.3375  17.8636363636364 13.6125  L 14.3181818181818 17.1875  L 17.7272727272727 20.4875  C 18 20.7625  18 21.175  17.7272727272727 21.45  Z M 5.45454545454545 12.5125  C 5.59090909090909 12.925  5.18181818181818 13.3375  4.77272727272727 13.3375  L 0.818181818181818 13.3375  C 0.409090909090909 13.3375  0 12.925  0 12.5125  C 0 12.1  0.409090909090908 11.6875  0.818181818181818 11.6875  L 4.63636363636363 11.6875  C 5.04545454545454 11.6875  5.45454545454545 12.1  5.45454545454545 12.5125  Z M 2.86363636363637 0  C 3.27272727272727 0  3.54545454545455 0.4125  3.54545454545455 0.825  L 3.54545454545455 3.9875  C 3.54545454545455 4.4  3.13636363636364 4.8125  2.72727272727273 4.8125  C 2.31818181818182 4.8125  1.90909090909091 4.4  1.90909090909091 3.9875  L 1.90909090909091 0.825  C 2.04545454545455 0.4125  2.31818181818182 0  2.86363636363637 0  Z M 11.1818181818182 0  C 11.5909090909091 0  12 0.4125  12 0.825  L 12 3.9875  C 12 4.4  11.5909090909091 4.8125  11.1818181818182 4.8125  C 10.7727272727273 4.8125  10.3636363636364 4.4  10.3636363636364 3.9875  L 10.3636363636364 0.825  C 10.3636363636364 0.4125  10.6363636363636 0  11.1818181818182 0  Z " fill-rule="nonzero" fill="#ffffff" stroke="none" transform="matrix(1 0 0 1 958 70 )" />
  </g>
</svg>