<?xml version="1.0" encoding="utf-8"?>
<svg version="1.1" xmlns:xlink="http://www.w3.org/1999/xlink" width="5px" height="5px" xmlns="http://www.w3.org/2000/svg">
  <g transform="matrix(1 0 0 1 -225 -87 )">
    <path d="M 2.68606085526316 1.46381578947368  C 2.578125 1.57432154605263  2.40337171052632 1.57432154605263  2.29286595394737 1.46895559210526  L 1.15696957236842 0.358758223684211  C 0.876850328947368 0.083778782894735  0.450246710526316 0.0606496710526316  0.206106085526316 0.309930098684211  C 0.098170230263156 0.420435855263158  0.0390625 0.569490131578949  0.0416324013157895 0.731393914473684  C 0.0442023026315789 0.924136513157895  0.129009046052632 1.11430921052632  0.278063322368423 1.26079358552632  L 1.41395970394737 2.37099095394737  C 1.52446546052632 2.47892680921053  1.52446546052632 2.65368009868421  1.41909950657895 2.76161595394737  L 0.357730263157898 3.84868421052632  C 0.0827508223684248 4.13137335526316  0.062191611842109 4.55797697368421  0.3089021381579 4.79954769736842  C 0.555612664473692 5.04111842105263  0.982216282894744 5.01027960526316  1.259765625 4.72759046052632  L 2.32113486842106 3.64052220394737  C 2.42907072368421 3.53001644736842  2.6038240131579 3.53001644736842  2.71175986842106 3.63538240131579  L 3.85022615131579 4.74557976973685  C 4.00185032894737 4.89206414473685  4.19202302631579 4.96659128289474  4.37705592105264 4.96659128289474  C 4.53638980263158 4.96659128289474  4.69058388157895 4.91005345394737  4.80365953947369 4.79440789473685  C 4.91159539473685 4.6839021381579  4.970703125 4.53484786184211  4.96813322368421 4.37294407894737  C 4.96556332236842 4.18277138157895  4.88075657894737 3.99002878289474  4.73170230263158 3.84611430921053  L 3.59323601973685 2.73334703947369  C 3.4827302631579 2.62541118421053  3.4827302631579 2.45065789473685  3.58809621710527 2.34272203947369  L 4.74712171052632 1.15542763157895  C 4.89103618421053 1.00894325657895  4.97327302631579 0.813630756578951  4.970703125 0.623458059210528  C 4.96813322368421 0.461554276315793  4.90645559210527 0.312500000000002  4.79594983552632 0.204564144736846  C 4.54923930921053 -0.0370065789473647  4.12263569078948 -0.00616776315789287  3.84765625000001 0.276521381578949  L 2.68606085526316 1.46381578947368  Z " fill-rule="nonzero" fill="#ffffff" stroke="none" transform="matrix(1 0 0 1 225 87 )" />
  </g>
</svg>