<?xml version="1.0" encoding="utf-8"?>
<svg version="1.1" xmlns:xlink="http://www.w3.org/1999/xlink" width="9px" height="9px" xmlns="http://www.w3.org/2000/svg">
  <g transform="matrix(1 0 0 1 -223 -85 )">
    <path d="M 4.48465008802817 0.105963908450701  C 2.0509463028169 0.105963908450701  0.0727882922535175 2.08412191901408  0.0727882922535211 4.51782570422535  C 0.0727882922535211 6.95152948943662  2.0509463028169 8.9296875  4.48465008802817 8.9296875  C 6.91835387323943 8.9296875  8.89651188380282 6.95152948943662  8.89651188380282 4.51782570422535  C 8.89651188380282 2.08412191901408  6.91835387323944 0.105963908450701  4.48465008802817 0.105963908450701  Z M 4.48712588028169 1.03686179577465  C 6.40586487676056 1.03438600352113  7.96808978873239 2.59661091549296  7.96808978873239 4.51782570422535  C 7.96808978873239 6.43656470070423  6.40586487676056 7.99878961267606  4.48712588028169 7.99878961267606  C 2.56838688380282 7.99878961267606  1.00616197183098 6.43656470070423  1.00616197183098 4.51782570422535  C 1.00616197183098 2.59908670774648  2.56838688380282 1.03686179577465  4.48712588028169 1.03686179577465  Z " fill-rule="nonzero" fill="#ffffff" stroke="none" transform="matrix(1 0 0 1 223 85 )" />
  </g>
</svg>