<?xml version="1.0" encoding="utf-8"?>
<svg version="1.1" xmlns:xlink="http://www.w3.org/1999/xlink" width="132px" height="26px" xmlns="http://www.w3.org/2000/svg">
  <g transform="matrix(1 0 0 1 -60 -1 )">
    <path d="M 61 3  A 1 1 0 0 1 62 2 L 190 2  A 1 1 0 0 1 191 3 L 191 25  A 1 1 0 0 1 190 26 L 62 26  A 1 1 0 0 1 61 25 L 61 3  Z " fill-rule="nonzero" fill="#ffffff" stroke="none" />
    <path d="M 60.5 3  A 1.5 1.5 0 0 1 62 1.5 L 190 1.5  A 1.5 1.5 0 0 1 191.5 3 L 191.5 25  A 1.5 1.5 0 0 1 190 26.5 L 62 26.5  A 1.5 1.5 0 0 1 60.5 25 L 60.5 3  Z " stroke-width="1" stroke="#000000" fill="none" stroke-opacity="0.298039215686275" />
  </g>
</svg>