<?xml version="1.0" encoding="utf-8"?>
<svg version="1.1" xmlns:xlink="http://www.w3.org/1999/xlink" width="546px" height="307px" xmlns="http://www.w3.org/2000/svg">
  <g>
    <path d="M 1 6  A 5 5 0 0 1 6 1 L 540 1  A 5 5 0 0 1 545 6 L 545 301  A 5 5 0 0 1 540 306 L 6 306  A 5 5 0 0 1 1 301 L 1 6  Z " fill-rule="nonzero" fill="#ffffff" stroke="none" />
    <path d="M 0.5 6  A 5.5 5.5 0 0 1 6 0.5 L 540 0.5  A 5.5 5.5 0 0 1 545.5 6 L 545.5 301  A 5.5 5.5 0 0 1 540 306.5 L 6 306.5  A 5.5 5.5 0 0 1 0.5 301 L 0.5 6  Z " stroke-width="1" stroke="#797979" fill="none" stroke-opacity="0.392156862745098" />
  </g>
</svg>