<?xml version="1.0" encoding="utf-8"?>
<svg version="1.1" xmlns:xlink="http://www.w3.org/1999/xlink" width="12px" height="12px" viewBox="695 260.5  12 12" xmlns="http://www.w3.org/2000/svg">
  <path d="M 701 260.5  C 704.36 260.5  707 263.14  707 266.5  C 707 269.86  704.36 272.5  701 272.5  C 697.64 272.5  695 269.86  695 266.5  C 695 263.14  697.64 260.5  701 260.5  Z " fill-rule="nonzero" fill="#ffffff" stroke="none" />
  <path d="M 701 261  C 704.08 261  706.5 263.42  706.5 266.5  C 706.5 269.58  704.08 272  701 272  C 697.92 272  695.5 269.58  695.5 266.5  C 695.5 263.42  697.92 261  701 261  Z " stroke-width="1" stroke="#797979" fill="none" />
  <path d="M 701 269.5  C 699.32 269.5  698 268.18  698 266.5  C 698 264.82  699.32 263.5  701 263.5  C 702.68 263.5  704 264.82  704 266.5  C 704 268.18  702.68 269.5  701 269.5  " fill-rule="nonzero" fill="#797979" stroke="none" />
</svg>