<?xml version="1.0" encoding="utf-8"?>
<svg version="1.1" xmlns:xlink="http://www.w3.org/1999/xlink" width="12px" height="12px" viewBox="219 325.5  12 12" xmlns="http://www.w3.org/2000/svg">
  <path d="M 225 325.5  C 228.36 325.5  231 328.14  231 331.5  C 231 334.86  228.36 337.5  225 337.5  C 221.64 337.5  219 334.86  219 331.5  C 219 328.14  221.64 325.5  225 325.5  Z " fill-rule="nonzero" fill="#f0f0f0" stroke="none" />
  <path d="M 225 326  C 228.08 326  230.5 328.42  230.5 331.5  C 230.5 334.58  228.08 337  225 337  C 221.92 337  219.5 334.58  219.5 331.5  C 219.5 328.42  221.92 326  225 326  Z " stroke-width="1" stroke="#797979" fill="none" />
  <path d="M 225 334.5  C 223.32 334.5  222 333.18  222 331.5  C 222 329.82  223.32 328.5  225 328.5  C 226.68 328.5  228 329.82  228 331.5  C 228 333.18  226.68 334.5  225 334.5  " fill-rule="nonzero" fill="#797979" stroke="none" />
</svg>