<?xml version="1.0" encoding="utf-8"?>
<svg version="1.1" xmlns:xlink="http://www.w3.org/1999/xlink" width="12px" height="12px" viewBox="716 70.5  12 12" xmlns="http://www.w3.org/2000/svg">
  <path d="M 722 70.5  C 725.36 70.5  728 73.14  728 76.5  C 728 79.86  725.36 82.5  722 82.5  C 718.64 82.5  716 79.86  716 76.5  C 716 73.14  718.64 70.5  722 70.5  Z " fill-rule="nonzero" fill="#f0f0f0" stroke="none" />
  <path d="M 722 71  C 725.08 71  727.5 73.42  727.5 76.5  C 727.5 79.58  725.08 82  722 82  C 718.92 82  716.5 79.58  716.5 76.5  C 716.5 73.42  718.92 71  722 71  Z " stroke-width="1" stroke="#797979" fill="none" />
  <path d="M 722 79.5  C 720.32 79.5  719 78.18  719 76.5  C 719 74.82  720.32 73.5  722 73.5  C 723.68 73.5  725 74.82  725 76.5  C 725 78.18  723.68 79.5  722 79.5  " fill-rule="nonzero" fill="#797979" stroke="none" />
</svg>