<?xml version="1.0" encoding="utf-8"?>
<svg version="1.1" xmlns:xlink="http://www.w3.org/1999/xlink" width="12px" height="12px" viewBox="219 435.5  12 12" xmlns="http://www.w3.org/2000/svg">
  <path d="M 225 435.5  C 228.36 435.5  231 438.14  231 441.5  C 231 444.86  228.36 447.5  225 447.5  C 221.64 447.5  219 444.86  219 441.5  C 219 438.14  221.64 435.5  225 435.5  Z " fill-rule="nonzero" fill="#f0f0f0" stroke="none" />
  <path d="M 225 436  C 228.08 436  230.5 438.42  230.5 441.5  C 230.5 444.58  228.08 447  225 447  C 221.92 447  219.5 444.58  219.5 441.5  C 219.5 438.42  221.92 436  225 436  Z " stroke-width="1" stroke="#797979" fill="none" />
  <path d="M 225 444.5  C 223.32 444.5  222 443.18  222 441.5  C 222 439.82  223.32 438.5  225 438.5  C 226.68 438.5  228 439.82  228 441.5  C 228 443.18  226.68 444.5  225 444.5  " fill-rule="nonzero" fill="#797979" stroke="none" />
</svg>