<?xml version="1.0" encoding="utf-8"?>
<svg version="1.1" xmlns:xlink="http://www.w3.org/1999/xlink" width="12px" height="12px" viewBox="822 70.5  12 12" xmlns="http://www.w3.org/2000/svg">
  <path d="M 828 70.5  C 831.36 70.5  834 73.14  834 76.5  C 834 79.86  831.36 82.5  828 82.5  C 824.64 82.5  822 79.86  822 76.5  C 822 73.14  824.64 70.5  828 70.5  Z " fill-rule="nonzero" fill="#f0f0f0" stroke="none" />
  <path d="M 828 71  C 831.08 71  833.5 73.42  833.5 76.5  C 833.5 79.58  831.08 82  828 82  C 824.92 82  822.5 79.58  822.5 76.5  C 822.5 73.42  824.92 71  828 71  Z " stroke-width="1" stroke="#797979" fill="none" />
  <path d="M 828 79.5  C 826.32 79.5  825 78.18  825 76.5  C 825 74.82  826.32 73.5  828 73.5  C 829.68 73.5  831 74.82  831 76.5  C 831 78.18  829.68 79.5  828 79.5  " fill-rule="nonzero" fill="#797979" stroke="none" />
</svg>