<?xml version="1.0" encoding="utf-8"?>
<svg version="1.1" xmlns:xlink="http://www.w3.org/1999/xlink" width="12px" height="12px" viewBox="219 393.5  12 12" xmlns="http://www.w3.org/2000/svg">
  <path d="M 225 393.5  C 228.36 393.5  231 396.14  231 399.5  C 231 402.86  228.36 405.5  225 405.5  C 221.64 405.5  219 402.86  219 399.5  C 219 396.14  221.64 393.5  225 393.5  Z " fill-rule="nonzero" fill="#ffffff" stroke="none" />
  <path d="M 225 394  C 228.08 394  230.5 396.42  230.5 399.5  C 230.5 402.58  228.08 405  225 405  C 221.92 405  219.5 402.58  219.5 399.5  C 219.5 396.42  221.92 394  225 394  Z " stroke-width="1" stroke="#797979" fill="none" />
  <path d="M 225 402.5  C 223.32 402.5  222 401.18  222 399.5  C 222 397.82  223.32 396.5  225 396.5  C 226.68 396.5  228 397.82  228 399.5  C 228 401.18  226.68 402.5  225 402.5  " fill-rule="nonzero" fill="#797979" stroke="none" />
</svg>