<?xml version="1.0" encoding="utf-8"?>
<svg version="1.1" xmlns:xlink="http://www.w3.org/1999/xlink" width="12px" height="12px" viewBox="404 392.5  12 12" xmlns="http://www.w3.org/2000/svg">
  <path d="M 410 392.5  C 413.36 392.5  416 395.14  416 398.5  C 416 401.86  413.36 404.5  410 404.5  C 406.64 404.5  404 401.86  404 398.5  C 404 395.14  406.64 392.5  410 392.5  Z " fill-rule="nonzero" fill="#ffffff" stroke="none" />
  <path d="M 410 393  C 413.08 393  415.5 395.42  415.5 398.5  C 415.5 401.58  413.08 404  410 404  C 406.92 404  404.5 401.58  404.5 398.5  C 404.5 395.42  406.92 393  410 393  Z " stroke-width="1" stroke="#797979" fill="none" />
  <path d="M 410 401.5  C 408.32 401.5  407 400.18  407 398.5  C 407 396.82  408.32 395.5  410 395.5  C 411.68 395.5  413 396.82  413 398.5  C 413 400.18  411.68 401.5  410 401.5  " fill-rule="nonzero" fill="#797979" stroke="none" />
</svg>