<?xml version="1.0" encoding="utf-8"?>
<svg version="1.1" xmlns:xlink="http://www.w3.org/1999/xlink" width="12px" height="12px" viewBox="716 104.5  12 12" xmlns="http://www.w3.org/2000/svg">
  <path d="M 722 104.5  C 725.36 104.5  728 107.14  728 110.5  C 728 113.86  725.36 116.5  722 116.5  C 718.64 116.5  716 113.86  716 110.5  C 716 107.14  718.64 104.5  722 104.5  Z " fill-rule="nonzero" fill="#ffffff" stroke="none" />
  <path d="M 722 105  C 725.08 105  727.5 107.42  727.5 110.5  C 727.5 113.58  725.08 116  722 116  C 718.92 116  716.5 113.58  716.5 110.5  C 716.5 107.42  718.92 105  722 105  Z " stroke-width="1" stroke="#797979" fill="none" />
  <path d="M 722 113.5  C 720.32 113.5  719 112.18  719 110.5  C 719 108.82  720.32 107.5  722 107.5  C 723.68 107.5  725 108.82  725 110.5  C 725 112.18  723.68 113.5  722 113.5  " fill-rule="nonzero" fill="#797979" stroke="none" />
</svg>