<?xml version="1.0" encoding="utf-8"?>
<svg version="1.1" xmlns:xlink="http://www.w3.org/1999/xlink" width="618px" height="375px" xmlns="http://www.w3.org/2000/svg">
  <g transform="matrix(1 0 0 1 -1476 -414 )">
    <path d="M 1477 420  A 5 5 0 0 1 1482 415 L 2088 415  A 5 5 0 0 1 2093 420 L 2093 783  A 5 5 0 0 1 2088 788 L 1482 788  A 5 5 0 0 1 1477 783 L 1477 420  Z " fill-rule="nonzero" fill="#ffffff" stroke="none" />
    <path d="M 1476.5 420  A 5.5 5.5 0 0 1 1482 414.5 L 2088 414.5  A 5.5 5.5 0 0 1 2093.5 420 L 2093.5 783  A 5.5 5.5 0 0 1 2088 788.5 L 1482 788.5  A 5.5 5.5 0 0 1 1476.5 783 L 1476.5 420  Z " stroke-width="1" stroke="#797979" fill="none" stroke-opacity="0.392156862745098" />
  </g>
</svg>