<?xml version="1.0" encoding="utf-8"?>
<svg version="1.1" xmlns:xlink="http://www.w3.org/1999/xlink" width="301px" height="187px" xmlns="http://www.w3.org/2000/svg">
  <g transform="matrix(1 0 0 1 -812 -225 )">
    <path d="M 813 231  A 5 5 0 0 1 818 226 L 1107 226  A 5 5 0 0 1 1112 231 L 1112 406  A 5 5 0 0 1 1107 411 L 818 411  A 5 5 0 0 1 813 406 L 813 231  Z " fill-rule="nonzero" fill="#ffffff" stroke="none" />
    <path d="M 812.5 231  A 5.5 5.5 0 0 1 818 225.5 L 1107 225.5  A 5.5 5.5 0 0 1 1112.5 231 L 1112.5 406  A 5.5 5.5 0 0 1 1107 411.5 L 818 411.5  A 5.5 5.5 0 0 1 812.5 406 L 812.5 231  Z " stroke-width="1" stroke="#797979" fill="none" stroke-opacity="0.392156862745098" />
  </g>
</svg>