<?xml version="1.0" encoding="utf-8"?>
<svg version="1.1" xmlns:xlink="http://www.w3.org/1999/xlink" width="295px" height="133px" xmlns="http://www.w3.org/2000/svg">
  <g transform="matrix(1 0 0 1 -382 -351 )">
    <path d="M 383 357  A 5 5 0 0 1 388 352 L 671 352  A 5 5 0 0 1 676 357 L 676 478  A 5 5 0 0 1 671 483 L 388 483  A 5 5 0 0 1 383 478 L 383 357  Z " fill-rule="nonzero" fill="#ffffff" stroke="none" />
    <path d="M 382.5 357  A 5.5 5.5 0 0 1 388 351.5 L 671 351.5  A 5.5 5.5 0 0 1 676.5 357 L 676.5 478  A 5.5 5.5 0 0 1 671 483.5 L 388 483.5  A 5.5 5.5 0 0 1 382.5 478 L 382.5 357  Z " stroke-width="1" stroke="#797979" fill="none" stroke-opacity="0.392156862745098" />
  </g>
</svg>