<?xml version="1.0" encoding="utf-8"?>
<svg version="1.1" xmlns:xlink="http://www.w3.org/1999/xlink" width="511px" height="90px" xmlns="http://www.w3.org/2000/svg">
  <defs>
    <filter x="117px" y="-3px" width="511px" height="90px" filterUnits="userSpaceOnUse" id="filter263">
      <feOffset dx="0" dy="0" in="SourceAlpha" result="shadowOffsetInner" />
      <feGaussianBlur stdDeviation="1.5" in="shadowOffsetInner" result="shadowGaussian" />
      <feComposite in2="shadowGaussian" operator="atop" in="SourceAlpha" result="shadowComposite" />
      <feColorMatrix type="matrix" values="0 0 0 0 0  0 0 0 0 0.474509803921569  0 0 0 0 0.996078431372549  0 0 0 0.8 0  " in="shadowComposite" />
    </filter>
    <g id="widget264">
      <path d="M 120.5 3  A 2.5 2.5 0 0 1 123 0.5 L 622 0.5  A 2.5 2.5 0 0 1 624.5 3 L 624.5 81  A 2.5 2.5 0 0 1 622 83.5 L 123 83.5  A 2.5 2.5 0 0 1 120.5 81 L 120.5 3  Z " fill-rule="nonzero" fill="#ffffff" stroke="none" />
      <path d="M 120.5 3  A 2.5 2.5 0 0 1 123 0.5 L 622 0.5  A 2.5 2.5 0 0 1 624.5 3 L 624.5 81  A 2.5 2.5 0 0 1 622 83.5 L 123 83.5  A 2.5 2.5 0 0 1 120.5 81 L 120.5 3  Z " stroke-width="1" stroke="#0079fe" fill="none" />
    </g>
  </defs>
  <g transform="matrix(1 0 0 1 -117 3 )">
    <use xlink:href="#widget264" filter="url(#filter263)" />
    <use xlink:href="#widget264" />
  </g>
</svg>