<?xml version="1.0" encoding="utf-8"?>
<svg version="1.1" xmlns:xlink="http://www.w3.org/1999/xlink" width="184px" height="95px" xmlns="http://www.w3.org/2000/svg">
  <defs>
    <mask fill="white" id="clip251">
      <path d="M 0 88.3720930232558  L 0 15.4651162790698  C 0 11.753488372093  2.63999999999999 8.83720930232558  6 8.83720930232558  L 52.2324723247233 7.74071054664031  L 63.0645161290323 1.03338334583646  L 70.3136531365313 7.74071054664031  L 178 8.83720930232558  C 181.36 8.83720930232558  184 11.753488372093  184 15.4651162790698  L 184 88.3720930232558  C 184 92.0837209302326  181.36 95  178 95  L 6 95  C 2.63999999999999 95  0 92.0837209302326  0 88.3720930232558  Z " fill-rule="evenodd" />
    </mask>
  </defs>
  <g transform="matrix(1 0 0 1 -337 -86 )">
    <path d="M 0 88.3720930232558  L 0 15.4651162790698  C 0 11.753488372093  2.63999999999999 8.83720930232558  6 8.83720930232558  L 52.2324723247233 7.74071054664031  L 63.0645161290323 1.03338334583646  L 70.3136531365313 7.74071054664031  L 178 8.83720930232558  C 181.36 8.83720930232558  184 11.753488372093  184 15.4651162790698  L 184 88.3720930232558  C 184 92.0837209302326  181.36 95  178 95  L 6 95  C 2.63999999999999 95  0 92.0837209302326  0 88.3720930232558  Z " fill-rule="nonzero" fill="#000000" stroke="none" fill-opacity="0.6" transform="matrix(1 0 0 1 337 86 )" />
    <path d="M 0 88.3720930232558  L 0 15.4651162790698  C 0 11.753488372093  2.63999999999999 8.83720930232558  6 8.83720930232558  L 52.2324723247233 7.74071054664031  L 63.0645161290323 1.03338334583646  L 70.3136531365313 7.74071054664031  L 178 8.83720930232558  C 181.36 8.83720930232558  184 11.753488372093  184 15.4651162790698  L 184 88.3720930232558  C 184 92.0837209302326  181.36 95  178 95  L 6 95  C 2.63999999999999 95  0 92.0837209302326  0 88.3720930232558  Z " stroke-width="2" stroke="#797979" fill="none" stroke-opacity="0.392156862745098" transform="matrix(1 0 0 1 337 86 )" mask="url(#clip251)" />
  </g>
</svg>