<?xml version="1.0" encoding="utf-8"?>
<svg version="1.1" xmlns:xlink="http://www.w3.org/1999/xlink" width="627px" height="249px" xmlns="http://www.w3.org/2000/svg">
  <g transform="matrix(1 0 0 1 -62 -81 )">
    <path d="M 63 87  A 5 5 0 0 1 68 82 L 683 82  A 5 5 0 0 1 688 87 L 688 324  A 5 5 0 0 1 683 329 L 68 329  A 5 5 0 0 1 63 324 L 63 87  Z " fill-rule="nonzero" fill="#ffffff" stroke="none" />
    <path d="M 62.5 87  A 5.5 5.5 0 0 1 68 81.5 L 683 81.5  A 5.5 5.5 0 0 1 688.5 87 L 688.5 324  A 5.5 5.5 0 0 1 683 329.5 L 68 329.5  A 5.5 5.5 0 0 1 62.5 324 L 62.5 87  Z " stroke-width="1" stroke-dasharray="3,1" stroke="#797979" fill="none" stroke-opacity="0.392156862745098" stroke-dashoffset="0.5" />
  </g>
</svg>