<svg t="1609212609835" class="icon" viewBox="0 0 1024 1024" version="1.1" xmlns="http://www.w3.org/2000/svg" p-id="7203" width="200" height="200"><path d="M1000.851083 943.592916L571.613519 514.348127l429.230339-429.23034a43.335582 43.335582 0 0 0 0-61.30417 43.342807 43.342807 0 0 0-61.296945 0l-429.237564 429.23034-429.23034-429.237565a43.350032 43.350032 0 0 0-61.30417 61.30417l429.23034 429.237565L19.774839 943.585691a43.342807 43.342807 0 0 0 30.655698 73.998504 43.205532 43.205532 0 0 0 30.655697-12.701559l429.23034-429.230339 429.244789 429.237564c8.460481 8.467706 19.558089 12.701559 30.648473 12.701559s22.187991-4.233853 30.648472-12.701559a43.335582 43.335582 0 0 0-0.007225-61.296945z" fill="#515151" p-id="7204"></path></svg>