<?xml version="1.0" encoding="utf-8"?>
<svg version="1.1" xmlns:xlink="http://www.w3.org/1999/xlink" width="9px" height="6px" xmlns="http://www.w3.org/2000/svg">
  <g transform="matrix(1 0 0 1 -14 -14 )">
    <path d="M 1.38415178375244 4.71038960848722  L 0.202901783752442 3.54253246182528  C 0.0985203354623428 3.4371367081708  0.0402284416652915 3.29667302894162  0.0402284416652915 3.15054492027069  C 0.0402284416652915 2.83800195957099  0.301512263443727 2.5846358293616  0.623822191665292 2.5846358293616  C 0.774762503430959 2.5846358293616  0.919832200982326 2.64134530854402  1.02857143249512 2.74285714666193  L 2.20881696624756 3.90974026544745  C 2.31350104503863 4.01518436805483  2.37198269276838 4.15585801120606  2.37198269276838 4.30222437077171  C 2.37198269276838 4.61476733147141  2.11069887098995 4.8681334616808  1.78838894276838 4.8681334616808  C 1.63769432744682 4.8681334616808  1.49284115537283 4.81160798647241  1.38415178375244 4.71038960848722  Z M 7.90513393249512 0.209415580610796  L 7.90714285125733 0.211363636363638  C 8.01799824988576 0.0806570884776101  8.1833600491328 0.00491896635025022  8.35788101480685 0.00491896635025022  C 8.68019094302841 0.00491896635025022  8.94147476480685 0.258285096559643  8.94147476480685 0.570828057259342  C 8.94147476480685 0.705846366236936  8.89169238905154 0.836415647555915  8.80111606750488 0.938961035156251  L 3.16707589874268 5.77597402787642  C 3.0562022995452 5.90149884507151  2.8942802836797 5.97375014088855  2.72384084604469 5.97375014088855  C 2.40153091782312 5.97375014088855  2.14024709604469 5.72038401067916  2.14024709604469 5.40784104997946  C 2.14024709604469 5.27671256860389  2.18720721776482 5.14965360623489  2.27310268249512 5.04837662908381  L 7.90513393249512 0.209415580610796  Z " fill-rule="nonzero" fill="#ffffff" stroke="none" transform="matrix(1 0 0 1 14 14 )" />
  </g>
</svg>