<?xml version="1.0" encoding="utf-8"?>
<svg version="1.1" xmlns:xlink="http://www.w3.org/1999/xlink" width="13px" height="12px" xmlns="http://www.w3.org/2000/svg">
  <g transform="matrix(1 0 0 1 -9 -10 )">
    <path d="M 7.35773942093541 10.0853365384615  C 7.40358203414996 10.0396634615385  7.42650334075724 9.98317307692308  7.42650334075724 9.91586538461539  L 7.42650334075724 8.54567307692308  C 7.42650334075724 8.47836538461538  7.40358203414996 8.421875  7.35773942093541 8.37620192307692  C 7.31189680772086 8.33052884615385  7.25760950259837 8.30769230769231  7.19487750556793 8.30769230769231  L 5.80512249443207 8.30769230769231  C 5.74239049740163 8.30769230769231  5.68810319227914 8.33052884615385  5.64226057906459 8.37620192307692  C 5.59641796585004 8.421875  5.57349665924276 8.47836538461538  5.57349665924276 8.54567307692308  L 5.57349665924276 9.91586538461539  C 5.57349665924276 9.98317307692308  5.59641796585004 10.0396634615385  5.64226057906459 10.0853365384615  C 5.68810319227914 10.1310096153846  5.74239049740163 10.1538461538462  5.80512249443207 10.1538461538462  L 7.19487750556793 10.1538461538462  C 7.25760950259837 10.1538461538462  7.31189680772086 10.1310096153846  7.35773942093541 10.0853365384615  Z M 7.33602449888641 7.33774038461539  C 7.38186711210097 7.30649038461538  7.4072011878248 7.26682692307692  7.41202672605791 7.21875  L 7.54231625835189 3.90865384615385  C 7.54231625835189 3.85096153846154  7.51818856718634 3.80528846153846  7.46993318485523 3.77163461538462  C 7.4072011878248 3.71875  7.34929472902747 3.69230769230769  7.29621380846325 3.69230769230769  L 5.70378619153675 3.69230769230769  C 5.65070527097253 3.69230769230769  5.5927988121752 3.71875  5.53006681514477 3.77163461538462  C 5.48181143281366 3.80528846153846  5.45768374164811 3.85576923076923  5.45768374164811 3.92307692307692  L 5.58073496659243 7.21875  C 5.58073496659243 7.26682692307692  5.60486265775798 7.30649038461538  5.65311804008909 7.33774038461539  C 5.70137342242019 7.36899038461538  5.75927988121752 7.38461538461539  5.82683741648107 7.38461538461539  L 7.16592427616926 7.38461538461539  C 7.23348181143281 7.38461538461539  7.29018188567186 7.36899038461538  7.33602449888641 7.33774038461539  Z M 6.97048997772829 0.129807692307693  C 7.1152561247216 0.216346153846154  7.2286562731997 0.334134615384615  7.31069042316258 0.483173076923078  L 12.869710467706 10.6370192307692  C 13.0386043058649 10.9399038461538  13.0337787676318 11.2427884615385  12.8552338530067 11.5456730769231  C 12.7731997030438 11.6850961538462  12.661005939124 11.7956730769231  12.5186525612472 11.8774038461538  C 12.3762991833705 11.9591346153846  12.2230883444692 12  12.0590200445434 12  L 0.94097995545657 12  C 0.776911655530809 12  0.623700816629547 11.9591346153846  0.481347438752784 11.8774038461538  C 0.338994060876021 11.7956730769231  0.226800296956199 11.6850961538462  0.144766146993318 11.5456730769231  C -0.0337787676317743 11.2427884615385  -0.0386043058648849 10.9399038461538  0.130289532293987 10.6370192307692  L 5.68930957683742 0.483173076923078  C 5.7713437268003 0.334134615384615  5.8847438752784 0.216346153846154  6.02951002227171 0.129807692307693  C 6.17427616926503 0.0432692307692313  6.33110616184113 0  6.5 0  C 6.66889383815887 0  6.82572383073497 0.0432692307692313  6.97048997772829 0.129807692307693  Z " fill-rule="nonzero" fill="#ffffff" stroke="none" transform="matrix(1 0 0 1 9 10 )" />
  </g>
</svg>