<?xml version="1.0" encoding="utf-8"?>
<svg version="1.1" xmlns:xlink="http://www.w3.org/1999/xlink" width="5px" height="2px" xmlns="http://www.w3.org/2000/svg">
  <g transform="matrix(1 0 0 1 -28 -10 )">
    <path d="M 4.575 1.74266666666667  C 4.27668852748724 1.88496987186042  3.85059240049206 1.96641672621512  3.403125 1.96666666666667  C 3.03437499999999 1.96666666666667  2.66562499999999 1.912  2.36875 1.8  C 1.88439656871326 1.61752056543942  1.38184755356343 1.44402646560346  0.862499999999997 1.28  C 0.17002186381764 1.06080763531031  0.0245756739892311 0.643712715556238  0.5375 0.348  C 1.05238260691455 0.0523793613815542  2.03092463092178 -0.00965088349265386  2.725 0.209333333333333  C 3.3125 0.396  3.8875 0.594666666666667  4.43750000000001 0.801333333333333  C 4.77372002679455 0.927911421403188  4.96631671396824 1.11000929946023  4.96631671396824 1.30132324960779  C 4.96631671396824 1.46387052067053  4.82715758113994 1.6208200324217  4.575 1.74266666666667  Z " fill-rule="nonzero" fill="#ffffff" stroke="none" transform="matrix(1 0 0 1 28 10 )" />
  </g>
</svg>