<?xml version="1.0" encoding="utf-8"?>
<svg version="1.1" xmlns:xlink="http://www.w3.org/1999/xlink" width="27px" height="27px" xmlns="http://www.w3.org/2000/svg">
  <g transform="matrix(1 0 0 1 -8 -8 )">
    <path d="M 26.8658181818182 13.5  C 26.8658181818182 20.9152409638554  20.7965454545454 26.9479518072289  13.3363636363636 26.9479518072289  C 7.04454545454545 26.9479518072289  1.63309090909091 22.7060240963855  0.175090909090907 16.6310240963855  C 0.070303696584611 16.1944603628572  0.341356069431493 15.7561075104495  0.780545454545453 15.6518674698795  C 1.22072727272727 15.5461445783132  1.66090909090909 15.8177710843373  1.76563636363636 16.2536746987952  C 3.04690909090909 21.5934939759036  7.80381818181818 25.3214457831325  13.3347272727273 25.3214457831325  C 19.8932727272727 25.3214457831325  25.2278181818182 20.0190361445783  25.2278181818182 13.5  C 25.2278181818182 10.7983734939759  24.336 8.25614457831325  22.6489090909091 6.14819277108433  C 22.3674545454545 5.79686746987952  22.4263636363636 5.28451807228915  22.7798181818182 5.00475903614458  C 23.1332727272727 4.725  23.6487272727273 4.78355421686747  23.9301818181818 5.13487951807229  C 25.8496363636364 7.53397590361445  26.8658181818182 10.4275301204819  26.8658181818182 13.5  Z M 19.0014545454545 2.15674698795181  C 19.1781818181818 1.74361445783133  18.9818181818182 1.26704819277108  18.5645454545455 1.09301204819277  C 16.9069090909091 0.401746987951807  15.1478181818182 0.0520481927710844  13.3363636363636 0.0520481927710844  C 8.47636363636364 0.0520481927710844  4.05981818181819 2.61704819277108  1.656 6.71096385542169  L 1.656 4.65831325301205  C 1.656 4.20939759036145  1.28945454545455 3.84506024096386  0.837818181818184 3.84506024096386  C 0.38618181818182 3.84506024096386  0.0196363636363661 4.20939759036145  0.0196363636363661 4.65831325301205  L 0.0196363636363661 8.67578313253012  C 0.0196363636363661 9.12469879518072  0.386181818181821 9.48903614457831  0.837818181818184 9.48903614457831  L 4.98109090909091 9.48903614457831  C 5.43272727272728 9.48903614457831  5.79927272727273 9.12469879518072  5.79927272727273 8.67578313253012  C 5.79927272727273 8.22686746987952  5.43272727272728 7.86253012048193  4.98109090909091 7.86253012048193  L 2.88163636363636 7.86253012048193  C 4.95872206686505 4.04842763130332  8.97304980855471 1.67395095905398  13.3363636363636 1.67855421686747  C 14.9301818181818 1.67855421686747  16.4749090909091 1.98596385542169  17.9312727272727 2.59265060240964  C 18.0315155593512 2.63459308264724  18.139180805076 2.65619902436078  18.2479428616047 2.65619902436078  C 18.5775260913976 2.65619902436078  18.8747688515071 2.4591768612989  19.0014545454545 2.15674698795181  Z " fill-rule="nonzero" fill="#ffffff" stroke="none" transform="matrix(1 0 0 1 8 8 )" />
  </g>
</svg>