<?xml version="1.0" encoding="utf-8"?>
<svg version="1.1" xmlns:xlink="http://www.w3.org/1999/xlink" width="2px" height="1px" xmlns="http://www.w3.org/2000/svg">
  <g transform="matrix(1 0 0 1 -277 -308 )">
    <path d="M 1.83 0.871333333333333  C 1.7106754109949 0.94248493593021  1.54023696019683 0.983208363107561  1.36125 0.983333333333333  C 1.21375 0.983333333333333  1.06625 0.956  0.947500000000002 0.9  C 0.753758627485304 0.808760282719712  0.552739021425371 0.722013232801732  0.344999999999999 0.64  C 0.0680087455270559 0.530403817655155  0.00983026959569244 0.321856357778119  0.215 0.174  C 0.42095304276582 0.0261896806907771  0.812369852368711 -0.00482544174632693  1.09 0.104666666666667  C 1.325 0.198  1.555 0.297333333333333  1.775 0.400666666666667  C 1.90948801071782 0.463955710701594  1.9865266855873 0.555004649730115  1.9865266855873 0.650661624803897  C 1.9865266855873 0.731935260335264  1.93086303245598 0.810410016210851  1.83 0.871333333333333  Z " fill-rule="nonzero" fill="#ff64c8" stroke="none" transform="matrix(1 0 0 1 277 308 )" />
  </g>
</svg>