<?xml version="1.0" encoding="utf-8"?>
<svg version="1.1" xmlns:xlink="http://www.w3.org/1999/xlink" width="12px" height="12px" xmlns="http://www.w3.org/2000/svg">
  <g transform="matrix(1 0 0 1 -268 -307 )">
    <path d="M 11.9403636363636 6  C 11.9403636363636 9.29566265060241  9.24290909090909 11.9768674698795  5.92727272727273 11.9768674698795  C 3.13090909090909 11.9768674698795  0.725818181818182 10.0915662650602  0.0778181818181811 7.39156626506024  C 0.0312460873709382 7.19753793904764  0.151713808636219 7.00271444908866  0.34690909090909 6.95638554216867  C 0.542545454545454 6.90939759036144  0.738181818181817 7.03012048192771  0.784727272727272 7.22385542168674  C 1.35418181818182 9.59710843373494  3.46836363636363 11.2539759036145  5.92654545454545 11.2539759036145  C 8.84145454545455 11.2539759036145  11.2123636363636 8.89734939759036  11.2123636363636 6  C 11.2123636363636 4.79927710843373  10.816 3.66939759036145  10.0661818181818 2.73253012048193  C 9.94109090909091 2.57638554216867  9.96727272727273 2.34867469879518  10.1243636363636 2.22433734939759  C 10.2814545454545 2.1  10.5105454545455 2.12602409638554  10.6356363636364 2.28216867469879  C 11.4887272727273 3.34843373493976  11.9403636363636 4.6344578313253  11.9403636363636 6  Z M 8.44509090909091 0.95855421686747  C 8.52363636363636 0.774939759036145  8.43636363636364 0.563132530120482  8.25090909090909 0.48578313253012  C 7.51418181818182 0.17855421686747  6.73236363636364 0.0231325301204819  5.92727272727273 0.0231325301204819  C 3.76727272727273 0.0231325301204819  1.80436363636364 1.16313253012048  0.736000000000001 2.98265060240964  L 0.736000000000001 2.07036144578313  C 0.736000000000001 1.87084337349398  0.57309090909091 1.7089156626506  0.372363636363637 1.7089156626506  C 0.171636363636365 1.7089156626506  0.00872727272727383 1.87084337349398  0.00872727272727383 2.07036144578313  L 0.00872727272727383 3.85590361445783  C 0.00872727272727383 4.05542168674699  0.171636363636365 4.21734939759036  0.372363636363637 4.21734939759036  L 2.21381818181818 4.21734939759036  C 2.41454545454546 4.21734939759036  2.57745454545455 4.05542168674699  2.57745454545455 3.85590361445783  C 2.57745454545455 3.65638554216867  2.41454545454546 3.4944578313253  2.21381818181818 3.4944578313253  L 1.28072727272727 3.4944578313253  C 2.20387647416225 1.79930116946814  3.98802213713543 0.74397820402399  5.92727272727273 0.746024096385542  C 6.63563636363636 0.746024096385542  7.32218181818182 0.882650602409639  7.96945454545455 1.15228915662651  C 8.0140069152672 1.17093025895433  8.06185813558935 1.1805328997159  8.11019682737986 1.1805328997159  C 8.2566782628434 1.1805328997159  8.38878615622538 1.09296749391062  8.44509090909091 0.95855421686747  Z " fill-rule="nonzero" fill="#585266" stroke="none" transform="matrix(1 0 0 1 268 307 )" />
  </g>
</svg>