<?xml version="1.0" encoding="utf-8"?>
<svg version="1.1" xmlns:xlink="http://www.w3.org/1999/xlink" width="7px" height="12px" xmlns="http://www.w3.org/2000/svg">
  <g transform="matrix(1 0 0 1 -336 -307 )">
    <path d="M 6.2823541709961 6.43867646622243  L 6.305075 6.41688234857537  L 6.69687082900391 6.02179411764706  L 1.2959625 0.574382348575367  C 1.07912393216195 0.357822487850005  0.729763567838046 0.357822487850005  0.512925 0.574382348575367  C 0.408625712938791 0.678957862332621  0.349980686091964 0.82115343662423  0.349980686091964 0.969470586052389  C 0.349980686091964 1.11778773548055  0.408625712938791 1.25998330977216  0.512925 1.36455882352941  L 5.12913332900391 6.02067647495404  L 0.512925000000003 10.674  C 0.408659055499477 10.7784798269154  0.350027529741729 10.9205829772556  0.350027529741729 11.0688088235294  C 0.350027529741729 11.2170346698032  0.408659055499477 11.3591378201434  0.512925000000001 11.4636176470588  C 0.729050000000001 11.6815588235294  1.08260832900391 11.679323525046  1.2959625 11.464176474954  L 6.2823541709961 6.43867646622243  Z " fill-rule="nonzero" fill="#3d3d3d" stroke="none" transform="matrix(1 0 0 1 336 307 )" />
  </g>
</svg>