<?xml version="1.0" encoding="utf-8"?>
<svg version="1.1" xmlns:xlink="http://www.w3.org/1999/xlink" width="23px" height="23px" xmlns="http://www.w3.org/2000/svg">
  <g transform="matrix(1 0 0 1 0 -10 )">
    <path d="M 11.5 10  C 17.94 10  23 15.06  23 21.5  C 23 27.94  17.94 33  11.5 33  C 5.06 33  0 27.94  0 21.5  C 0 15.06  5.06 10  11.5 10  Z " fill-rule="nonzero" fill="#ffffff" stroke="none" />
    <path d="M 11.5 10.5  C 17.66 10.5  22.5 15.34  22.5 21.5  C 22.5 27.66  17.66 32.5  11.5 32.5  C 5.34 32.5  0.5 27.66  0.5 21.5  C 0.5 15.34  5.34 10.5  11.5 10.5  Z " stroke-width="1" stroke="#5687fe" fill="none" />
  </g>
</svg>