<?xml version="1.0" encoding="utf-8"?>
<svg version="1.1" xmlns:xlink="http://www.w3.org/1999/xlink" width="718px" height="480px" xmlns="http://www.w3.org/2000/svg">
  <g transform="matrix(1 0 0 1 -2277 -241 )">
    <path d="M 2278 247  A 5 5 0 0 1 2283 242 L 2989 242  A 5 5 0 0 1 2994 247 L 2994 715  A 5 5 0 0 1 2989 720 L 2283 720  A 5 5 0 0 1 2278 715 L 2278 247  Z " fill-rule="nonzero" fill="#ffffff" stroke="none" />
    <path d="M 2277.5 247  A 5.5 5.5 0 0 1 2283 241.5 L 2989 241.5  A 5.5 5.5 0 0 1 2994.5 247 L 2994.5 715  A 5.5 5.5 0 0 1 2989 720.5 L 2283 720.5  A 5.5 5.5 0 0 1 2277.5 715 L 2277.5 247  Z " stroke-width="1" stroke="#797979" fill="none" stroke-opacity="0.392156862745098" />
  </g>
</svg>