<svg t="1611644501630" class="icon" viewBox="0 0 1090 1024" version="1.1" xmlns="http://www.w3.org/2000/svg" p-id="2542" width="200" height="200"><path d="M621.469599 490.922344l399.944743-399.944743a52.379966 52.379966 0 0 0 0-73.659952l-2.181999-2.182999a52.379966 52.379966 0 0 0-73.659952 0L545.627648 415.625392 145.682906 15.13565a52.379966 52.379966 0 0 0-73.659952 0l-2.182999 2.181999a51.356967 51.356967 0 0 0 0 73.659952l399.944742 399.944743L69.839955 890.867086a52.379966 52.379966 0 0 0 0 73.659952l2.182999 2.181999a52.379966 52.379966 0 0 0 73.659952 0l399.944742-399.944742 399.944743 399.944742a52.379966 52.379966 0 0 0 73.659952 0l2.181999-2.181999a52.379966 52.379966 0 0 0 0-73.659952L621.469599 490.922344z" p-id="2543"></path></svg>