<?xml version="1.0" encoding="utf-8"?>
<svg version="1.1" xmlns:xlink="http://www.w3.org/1999/xlink" width="12px" height="12px" viewBox="258 467  12 12" xmlns="http://www.w3.org/2000/svg">
  <path d="M 264 467  C 267.36 467  270 469.64  270 473  C 270 476.36  267.36 479  264 479  C 260.64 479  258 476.36  258 473  C 258 469.64  260.64 467  264 467  Z " fill-rule="nonzero" fill="#ffffff" stroke="none" />
  <path d="M 264 467.5  C 267.08 467.5  269.5 469.92  269.5 473  C 269.5 476.08  267.08 478.5  264 478.5  C 260.92 478.5  258.5 476.08  258.5 473  C 258.5 469.92  260.92 467.5  264 467.5  Z " stroke-width="1" stroke="#797979" fill="none" />
  <path d="M 264 476  C 262.32 476  261 474.68  261 473  C 261 471.32  262.32 470  264 470  C 265.68 470  267 471.32  267 473  C 267 474.68  265.68 476  264 476  " fill-rule="nonzero" fill="#797979" stroke="none" />
</svg>