<?xml version="1.0" encoding="utf-8"?>
<svg version="1.1" xmlns:xlink="http://www.w3.org/1999/xlink" width="12px" height="12px" viewBox="503 467  12 12" xmlns="http://www.w3.org/2000/svg">
  <path d="M 509 467  C 512.36 467  515 469.64  515 473  C 515 476.36  512.36 479  509 479  C 505.64 479  503 476.36  503 473  C 503 469.64  505.64 467  509 467  Z " fill-rule="nonzero" fill="#f0f0f0" stroke="none" />
  <path d="M 509 467.5  C 512.08 467.5  514.5 469.92  514.5 473  C 514.5 476.08  512.08 478.5  509 478.5  C 505.92 478.5  503.5 476.08  503.5 473  C 503.5 469.92  505.92 467.5  509 467.5  Z " stroke-width="1" stroke="#797979" fill="none" />
  <path d="M 509 476  C 507.32 476  506 474.68  506 473  C 506 471.32  507.32 470  509 470  C 510.68 470  512 471.32  512 473  C 512 474.68  510.68 476  509 476  " fill-rule="nonzero" fill="#797979" stroke="none" />
</svg>