<svg t="1609211215176" class="icon" viewBox="0 0 1175 1024" version="1.1" xmlns="http://www.w3.org/2000/svg" p-id="5494" width="200" height="200"><path d="M804.016849 712.572873h-515.019376c-22.429655 0-39.683235-18.116259-39.683235-39.683235v-320.053918c0-22.429655 18.116259-39.683235 39.683235-39.683235h515.019376c22.429655 0 39.683235 18.116259 39.683235 39.683235v320.053918c0 22.429655-17.25358 39.683235-39.683235 39.683235z m-489.139006-25.880371h463.258636c22.429655 0 39.683235-18.116259 39.683235-39.683235v-268.293176c0-22.429655-18.116259-39.683235-39.683235-39.683235h-463.258636c-22.429655 0-39.683235 18.116259-39.683235 39.683235v268.293176c-0.862679 22.429655 17.25358 39.683235 39.683235 39.683235z" fill="#1296db" p-id="5495"></path><path d="M441.69166 521.920809c-38.820556 0-69.877001-31.056445-69.877001-69.877001s31.056445-69.877001 69.877001-69.877001 69.877001 31.056445 69.877 69.877001-31.056445 69.877001-69.877 69.877001z m0-113.010952c-24.155013 0-43.99663 19.841618-43.996631 43.99663s19.841618 43.99663 43.996631 43.99663 43.99663-19.841618 43.99663-43.99663-19.841618-43.99663-43.99663-43.99663z" fill="#1296db" p-id="5496"></path><path d="M552.114575 642.695872c-6.901432 0-12.077506-5.176074-12.940186-11.214827-6.038753-49.172704-47.447346-87.130581-97.482729-87.130582s-92.306655 37.957877-97.48273 87.130582c-0.862679 6.901432-6.038753 11.214827-12.940185 11.214827-7.764111 0-13.802864-6.901432-12.940186-14.665543 6.901432-62.11289 59.524853-110.422915 123.363101-110.422915s116.461668 48.310025 123.3631 110.422915c0.862679 8.62679-5.176074 14.665543-12.940185 14.665543z" fill="#1296db" p-id="5497"></path><path d="M767.78433 470.160067h-155.282224c-6.901432 0-12.940185-6.038753-12.940185-12.940185s6.038753-12.940185 12.940185-12.940185h155.282224c6.901432 0 12.940185 6.038753 12.940186 12.940185s-5.176074 12.940185-12.940186 12.940185zM767.78433 582.30834h-155.282224c-6.901432 0-12.940185-6.038753-12.940185-12.940185s6.038753-12.940185 12.940185-12.940185h155.282224c6.901432 0 12.940185 6.038753 12.940186 12.940185s-5.176074 12.940185-12.940186 12.940185zM767.78433 526.234204h-100.933445c-6.901432 0-12.940185-6.038753-12.940186-12.940185s6.038753-12.940185 12.940186-12.940186h100.933445c6.901432 0 12.940185 6.038753 12.940186 12.940186s-5.176074 12.940185-12.940186 12.940185z" fill="#1296db" p-id="5498"></path></svg>