<?xml version="1.0" encoding="utf-8"?>
<svg version="1.1" xmlns:xlink="http://www.w3.org/1999/xlink" width="1614px" height="1123px" xmlns="http://www.w3.org/2000/svg">
  <g transform="matrix(1 0 0 1 -281 -197 )">
    <path d="M 282 203  A 5 5 0 0 1 287 198 L 1889 198  A 5 5 0 0 1 1894 203 L 1894 1314  A 5 5 0 0 1 1889 1319 L 287 1319  A 5 5 0 0 1 282 1314 L 282 203  Z " fill-rule="nonzero" fill="#ffffff" stroke="none" />
    <path d="M 281.5 203  A 5.5 5.5 0 0 1 287 197.5 L 1889 197.5  A 5.5 5.5 0 0 1 1894.5 203 L 1894.5 1314  A 5.5 5.5 0 0 1 1889 1319.5 L 287 1319.5  A 5.5 5.5 0 0 1 281.5 1314 L 281.5 203  Z " stroke-width="1" stroke="#333333" fill="none" stroke-opacity="0.333333333333333" />
  </g>
</svg>