<?xml version="1.0" encoding="utf-8"?>
<svg version="1.1" xmlns:xlink="http://www.w3.org/1999/xlink" width="12px" height="12px" viewBox="299 444  12 12" xmlns="http://www.w3.org/2000/svg">
  <path d="M 305 444  C 308.36 444  311 446.64  311 450  C 311 453.36  308.36 456  305 456  C 301.64 456  299 453.36  299 450  C 299 446.64  301.64 444  305 444  Z " fill-rule="nonzero" fill="#ffffff" stroke="none" />
  <path d="M 305 444.5  C 308.08 444.5  310.5 446.92  310.5 450  C 310.5 453.08  308.08 455.5  305 455.5  C 301.92 455.5  299.5 453.08  299.5 450  C 299.5 446.92  301.92 444.5  305 444.5  Z " stroke-width="1" stroke="#797979" fill="none" />
  <path d="M 305 453  C 303.32 453  302 451.68  302 450  C 302 448.32  303.32 447  305 447  C 306.68 447  308 448.32  308 450  C 308 451.68  306.68 453  305 453  " fill-rule="nonzero" fill="#797979" stroke="none" />
</svg>