<?xml version="1.0" encoding="utf-8"?>
<svg version="1.1" xmlns:xlink="http://www.w3.org/1999/xlink" width="12px" height="12px" viewBox="186 406  12 12" xmlns="http://www.w3.org/2000/svg">
  <path d="M 192 406  C 195.36 406  198 408.64  198 412  C 198 415.36  195.36 418  192 418  C 188.64 418  186 415.36  186 412  C 186 408.64  188.64 406  192 406  Z " fill-rule="nonzero" fill="#f0f0f0" stroke="none" />
  <path d="M 192 406.5  C 195.08 406.5  197.5 408.92  197.5 412  C 197.5 415.08  195.08 417.5  192 417.5  C 188.92 417.5  186.5 415.08  186.5 412  C 186.5 408.92  188.92 406.5  192 406.5  Z " stroke-width="1" stroke="#797979" fill="none" />
  <path d="M 192 415  C 190.32 415  189 413.68  189 412  C 189 410.32  190.32 409  192 409  C 193.68 409  195 410.32  195 412  C 195 413.68  193.68 415  192 415  " fill-rule="nonzero" fill="#797979" stroke="none" />
</svg>