<svg t="1611123154416" class="icon" viewBox="0 0 1024 1024" version="1.1" xmlns="http://www.w3.org/2000/svg" p-id="3249" width="200" height="200"><path d="M578.048 512l347.477-347.605a45.525 45.525 0 0 0 0-64l-1.92-1.92a45.483 45.483 0 0 0-64 0L512.171 446.549 164.736 98.475a45.483 45.483 0 0 0-64 0l-1.877 1.92a44.672 44.672 0 0 0 0 64L446.293 512 98.86 859.605a45.525 45.525 0 0 0 0 64l1.877 1.92a45.483 45.483 0 0 0 64 0L512.171 577.92l347.434 347.605a45.483 45.483 0 0 0 64 0l1.92-1.92a45.525 45.525 0 0 0 0-64L578.048 512z" p-id="3250"></path></svg>