<?xml version="1.0" encoding="utf-8"?>
<svg version="1.1" xmlns:xlink="http://www.w3.org/1999/xlink" width="328px" height="524px" xmlns="http://www.w3.org/2000/svg">
  <g transform="matrix(1 0 0 1 1 2 )">
    <path d="M 0 4  A 5 5 0 0 1 5 -1 L 321 -1  A 5 5 0 0 1 326 4 L 326 516  A 5 5 0 0 1 321 521 L 5 521  A 5 5 0 0 1 0 516 L 0 4  Z " fill-rule="nonzero" fill="#ffffff" stroke="none" />
    <path d="M -0.5 4  A 5.5 5.5 0 0 1 5 -1.5 L 321 -1.5  A 5.5 5.5 0 0 1 326.5 4 L 326.5 516  A 5.5 5.5 0 0 1 321 521.5 L 5 521.5  A 5.5 5.5 0 0 1 -0.5 516 L -0.5 4  Z " stroke-width="1" stroke="#797979" fill="none" stroke-opacity="0.392156862745098" />
  </g>
</svg>