<?xml version="1.0" encoding="utf-8"?>
<svg version="1.1" xmlns:xlink="http://www.w3.org/1999/xlink" width="257px" height="51px" xmlns="http://www.w3.org/2000/svg">
  <g transform="matrix(1 0 0 1 -11 -265 )">
    <path d="M 12 271  A 5 5 0 0 1 17 266 L 262 266  A 5 5 0 0 1 267 271 L 267 310  A 5 5 0 0 1 262 315 L 17 315  A 5 5 0 0 1 12 310 L 12 271  Z " fill-rule="nonzero" fill="#001529" stroke="none" />
    <path d="M 11.5 271  A 5.5 5.5 0 0 1 17 265.5 L 262 265.5  A 5.5 5.5 0 0 1 267.5 271 L 267.5 310  A 5.5 5.5 0 0 1 262 315.5 L 17 315.5  A 5.5 5.5 0 0 1 11.5 310 L 11.5 271  Z " stroke-width="1" stroke="#797979" fill="none" stroke-opacity="0.392156862745098" />
  </g>
</svg>