<?xml version="1.0" encoding="utf-8"?>
<svg version="1.1" xmlns:xlink="http://www.w3.org/1999/xlink" width="12px" height="12px" xmlns="http://www.w3.org/2000/svg">
  <g transform="matrix(1 0 0 1 -1227 -195 )">
    <path d="M 7.359375 7.359375  C 7.99158653846154 6.72716346153846  8.30769230769231 5.96634615384615  8.30769230769231 5.07692307692308  C 8.30769230769231 4.1875  7.99158653846154 3.42668269230769  7.359375 2.79447115384615  C 6.72716346153846 2.16225961538461  5.96634615384615 1.84615384615385  5.07692307692308 1.84615384615385  C 4.1875 1.84615384615385  3.42668269230769 2.16225961538461  2.79447115384615 2.79447115384615  C 2.16225961538462 3.42668269230769  1.84615384615385 4.1875  1.84615384615385 5.07692307692308  C 1.84615384615385 5.96634615384615  2.16225961538462 6.72716346153846  2.79447115384615 7.359375  C 3.42668269230769 7.99158653846154  4.1875 8.30769230769231  5.07692307692308 8.30769230769231  C 5.96634615384615 8.30769230769231  6.72716346153846 7.99158653846154  7.359375 7.359375  Z M 11.7331730769231 10.4278846153846  C 11.9110576923077 10.6057692307692  12 10.8221153846154  12 11.0769230769231  C 12 11.3269230769231  11.9086538461538 11.5432692307692  11.7259615384615 11.7259615384615  C 11.5432692307692 11.9086538461538  11.3269230769231 12  11.0769230769231 12  C 10.8173076923077 12  10.6009615384615 11.9086538461538  10.4278846153846 11.7259615384615  L 7.95432692307692 9.25961538461539  C 7.09375 9.85576923076923  6.13461538461539 10.1538461538462  5.07692307692308 10.1538461538462  C 4.38942307692308 10.1538461538462  3.73197115384615 10.0204326923077  3.10456730769231 9.75360576923077  C 2.47716346153846 9.48677884615385  1.93629807692308 9.12620192307692  1.48197115384615 8.671875  C 1.02764423076923 8.21754807692308  0.667067307692308 7.67668269230769  0.400240384615385 7.04927884615385  C 0.133413461538462 6.421875  0 5.76442307692308  0 5.07692307692308  C 0 4.38942307692307  0.133413461538462 3.73197115384615  0.400240384615385 3.10456730769231  C 0.667067307692308 2.47716346153846  1.02764423076923 1.93629807692308  1.48197115384615 1.48197115384615  C 1.93629807692308 1.02764423076923  2.47716346153846 0.667067307692307  3.10456730769231 0.400240384615385  C 3.73197115384615 0.133413461538461  4.38942307692308 0  5.07692307692308 0  C 5.76442307692308 0  6.421875 0.133413461538461  7.04927884615385 0.400240384615385  C 7.67668269230769 0.667067307692307  8.21754807692308 1.02764423076923  8.671875 1.48197115384615  C 9.12620192307692 1.93629807692308  9.48677884615385 2.47716346153846  9.75360576923077 3.10456730769231  C 10.0204326923077 3.73197115384615  10.1538461538462 4.38942307692307  10.1538461538462 5.07692307692308  C 10.1538461538462 6.13461538461538  9.85576923076923 7.09375  9.25961538461539 7.95432692307692  L 11.7331730769231 10.4278846153846  Z " fill-rule="nonzero" fill="#fdfbfb" stroke="none" transform="matrix(1 0 0 1 1227 195 )" />
  </g>
</svg>