<?xml version="1.0" encoding="utf-8"?>
<svg version="1.1" xmlns:xlink="http://www.w3.org/1999/xlink" width="21px" height="21px" xmlns="http://www.w3.org/2000/svg">
  <g transform="matrix(1 0 0 1 -220 -13 )">
    <path d="M 220 13  L 241 13  L 241 34  L 220 34  L 220 13  " fill-rule="nonzero" fill="#cccccc" stroke="none" />
    <path d="M 221 14  L 240 14  L 240 33  L 221 33  L 221 14  " fill-rule="nonzero" fill="#ffffff" stroke="none" />
    <path d="M 232.495 19.3  C 231.613 19.3  230.92 18.607  230.92 17.725  C 230.92 16.843  231.613 16.15  232.495 16.15  C 233.377 16.15  234.07 16.843  234.07 17.725  C 234.07 18.607  233.377 19.3  232.495 19.3  " fill-rule="nonzero" fill="#cccccc" stroke="none" />
    <path d="M 222 33  L 222 23.1  L 226.5 18.6  L 232.8 22.2  L 236.4 21.3  L 240 22.2  L 240 33  L 222 33  " fill-rule="nonzero" fill="#169bd5" stroke="none" />
  </g>
</svg>