<?xml version="1.0" encoding="utf-8"?>
<svg version="1.1" xmlns:xlink="http://www.w3.org/1999/xlink" width="232px" height="309px" xmlns="http://www.w3.org/2000/svg">
  <g transform="matrix(1 0 0 1 -13 -11 )">
    <path d="M 13 11  L 245 11  L 245 320  L 13 320  L 13 11  " fill-rule="nonzero" fill="#cccccc" stroke="none" />
    <path d="M 29 27  L 229 27  L 229 304  L 29 304  L 29 27  " fill-rule="nonzero" fill="#ffffff" stroke="none" />
    <path d="M 151.04 92.15  C 141.296 92.15  133.64 84.494  133.64 74.75  C 133.64 65.006  141.296 57.35  151.04 57.35  C 160.784 57.35  168.44 65.006  168.44 74.75  C 168.44 84.494  160.784 92.15  151.04 92.15  " fill-rule="nonzero" fill="#cccccc" stroke="none" />
    <path d="M 35 298  L 35 152.25  L 82 86  L 147.8 139  L 185.4 125.75  L 223 139  L 223 298  L 35 298  " fill-rule="nonzero" fill="#169bd5" stroke="none" />
  </g>
</svg>