<?xml version="1.0" encoding="utf-8"?>
<svg version="1.1" xmlns:xlink="http://www.w3.org/1999/xlink" width="66px" height="69px" xmlns="http://www.w3.org/2000/svg">
  <g>
    <path d="M 1 4  A 3 3 0 0 1 4 1 L 62 1  A 3 3 0 0 1 65 4 L 65 65  A 3 3 0 0 1 62 68 L 4 68  A 3 3 0 0 1 1 65 L 1 4  Z " fill-rule="nonzero" fill="#ffffff" stroke="none" />
    <path d="M 0.5 4  A 3.5 3.5 0 0 1 4 0.5 L 62 0.5  A 3.5 3.5 0 0 1 65.5 4 L 65.5 65  A 3.5 3.5 0 0 1 62 68.5 L 4 68.5  A 3.5 3.5 0 0 1 0.5 65 L 0.5 4  Z " stroke-width="1" stroke="#797979" fill="none" stroke-opacity="0.164705882352941" />
  </g>
</svg>