<?xml version="1.0" encoding="utf-8"?>
<svg version="1.1" xmlns:xlink="http://www.w3.org/1999/xlink" width="97px" height="30px" xmlns="http://www.w3.org/2000/svg">
  <g transform="matrix(1 0 0 1 -125 -147 )">
    <path d="M 126 153  A 5 5 0 0 1 131 148 L 216 148  A 5 5 0 0 1 221 153 L 221 171  A 5 5 0 0 1 216 176 L 131 176  A 5 5 0 0 1 126 171 L 126 153  Z " fill-rule="nonzero" fill="#ffffff" stroke="none" />
    <path d="M 125.5 153  A 5.5 5.5 0 0 1 131 147.5 L 216 147.5  A 5.5 5.5 0 0 1 221.5 153 L 221.5 171  A 5.5 5.5 0 0 1 216 176.5 L 131 176.5  A 5.5 5.5 0 0 1 125.5 171 L 125.5 153  Z " stroke-width="1" stroke="#797979" fill="none" stroke-opacity="0.392156862745098" />
  </g>
</svg>