<?xml version="1.0" encoding="utf-8"?>
<svg version="1.1" xmlns:xlink="http://www.w3.org/1999/xlink" width="13px" height="14px" xmlns="http://www.w3.org/2000/svg">
  <g transform="matrix(1 0 0 1 -232 -373 )">
    <path d="M 4.4859058277027 5.4438622754491  C 4.4859058277027 5.37151958740989  4.5473532332369 5.31287425149701  4.62315244932432 5.31287425149701  L 10.6105363175676 5.31287425149701  C 10.686335533655 5.31287425149701  10.7477829391892 5.37151958740989  10.7477829391892 5.4438622754491  L 10.7477829391892 6.22979041916168  C 10.7477829391892 6.30213310720089  10.686335533655 6.36077844311377  10.6105363175676 6.36077844311377  L 4.62315244932432 6.36077844311377  C 4.5473532332369 6.36077844311377  4.4859058277027 6.30213310720089  4.4859058277027 6.22979041916168  L 4.4859058277027 5.4438622754491  Z M 4.4859058277027 8.06362275449102  C 4.4859058277027 7.99128006645181  4.5473532332369 7.93263473053892  4.62315244932432 7.93263473053892  L 9.04935599662162 7.93263473053892  C 9.12515521270904 7.93263473053892  9.18660261824324 7.99128006645181  9.18660261824324 8.06362275449102  L 9.18660261824324 8.84955089820359  C 9.18660261824324 8.9218935862428  9.12515521270904 8.98053892215569  9.04935599662162 8.98053892215569  L 4.62315244932432 8.98053892215569  C 4.5473532332369 8.98053892215569  4.4859058277027 8.9218935862428  4.4859058277027 8.84955089820359  L 4.4859058277027 8.06362275449102  Z M 11.7428209459459 3.34805389221557  L 3.50802364864865 3.34805389221557  L 3.50802364864865 12.7791916167665  L 11.7428209459459 12.7791916167665  L 11.7428209459459 3.34805389221557  Z M 2.27280405405405 2.69311377245509  C 2.27280405405405 2.40374485404192  2.51859559755068 2.16916167664671  2.82179054054054 2.16916167664671  L 12.4290540540541 2.16916167664671  C 12.7322489970439 2.16916167664671  12.9780405405405 2.40374485404192  13 2.69311377245509  L 13 13.4341317365269  C 12.9780405405405 13.7235006549401  12.7322489970439 13.9580838323353  12.4290540540541 13.9580838323353  L 2.82179054054054 13.9580838323353  C 2.51859559755068 13.9580838323353  2.27280405405405 13.7235006549401  2.27280405405405 13.4341317365269  L 2.27280405405405 2.69311377245509  Z M 11.4683277027027 1.25224550898204  L 1.3120777027027 1.25224550898204  L 1.3120777027027 12.124251497006  C 1.3120777027027 12.1965941850452  1.2506302971685 12.2552395209581  1.17483108108108 12.2552395209581  L 0.21410472972973 12.2552395209581  C 0.138305513642311 12.2552395209581  0.0768581081081081 12.1965941850452  0 12.124251497006  L 0 0.597305389221557  C 0.0768581081081081 0.307936470808383  0.32264965160473 0.0733532934131736  0.625844594594595 0  L 11.4683277027027 0  C 11.5441269187901 0.0733532934131736  11.6055743243243 0.131998629326056  11.6055743243243 0.204341317365269  L 11.6055743243243 1.12125748502994  C 11.6055743243243 1.19360017306915  11.5441269187901 1.25224550898204  11.4683277027027 1.25224550898204  Z " fill-rule="nonzero" fill="#5090f1" stroke="none" transform="matrix(1 0 0 1 232 373 )" />
  </g>
</svg>