<?xml version="1.0" encoding="utf-8"?>
<svg version="1.1" xmlns:xlink="http://www.w3.org/1999/xlink" width="1440px" height="889px" xmlns="http://www.w3.org/2000/svg">
  <g>
    <path d="M 1 6  A 5 5 0 0 1 6 1 L 1434 1  A 5 5 0 0 1 1439 6 L 1439 883  A 5 5 0 0 1 1434 888 L 6 888  A 5 5 0 0 1 1 883 L 1 6  Z " fill-rule="nonzero" fill="#000000" stroke="none" fill-opacity="0.811764705882353" />
    <path d="M 0.5 6  A 5.5 5.5 0 0 1 6 0.5 L 1434 0.5  A 5.5 5.5 0 0 1 1439.5 6 L 1439.5 883  A 5.5 5.5 0 0 1 1434 888.5 L 6 888.5  A 5.5 5.5 0 0 1 0.5 883 L 0.5 6  Z " stroke-width="1" stroke="#797979" fill="none" stroke-opacity="0.392156862745098" />
  </g>
</svg>