<?xml version="1.0" encoding="utf-8"?>
<svg version="1.1" xmlns:xlink="http://www.w3.org/1999/xlink" width="21px" height="22px" xmlns="http://www.w3.org/2000/svg">
  <g transform="matrix(1 0 0 1 -803 -650 )">
    <path d="M 20.46875 19.31875  L 12.08125 11  L 20.46875 2.6125  C 20.88125 2.2  20.88125 1.5125  20.46875 1.03125  L 20.4 0.962499999999999  C 19.9875 0.549999999999997  19.3 0.549999999999997  18.8875 0.962499999999999  L 10.5 9.41875  L 2.1125 1.03125  C 1.7 0.618749999999999  1.0125 0.618749999999999  0.600000000000001 1.03125  L 0.53125 1.1  C 0.118749999999999 1.5125  0.118749999999999 2.2  0.53125 2.68125  L 8.91875 11  L 0.53125 19.3875  C 0.118749999999999 19.8  0.118749999999999 20.4875  0.53125 20.96875  L 0.600000000000001 21.0375  C 1.0125 21.45  1.7 21.45  2.1125 21.0375  L 10.5 12.58125  L 18.8875 20.96875  C 19.3 21.38125  19.9875 21.38125  20.4 20.96875  L 20.46875 20.9  C 20.88125 20.4875  20.88125 19.8  20.46875 19.31875  Z " fill-rule="nonzero" fill="#ffffff" stroke="none" transform="matrix(1 0 0 1 803 650 )" />
  </g>
</svg>