<?xml version="1.0" encoding="utf-8"?>
<svg version="1.1" xmlns:xlink="http://www.w3.org/1999/xlink" width="12px" height="12px" viewBox="371 467  12 12" xmlns="http://www.w3.org/2000/svg">
  <path d="M 377 467  C 380.36 467  383 469.64  383 473  C 383 476.36  380.36 479  377 479  C 373.64 479  371 476.36  371 473  C 371 469.64  373.64 467  377 467  Z " fill-rule="nonzero" fill="#f0f0f0" stroke="none" />
  <path d="M 377 467.5  C 380.08 467.5  382.5 469.92  382.5 473  C 382.5 476.08  380.08 478.5  377 478.5  C 373.92 478.5  371.5 476.08  371.5 473  C 371.5 469.92  373.92 467.5  377 467.5  Z " stroke-width="1" stroke="#797979" fill="none" />
  <path d="M 377 476  C 375.32 476  374 474.68  374 473  C 374 471.32  375.32 470  377 470  C 378.68 470  380 471.32  380 473  C 380 474.68  378.68 476  377 476  " fill-rule="nonzero" fill="#797979" stroke="none" />
</svg>