<svg t="1611026709952" class="icon" viewBox="0 0 1024 1024" version="1.1" xmlns="http://www.w3.org/2000/svg" p-id="12751" width="200" height="200"><path d="M281.6 256c0 93.866667 68.266667 170.666667 153.6 170.666667s153.6-76.8 153.6-170.666667-68.266667-170.666667-153.6-170.666667c-83.2 0-153.6 76.8-153.6 170.666667z m480 548.266667c-10.666667-27.733333-36.266667-108.8-61.866667-108.8-27.733333 0-29.866667 10.666667-29.866666 10.666666l29.866666 83.2-151.466666-14.933333-64-160c-61.866667-164.266667-123.733333-181.333333-185.6-181.333333-29.866667 0-91.733333 4.266667-138.666667 68.266666C115.2 565.333333 85.333333 919.466667 85.333333 919.466667h288L268.8 704l42.666667-29.866667s8.533333 17.066667 57.6 132.266667c51.2 115.2 85.333333 130.133333 85.333333 130.133333H725.333333c40.533333 0 72.533333-12.8 72.533334-68.266666 2.133333-53.333333-36.266667-64-36.266667-64z m0 0" fill="#0275D8" p-id="12752"></path><path d="M659.2 486.4s-27.733333 55.466667-49.066667 81.066667c-21.333333 23.466667-66.133333 85.333333-32 134.4l100.266667-170.666667 206.933333 98.133333-76.8 119.466667s-10.666667 46.933333 4.266667 49.066667c14.933333 2.133333 125.866667-187.733333 125.866667-187.733334l-279.466667-123.733333z m0 0" fill="#0275D8" p-id="12753"></path></svg>