<svg t="1611026344527" class="icon" viewBox="0 0 1024 1024" version="1.1" xmlns="http://www.w3.org/2000/svg" p-id="6698" width="200" height="200"><path d="M987.428571 1024H146.285714a146.285714 146.285714 0 0 1-146.285714-146.285714V36.571429a36.571429 36.571429 0 1 1 73.142857 0V877.714286a73.142857 73.142857 0 0 0 73.142857 73.142857h841.142857a36.571429 36.571429 0 1 1 0 73.142857z" fill="#e98f36" p-id="6699"></path><path d="M253.513143 364.105143a43.885714 43.885714 0 1 1-68.169143-55.296L333.970286 125.805714a52.662857 52.662857 0 0 1 74.093714-7.68l2.486857 2.121143 175.104 161.133714 189.220572-168.448a43.885714 43.885714 0 0 1 58.368 65.536L620.251429 368.128a52.662857 52.662857 0 0 1-70.656-0.585143L378.587429 210.212571l-125.074286 153.892572z" fill="#e98f36" p-id="6700"></path><path d="M482.742857 439.076571m43.885714 0l0 0q43.885714 0 43.885715 43.885715l0 350.866285q0 43.885714-43.885715 43.885715l0 0q-43.885714 0-43.885714-43.885715l0-350.866285q0-43.885714 43.885714-43.885715Z" fill="#e98f36" p-id="6701"></path><path d="M746.057143 585.289143m43.885714 0l0 0q43.885714 0 43.885714 43.885714l0 204.653714q0 43.885714-43.885714 43.885715l0 0q-43.885714 0-43.885714-43.885715l0-204.653714q0-43.885714 43.885714-43.885714Z" fill="#e98f36" p-id="6702"></path><path d="M219.428571 585.289143m43.885715 0l0 0q43.885714 0 43.885714 43.885714l0 204.653714q0 43.885714-43.885714 43.885715l0 0q-43.885714 0-43.885715-43.885715l0-204.653714q0-43.885714 43.885715-43.885714Z" fill="#e98f36" p-id="6703"></path></svg>