<svg t="1611034610103" class="icon" viewBox="0 0 1024 1024" version="1.1" xmlns="http://www.w3.org/2000/svg" p-id="14989" width="200" height="200"><path d="M512 64C264.6 64 64 264.6 64 512s200.6 448 448 448 448-200.6 448-448S759.4 64 512 64z m0 853.3c-223.9 0-405.3-181.5-405.3-405.3 0-223.9 181.5-405.3 405.3-405.3 223.9 0 405.3 181.5 405.3 405.3 0 223.9-181.4 405.3-405.3 405.3z" fill="#e0620d" p-id="14990"></path><path d="M544 712.6a64.158 64.158 0 0 0-64 0c-19.8 11.4-32 32.6-32 55.4 0 35.3 28.7 64 64 64s64-28.7 64-64c0-22.9-12.2-44-32-55.4zM512 192c-22.6 0-44.3 9-60.3 25s-25 37.7-25 60.3c0 22.6 64 361.2 64 362.7 0 5.7 2.2 11.1 6.3 15.1 4 4 9.4 6.2 15.1 6.2 11.5-0.6 20.7-9.8 21.3-21.3l64-362.7c0-22.6-9-44.3-25-60.3-16.1-16-37.8-25-60.4-25z" fill="#e0620d" p-id="14991"></path></svg>