<?xml version="1.0" encoding="utf-8"?>
<svg version="1.1" xmlns:xlink="http://www.w3.org/1999/xlink" width="358px" height="499px" xmlns="http://www.w3.org/2000/svg">
  <g transform="matrix(1 0 0 1 -552 -142 )">
    <path d="M 552 142  L 910 142  L 910 641  L 552 641  L 552 142  " fill-rule="nonzero" fill="#cccccc" stroke="none" />
    <path d="M 577 167  L 885 167  L 885 616  L 577 616  L 577 167  " fill-rule="nonzero" fill="#ffffff" stroke="none" />
    <path d="M 765.01 270.55  C 749.974 270.55  738.16 258.736  738.16 243.7  C 738.16 228.664  749.974 216.85  765.01 216.85  C 780.046 216.85  791.86 228.664  791.86 243.7  C 791.86 258.736  780.046 270.55  765.01 270.55  " fill-rule="nonzero" fill="#cccccc" stroke="none" />
    <path d="M 586 607  L 586 369.95  L 658.5 262.2  L 760 348.4  L 818 326.85  L 876 348.4  L 876 607  L 586 607  " fill-rule="nonzero" fill="#169bd5" stroke="none" />
  </g>
</svg>