<?xml version="1.0" encoding="utf-8"?>
<svg version="1.1" xmlns:xlink="http://www.w3.org/1999/xlink" width="14px" height="13px" xmlns="http://www.w3.org/2000/svg">
  <g transform="matrix(1 0 0 1 -94 -6 )">
    <path d="M 1.12 0.0638036809815952  L 1.968 0.0638036809815952  C 2.26666666666667 0.0638036809815952  2.52 0.164826175869121  2.728 0.366871165644172  C 2.936 0.568916155419223  3.04 0.818813905930471  3.04 1.11656441717791  L 3.04 1.93006134969325  C 3.04 2.2278118609407  2.936 2.48036809815951  2.728 2.68773006134969  C 2.52 2.89509202453988  2.26666666666667 2.99877300613497  1.968 2.99877300613497  L 1.12 2.99877300613497  C 0.832 2.99877300613497  0.584 2.89509202453988  0.376 2.68773006134969  C 0.168 2.48036809815951  0.0640000000000001 2.2278118609407  0.0640000000000001 1.93006134969325  L 0.0640000000000001 1.11656441717791  C 0.0640000000000001 0.818813905930471  0.168 0.568916155419223  0.376 0.366871165644172  C 0.584 0.164826175869121  0.832 0.0638036809815952  1.12 0.0638036809815952  Z M 6.112 0.0638036809815952  L 12.944 0.0638036809815952  C 13.232 0.0638036809815952  13.48 0.164826175869121  13.688 0.366871165644172  C 13.896 0.568916155419223  14 0.818813905930471  14 1.11656441717791  L 14 1.93006134969325  C 14 2.2278118609407  13.896 2.48036809815951  13.688 2.68773006134969  C 13.48 2.89509202453988  13.232 2.99877300613497  12.944 2.99877300613497  L 6.112 2.99877300613497  C 5.81333333333333 2.99877300613497  5.56 2.89509202453988  5.352 2.68773006134969  C 5.144 2.48036809815951  5.04 2.2278118609407  5.04 1.93006134969325  L 5.04 1.11656441717791  C 5.04 0.818813905930471  5.144 0.568916155419223  5.352 0.366871165644172  C 5.56 0.164826175869121  5.81333333333334 0.0638036809815952  6.112 0.0638036809815952  Z M 1.12 5.02453987730061  L 1.968 5.02453987730061  C 2.26666666666667 5.02453987730061  2.52 5.12822085889571  2.728 5.33558282208589  C 2.936 5.54294478527607  3.04 5.79550102249489  3.04 6.09325153374233  L 3.04 6.90674846625767  C 3.04 7.19386503067485  2.936 7.44110429447853  2.728 7.64846625766871  C 2.52 7.8558282208589  2.26666666666667 7.95950920245399  1.968 7.95950920245399  L 1.12 7.95950920245399  C 0.832 7.95950920245399  0.584 7.8558282208589  0.376 7.64846625766871  C 0.168 7.44110429447853  0.0640000000000001 7.19386503067485  0.0640000000000001 6.90674846625767  L 0.0640000000000001 6.09325153374233  C 0.0640000000000001 5.79550102249489  0.168 5.54294478527607  0.376 5.33558282208589  C 0.584 5.12822085889571  0.832 5.02453987730062  1.12 5.02453987730061  Z M 6.112 5.02453987730061  L 12.944 5.02453987730061  C 13.232 5.02453987730061  13.48 5.12822085889571  13.688 5.33558282208589  C 13.896 5.54294478527607  14 5.79550102249489  14 6.09325153374233  L 14 6.90674846625767  C 14 7.19386503067485  13.896 7.44110429447853  13.688 7.64846625766871  C 13.48 7.8558282208589  13.232 7.95950920245399  12.944 7.95950920245399  L 6.112 7.95950920245399  C 5.81333333333333 7.95950920245399  5.56 7.8558282208589  5.352 7.64846625766871  C 5.144 7.44110429447853  5.04 7.19386503067485  5.04 6.90674846625767  L 5.04 6.09325153374233  C 5.04 5.79550102249489  5.144 5.54294478527607  5.352 5.33558282208589  C 5.56 5.12822085889571  5.81333333333334 5.02453987730062  6.112 5.02453987730061  Z M 1.12 10.001226993865  L 1.968 10.001226993865  C 2.26666666666667 10.001226993865  2.52 10.1049079754601  2.728 10.3122699386503  C 2.936 10.5196319018405  3.04 10.7668711656442  3.04 11.0539877300613  L 3.04 11.8674846625767  C 3.04 12.1652351738241  2.936 12.4177914110429  2.728 12.6251533742331  C 2.52 12.8325153374233  2.26666666666667 12.9361963190184  1.968 12.9361963190184  L 1.12 12.9361963190184  C 0.832 12.9361963190184  0.584 12.8325153374233  0.376 12.6251533742331  C 0.168 12.4177914110429  0.0640000000000001 12.1652351738241  0.0640000000000001 11.8674846625767  L 0.0640000000000001 11.0539877300613  C 0.0640000000000001 10.7668711656442  0.168 10.5196319018405  0.376 10.3122699386503  C 0.584 10.1049079754601  0.832 10.001226993865  1.12 10.001226993865  Z M 6.112 10.001226993865  L 12.944 10.001226993865  C 13.232 10.001226993865  13.48 10.1049079754601  13.688 10.3122699386503  C 13.896 10.5196319018405  14 10.7668711656442  14 11.0539877300613  L 14 11.8674846625767  C 14 12.1652351738241  13.896 12.4177914110429  13.688 12.6251533742331  C 13.48 12.8325153374233  13.232 12.9361963190184  12.944 12.9361963190184  L 6.112 12.9361963190184  C 5.81333333333333 12.9361963190184  5.56 12.8325153374233  5.352 12.6251533742331  C 5.144 12.4177914110429  5.04 12.1652351738241  5.04 11.8674846625767  L 5.04 11.0539877300613  C 5.04 10.7668711656442  5.144 10.5196319018405  5.352 10.3122699386503  C 5.56 10.1049079754601  5.81333333333334 10.001226993865  6.112 10.001226993865  Z " fill-rule="nonzero" fill="#ffffff" stroke="none" transform="matrix(1 0 0 1 94 6 )" />
  </g>
</svg>