<?xml version="1.0" encoding="utf-8"?>
<svg version="1.1" xmlns:xlink="http://www.w3.org/1999/xlink" width="803px" height="448px" xmlns="http://www.w3.org/2000/svg">
  <g>
    <path d="M 1 6  A 5 5 0 0 1 6 1 L 797 1  A 5 5 0 0 1 802 6 L 802 442  A 5 5 0 0 1 797 447 L 6 447  A 5 5 0 0 1 1 442 L 1 6  Z " fill-rule="nonzero" fill="#ffffff" stroke="none" />
    <path d="M 0.5 6  A 5.5 5.5 0 0 1 6 0.5 L 797 0.5  A 5.5 5.5 0 0 1 802.5 6 L 802.5 442  A 5.5 5.5 0 0 1 797 447.5 L 6 447.5  A 5.5 5.5 0 0 1 0.5 442 L 0.5 6  Z " stroke-width="1" stroke="#797979" fill="none" stroke-opacity="0.392156862745098" />
  </g>
</svg>