<?xml version="1.0" encoding="utf-8"?>
<svg version="1.1" xmlns:xlink="http://www.w3.org/1999/xlink" width="18px" height="9px" xmlns="http://www.w3.org/2000/svg">
  <g transform="matrix(1 0 0 1 -295 -47 )">
    <path d="M 17.6980048864324 1.58197133964296  L 9.89943176272088 8.55842990657856  C 9.64785479934964 8.78296822435382  9.30645445030268 8.99147663545926  8.98299197224722 8.92731713403548  C 8.65955183258344 8.9754267914172  8.35407190248691 8.75088847364194  8.10251727750736 8.55842990657856  L 0.321904362994928 1.58197133964296  C -0.0734212913530759 1.22915389425745  -0.0734212913530759 0.6517781932316  0.321904362994928 0.298940809981016  C 0.717230017342932 -0.0538965732695679  1.36411029667048 -0.053876635404498  1.7594136126268 0.298940809981016  L 9.00097452020615 6.93861183803665  L 16.2604956371687 0.298960747681806  C 16.6557989529409 -0.0538766354044962  17.3027015708442 -0.0538766354044962  17.6980048864324 0.298960747681806  C 18.0933082020206 0.651798130768108  18.0933305407804 1.22915389409317  17.6980048864324 1.58197133964296  Z " fill-rule="nonzero" fill="#000000" stroke="none" fill-opacity="0.6" transform="matrix(1 0 0 1 295 47 )" />
  </g>
</svg>