<?xml version="1.0" encoding="utf-8"?>
<svg version="1.1" xmlns:xlink="http://www.w3.org/1999/xlink" width="12px" height="12px" viewBox="698 395.5  12 12" xmlns="http://www.w3.org/2000/svg">
  <path d="M 704 396  C 707.08 396  709.5 398.42  709.5 401.5  C 709.5 404.58  707.08 407  704 407  C 700.92 407  698.5 404.58  698.5 401.5  C 698.5 398.42  700.92 396  704 396  Z " fill-rule="nonzero" fill="#f0f0f0" stroke="none" />
  <path d="M 704 396  C 707.08 396  709.5 398.42  709.5 401.5  C 709.5 404.58  707.08 407  704 407  C 700.92 407  698.5 404.58  698.5 401.5  C 698.5 398.42  700.92 396  704 396  Z " stroke-width="1" stroke="#000000" fill="none" stroke-opacity="0.498039215686275" />
  <path d="M 704 404.5  C 702.32 404.5  701 403.18  701 401.5  C 701 399.82  702.32 398.5  704 398.5  C 705.68 398.5  707 399.82  707 401.5  C 707 403.18  705.68 404.5  704 404.5  " fill-rule="nonzero" fill="#000000" stroke="none" fill-opacity="0.498039215686275" />
</svg>