<?xml version="1.0" encoding="utf-8"?>
<svg version="1.1" xmlns:xlink="http://www.w3.org/1999/xlink" width="51px" height="81px" xmlns="http://www.w3.org/2000/svg">
  <g transform="matrix(1 0 0 1 -299 -88 )">
    <path d="M 324 88.5  C 329.32 88.5  333.5 92.68  333.5 98  C 333.5 103.32  329.32 107.5  324 107.5  C 318.68 107.5  314.5 103.32  314.5 98  C 314.5 92.68  318.68 88.5  324 88.5  Z " fill-rule="nonzero" fill="#ffffff" stroke="none" />
    <path d="M 324 88.5  C 329.32 88.5  333.5 92.68  333.5 98  C 333.5 103.32  329.32 107.5  324 107.5  C 318.68 107.5  314.5 103.32  314.5 98  C 314.5 92.68  318.68 88.5  324 88.5  Z " stroke-width="1" stroke="#797979" fill="none" />
    <path d="M 299 118  L 349 118  M 324 108  L 324 143  M 304 168  L 324 143  M 324 143  L 344 168  " stroke-width="1" stroke="#797979" fill="none" />
  </g>
</svg>