<?xml version="1.0" encoding="utf-8"?>
<svg version="1.1" xmlns:xlink="http://www.w3.org/1999/xlink" width="505px" height="84px" xmlns="http://www.w3.org/2000/svg">
  <g transform="matrix(1 0 0 1 -120 0 )">
    <path d="M 121 3  A 2 2 0 0 1 123 1 L 622 1  A 2 2 0 0 1 624 3 L 624 81  A 2 2 0 0 1 622 83 L 123 83  A 2 2 0 0 1 121 81 L 121 3  Z " fill-rule="nonzero" fill="#ffffff" stroke="none" />
    <path d="M 120.5 3  A 2.5 2.5 0 0 1 123 0.5 L 622 0.5  A 2.5 2.5 0 0 1 624.5 3 L 624.5 81  A 2.5 2.5 0 0 1 622 83.5 L 123 83.5  A 2.5 2.5 0 0 1 120.5 81 L 120.5 3  Z " stroke-width="1" stroke="#cccccc" fill="none" stroke-opacity="0.698039215686274" />
  </g>
</svg>