<?xml version="1.0" encoding="utf-8"?>
<svg version="1.1" xmlns:xlink="http://www.w3.org/1999/xlink" width="18px" height="16px" xmlns="http://www.w3.org/2000/svg">
  <g transform="matrix(1 0 0 1 -48 -178 )">
    <path d="M 10.8721258572005 15.7410375893135  C 10.6521043172765 15.8789385608931  10.3994400410701 15.9521802730365  10.1416700282372 15.9527803665735  C 9.87185424467237 15.9517131826574  9.60803388417816 15.8709620176267  9.38168616377572 15.7201615408512  L 5.37797498991529 13.112146629388  C 5.36006454215409 13.0992233612923  5.33973376361436 13.0858030444237  5.323759580476 13.0723827275551  C 5.17047234269786 12.9843025779395  4.99792095469902 12.9376134636348  4.82226704316257 12.9366884125505  L 2.03791851553046 12.9366884125505  C 0.914885034288019 12.9366884125505  0 11.8272755514135  0 10.4658589624107  L 0 5.53612923268096  C 0 4.17272444858652  0.914885034288019 3.06579683131407  2.03791851553046 3.06579683131407  L 4.82226704316257 3.06579683131407  C 5.02416793051988 3.06361805352525  5.22122600733267 3.00203535285879  5.39007664380799 2.8883504193849  L 9.39378781766841 0.279838459148804  C 9.84504756357971 -0.0222060591852482  10.4254784705096 -0.02994880708231  10.8842275110932 0.25995650823237  C 11.4317210466346 0.629284563181169  11.7536239197941 1.26364332705889  11.734731746672 1.93600497048773  L 11.7289229528036 4.79900590245418  L 11.7226300927793 14.0639950295123  C 11.7405444536681 14.7363951529981  11.4189146428939 15.370591737336  10.8721258572005 15.7410375893135  Z M 16.0453408632513 12.9232680956819  C 15.9177725944617 13.0670856816766  15.7371693360934 13.1491658333136  15.5477208551835 13.1494252873563  C 15.357787186094 13.1488062297706  15.1767202297081 13.0668342946757  15.0481645824929 12.9232680956819  C 14.7732430439047 12.614947589934  14.7732430439047 12.1420576912092  15.0481645824929 11.8337371854613  C 16.9845090496024 9.66441146877596  16.9845090496024 6.33509148245113  15.0481645824929 4.16576576576577  C 14.7732430439047 3.85744526001786  14.7732430439047 3.38455536129311  15.0481645824929 3.0762348555452  C 15.1764840460379 2.9331083566432  15.3572931420187 2.85167261274023  15.5467527228721 2.85167261274023  C 15.7362123037256 2.85167261274023  15.9170213997063 2.9331083566432  16.0453408632513 3.0762348555452  C 18.532678689689 5.86174221052809  18.532678689689 10.137760740699  16.0453408632513 12.9232680956819  Z M 13.1709560306575 11.3694936315626  L 15.5477208551835 13.1494252873563  L 13.1709560306575 11.3694936315626  C 12.9810960794913 11.3690025829746  12.8000404681791 11.2872159307887  12.6713997579669 11.1438334886611  C 12.3964782193787 10.8355129829132  12.3964782193787 10.3626230841884  12.6713997579669 10.0543025784405  C 13.7083933273273 8.89116546312042  13.7083933273273 7.10734339056085  12.6713997579669 5.94420627524076  C 12.3964782193787 5.63588576949285  12.3964782193787 5.1629958707681  12.6713997579669 4.85467536502019  C 12.7997192215119 4.71154886611819  12.9805283174926 4.63011312221522  13.1699878983461 4.63011312221522  C 13.3594474791996 4.63011312221522  13.5402565751803 4.71154886611819  13.6685760387253 4.85467536502019  C 15.2551830894397 6.63454510455537  15.2551830894397 9.36396374912589  13.6685760387253 11.1438334886611  C 13.5409218448171 11.2874671573553  13.3603301647512 11.3693616625396  13.1709560306575 11.3694936315626  Z " fill-rule="nonzero" fill="#ff8c29" stroke="none" transform="matrix(1 0 0 1 48 178 )" />
  </g>
</svg>