<?xml version="1.0" encoding="utf-8"?>
<svg version="1.1" xmlns:xlink="http://www.w3.org/1999/xlink" width="10px" height="10px" xmlns="http://www.w3.org/2000/svg">
  <g transform="matrix(1 0 0 1 -5 -5 )">
    <path d="M 4.00790938476563 9.6865540625  C 4.00790938476563 9.51371938476563  3.86827458007812 9.37408456054687  3.69543990234375 9.37408456054687  L 1.68977638671875 9.37408456054687  C 1.10291963867187 9.37408456054687  0.625427197265625 8.8956156640625  0.625427197265625 8.30778244140625  L 0.62542720703125 1.69612342773437  C 0.62542720703125 1.10829020507813  1.10291963867187 0.62982130859375  1.68977639648437 0.62982130859375  L 8.408846796875 0.62982130859375  C 8.90879796875 0.6796211328125  9.31989064453125 1.09266673828125  9.36969046875 1.59457084960938  L 9.36969045898438 4.05233864257812  C 9.36969045898438 4.22517333007812  9.50932526367188 4.364808125  9.68215994140625 4.364808125  C 9.85499461914063 4.364808125  9.99462942382813 4.2251733203125  9.99462942382813 4.05233864257812  L 9.99462943359375 2.00859291015625  L 9.99951176757813 2.00859291015625  L 9.99951176757813 1.69612342773437  C 9.99951176757813 1.24890147460938  9.8227712109375 0.825114736328125  9.50151352539062 0.501904111328125  C 9.17927936523438 0.178693486328125  8.75549262695312 0  8.30827067382813 0  L 7.99580119140625 0  L 7.99580119140625 0.004882333984375  L 1.68977638671875 0.004882333984375  C 0.75822673828125 0.004882333984375  0.000488232421875 0.7635973046875  0.000488232421875 1.69612342773437  L 0.000488232421875 8.30875891601563  C 0.000488232421875 8.75793379882813  0.176252314453125 9.18172053710937  0.4955570703125 9.50200176757812  C 0.815838291015625 9.82228298828125  1.23962502929687 9.99902354492188  1.688799921875 9.99902354492188  L 3.69543990234375 9.99902354492188  C 3.86827458984375 9.99902354492188  4.00790938476563 9.85938874023438  4.00790938476563 9.6865540625  Z M 3.24138264648438 4.81105361328125  C 3.45229958007812 4.5044429296875  3.69055755859375 4.21736158203125  3.95518015625 3.95371545898438  C 4.21784981445312 3.69104580078125  4.50297822265625 3.45181134765625  4.80861244140625 3.23796504882812  C 4.91211795898437 3.165706484375  5.00585880859375 3.143247734375  5.08104677734375 3.143247734375  C 5.14354067382812 3.143247734375  5.19334049804687 3.1588712109375  5.22458745117187 3.17351821289062  C 5.34469291015625 3.33463529296875  5.46479836914062 3.49770530273437  5.58002149414062 3.65784591796875  C 5.58002149414062 3.66565765625  5.58392736328125 3.66858706054687  5.59076263671875 3.6724929296875  C 5.63860953125 3.7388926953125  5.69622108398437 3.79455131835937  5.76066791992187 3.83556293945313  C 5.7645737890625 3.83946880859375  5.7714090625 3.84337467773437  5.77726786132812 3.84630408203125  C 5.84562055664062 3.89122157226562  5.92862026367187 3.91660971679688  6.014549375 3.93125671875  C 6.04481985351562 3.93418612304687  6.0741138671875 3.93613905273438  6.10340788085937 3.93613905273438  C 6.16004297851562 3.93613905273438  6.2157016015625 3.93028025390625  6.26940729492187 3.91660970703125  C 6.341665859375 3.89610389648438  6.41197149414062 3.86290401367188  6.474465390625 3.81505712890625  C 6.48520653320312 3.81115125976562  6.48911240234375 3.807245390625  6.49497120117187 3.80236305664063  C 6.92559321289062 3.46938776367188  7.35133288085937 3.13641247070312  7.78293135742187 2.80343716796875  C 7.94014256835937 2.64817889648438  8.01630700195312 2.55932038085938  8.02509520507812 2.32985060546875  C 8.02900107421875 2.24489796875  8.01728346679687 2.15994532226563  7.99189532226562 2.08182794921875  C 7.98408358398437 2.07206328125  7.98408358398437 2.0671809375  7.9811541796875 2.05936920898437  C 7.947954296875 1.97832243164062  7.89229567382812 1.90020506835938  7.82589590820312 1.83380530273438  C 7.74289620117187 1.75959379882812  7.64134362304687 1.67659409179688  7.51733229492187 1.60238258789063  C 7.39527390625 1.5301240234375  7.25075676757812 1.46177131835938  7.0828044140625 1.40415975585938  C 6.76447612304688 1.29870129882812  6.43540669921875 1.24987793945312  6.1043843359375 1.24987793945312  C 5.70110340820313 1.24987793945312  5.29391661132813 1.32213650390625  4.89649448242188 1.4539595703125  C 4.12899130859375 1.71174689453125  3.39371155273437 2.18826286132812  2.78927838867188 2.78976662109375  C 2.18777462890625 3.39517625  1.71028219726563 4.125573671875  1.45347133789063 4.89405331054687  C 1.215213359375 5.6195683984375  1.17029586914063 6.37828336914063  1.40562444335938 7.08133970703125  C 1.45737719726563 7.2483155859375  1.52572990234375 7.38502098632812  1.59798846679688 7.50122057617187  C 1.6018943359375 7.50903231445313  1.6018943359375 7.5139146484375  1.603847265625 7.51782051757813  C 1.67610583007813 7.63987890625  1.75715260742188 7.74338442382813  1.83526998046875 7.82540766601563  C 1.89776387695313 7.89376036132813  1.9778341796875 7.9474660546875  2.06083388671875 7.98261887695313  L 2.06083388671875 7.98066594726563  C 2.135045390625 8.01386583007813  2.2170686328125 8.0275363671875  2.29909186523438 8.0275363671875  C 2.30885653320313 8.0275363671875  2.3186212109375 8.0275363671875  2.32838587890625 8.02655990234375  C 2.42310319335938 8.02265403320313  2.51196169921875 7.99726588867188  2.5930084765625 7.95820720703125  C 2.66721998046875 7.92110145507813  2.73166680664063 7.86934870117188  2.7853725 7.80099599609375  C 2.78927836914063 7.79513719726563  2.80001951171875 7.78830192382812  2.80392537109375 7.7843960546875  C 3.1369006640625 7.3547505078125  3.46987595703125 6.92412850585938  3.80285125976563 6.4964358984375  L 3.798945390625 6.4964358984375  C 3.85069814453125 6.428083203125  3.88780389648438 6.35973049804687  3.91221557617188 6.28551899414063  C 3.91416850585937 6.281613125  3.9161214453125 6.2747778515625  3.9161214453125 6.27087198242188  C 3.93662725585938 6.192754609375  3.940533125 6.11170784179687  3.93076845703125 6.024802265625  C 3.93076845703125 6.0228493359375  3.93076845703125 6.01894346679688  3.93076845703125 6.0160140625  C 3.92002731445313 5.93106142578125  3.88780390625 5.84708524414062  3.84386288085938 5.77775608398438  C 3.798945390625 5.70549751953125  3.74523969726563 5.64300362304688  3.67395759765625 5.5892979296875  C 3.67395759765625 5.591250859375  3.67395759765625 5.591250859375  3.67395759765625 5.591250859375  C 3.50698171875 5.46919247070313  3.3409823046875 5.34713407226563  3.17302995117188 5.22507568359375  C 3.14178299804688 5.15672298828125  3.10858311523438 5.00341764648438  3.24138264648438 4.81105361328125  Z M 2.72776098632812 4.4507372265625  C 2.503173515625 4.77687725585937  2.45727956054688 5.1616053125  2.60472610351562 5.48383947265625  L 2.67307879882813 5.63226248046875  L 2.80587833007813 5.72795625976562  C 2.97773654296875 5.85294405273438  3.1515476953125 5.97988478515625  3.30485303710938 6.09217850585938  L 3.30680596679688 6.09315497070313  C 3.30875889648438 6.096084375  3.3107118359375 6.0980373046875  3.31168830078125 6.10096670898438  C 3.31168830078125 6.10194317382813  3.31168830078125 6.10389611328125  3.31168830078125 6.104872578125  C 3.30875889648438 6.10877844726563  3.30582950195313 6.11366078125  3.3019236328125 6.11854311523438  L 3.17107703125 6.29137780273438  C 2.99043060546875 6.52377698242188  2.80978418945312 6.75715262695313  2.6330436328125 6.98466947265625  C 2.53637338867188 7.109657265625  2.43970313476563 7.23464505859375  2.343032890625 7.35865638671875  C 2.33131528320313 7.37037399414063  2.3186212109375 7.38502099609375  2.30592713867187 7.40064447265625  C 2.30495067382812 7.40064447265625  2.30397420898437 7.40064447265625  2.30397420898437 7.40064447265625  C 2.30299774414063 7.40064447265625  2.3010448046875 7.40064447265625  2.30006833984375 7.40064447265625  L 2.29323307617187 7.39771506835937  L 2.29128014648437 7.39576213867188  L 2.2863978125 7.3908798046875  C 2.25417439453125 7.357679921875  2.20925690429688 7.30495069335938  2.16336294921875 7.23366859375  C 2.16141001953125 7.22878625976562  2.15848061523437 7.22390392578125  2.15652767578125 7.21902158203125  L 2.14383360351562 7.1936334375  L 2.12918659179687 7.1692217578125  C 2.07352796875 7.0784103125  2.03251634765625 6.99052827148437  2.002245859375 6.89288155273437  L 2.0002929296875 6.88604627929687  L 1.99834 6.87921100585938  C 1.9075285546875 6.608729609375  1.8674933984375 6.31676592773437  1.87628161132812 6.01210818359375  C 1.88604627929687 5.71330923828125  1.94268137695312 5.40279268554687  2.04618689453125 5.08739379882813  C 2.1555512109375 4.75930083984375  2.31471536132812 4.43218434570313  2.5187969921875 4.1138560546875  C 2.71994921875 3.80041009765625  2.959183671875 3.50258762695312  3.2316180078125 3.22820036132812  C 3.50502880859375 2.9567425  3.8028512890625 2.717508046875  4.11825017578125 2.51635581054687  C 4.43755493164062 2.31325064453125  4.765647890625 2.15408650390625  5.09471731445313 2.04374571289062  C 5.43941021484375 1.9324284765625  5.77922078125 1.8748169140625  6.1043843359375 1.8748169140625  C 6.376818671875 1.8748169140625  6.63851186523437 1.91582853515625  6.8836051171875 1.99589883789063  C 6.99785177734375 2.03495751953125  7.10331022460938 2.0828044140625  7.1980275390625 2.13846303710937  C 7.27419197265625 2.1843569921875  7.34156821289063 2.23806268554687  7.39332096679688 2.283956640625  C 7.3972268359375 2.28786250976562  7.40015624023437 2.29176837890625  7.40210916992188 2.29469778320313  C 7.40210916992188 2.29665071289063  7.40210916992188 2.2976271875  7.40210916992188 2.2995801171875  C 7.39429743164063 2.3083683203125  7.38355629882813 2.31910946289063  7.37086221679688 2.33180353515625  C 7.15603944335938 2.49780294921875  6.93926374023437 2.66575529296875  6.73029977539062 2.8288253125  C 6.55258275390625 2.96748364257813  6.36900693359375 3.1100478515625  6.186407578125 3.25065912109375  L 6.18152524414062 3.25261205078125  L 6.10536081054688 3.311200078125  C 6.10340788085937 3.311200078125  6.10340788085937 3.311200078125  6.10243141601562 3.311200078125  L 6.10145495117187 3.31022361328125  C 6.10047848632812 3.3092471484375  6.10047848632812 3.30827068359375  6.09950202148437 3.30729420898437  L 6.005761171875 3.17644760742188  C 5.921785 3.06122448242188  5.82999708984375 2.93721315429687  5.72649157226562 2.79855482421875  L 5.6317742578125 2.67161409179687  L 5.48725711914062 2.60521432617188  C 5.36324579101562 2.54857922851563  5.22361098632812 2.51830875  5.08202325195312 2.51830875  C 4.863294609375 2.51830875  4.64554244140625 2.58959084960938  4.45122547851562 2.72531978515625  C 4.1133678515625 2.96162483398437  3.7989454296875 3.22527095703125  3.51381703125 3.51039936523438  C 3.22673569335937 3.797480703125  2.96211309570312 4.1138560546875  2.72776098632812 4.4507372265625  Z M 9.9985353125 6.96904598632812  C 9.99951176757813 6.88018748046875  9.92627672851562 6.80695244140625  9.83741822265625 6.80695244140625  L 9.3491846484375 6.80695244140625  C 9.30426715820312 6.64583536132812  9.240796796875 6.49253001953125  9.16072649414062 6.3499658203125  L 9.50541939453125 6.00527291992187  C 9.56888975585937 5.94180255859375  9.56888975585937 5.83927350585937  9.50541939453125 5.77580314453125  L 8.948833125 5.219216875  C 8.917586171875 5.187969921875  8.8755980859375 5.17234645507813  8.83458646484375 5.17234645507813  C 8.79259837890625 5.17234645507813  8.7515867578125 5.18796993164062  8.7203398046875 5.219216875  L 8.37564690429688 5.56390977539063  C 8.23308270507813 5.48383947265625  8.07977736328125 5.4203691015625  7.91866028320313 5.37545162109375  L 7.91866028320313 4.887218046875  C 7.91866028320313 4.79835954101562  7.84542524414063 4.72512450195312  7.75656673828125 4.72512450195312  L 6.96953421875 4.72512450195312  C 6.88067571289062 4.72512450195312  6.80744067382812 4.79835954101562  6.80744067382812 4.887218046875  L 6.80744067382812 5.37545162109375  C 6.64632359375 5.42036911132812  6.49301825195312 5.48383947265625  6.35045405273437 5.56390977539063  L 6.00576115234375 5.22019333984375  C 5.97451419921875 5.18894638671875  5.93252611328125 5.17332291992187  5.8915144921875 5.17332291992187  C 5.85050287109375 5.17332291992187  5.80851478515625 5.18894639648437  5.77726783203125 5.22019333984375  L 5.2206815625 5.776779609375  C 5.15818766601563 5.84024997070312  5.15818766601563 5.9427790234375  5.2206815625 6.00624938476562  L 5.56537446289063 6.35094228515625  C 5.48530416015625 6.493506484375  5.4218337890625 6.64681182617187  5.37691630859375 6.80792890625  L 4.888682734375 6.80792890625  C 4.79982422851563 6.80792890625  4.72658918945313 6.8811639453125  4.72658918945313 6.97002245117187  L 4.72658918945313 7.75705497070312  C 4.72658918945313 7.8459134765625  4.79982422851563 7.919148515625  4.888682734375 7.919148515625  L 5.37691630859375 7.919148515625  C 5.42183379882813 8.08026559570312  5.48530416015625 8.2335709375  5.56537446289063 8.37613513671875  L 5.21970510742188 8.71985157226563  C 5.1572112109375 8.78332193359375  5.1572112109375 8.88585098632812  5.21970510742188 8.94932134765625  L 5.77629137695312 9.5059076171875  C 5.80753833007812 9.5371545703125  5.84952641601562 9.55277803710937  5.89053803710937 9.55277803710937  C 5.93154965820312 9.55277803710937  5.97353774414063 9.53715456054687  6.00478469726562 9.5059076171875  L 6.34947759765625 9.16121471679687  C 6.492041796875 9.24128501953125  6.64534713867187 9.304755390625  6.80646421875 9.34967287109375  L 6.80646421875 9.8379064453125  C 6.80646421875 9.92676495117187  6.8796992578125 9.99999999023438  6.96855776367187 9.99999999023438  L 7.75559028320312 9.99999999023438  C 7.8444487890625 9.99999999023438  7.917683828125 9.92676495117187  7.917683828125 9.8379064453125  L 7.917683828125 9.34967287109375  C 8.07880090820312 9.30475538085938  8.23210625 9.24128501953125  8.37467044921875 9.16121471679687  L 8.71936334960937 9.5059076171875  C 8.75061030273437 9.5371545703125  8.79259838867188 9.55277803710937  8.83361000976562 9.55277803710937  C 8.87559809570312 9.55277803710937  8.91660971679687 9.53715456054687  8.94785666992187 9.5059076171875  L 9.50444293945312 8.94932134765625  C 9.56791330078125 8.88585098632812  9.56791330078125 8.78332193359375  9.50444293945312 8.71985157226563  L 9.1597500390625 8.375158671875  C 9.23982034179688 8.23259447265625  9.30329071289063 8.07928913085937  9.34820819335938 7.91817205078125  L 9.83644176757812 7.91817205078125  C 9.9253002734375 7.91817205078125  9.9985353125 7.84493701171875  9.9985353125 7.75607850585937  L 9.9985353125 6.96904598632812  Z M 8.85704520507812 7.36353872070312  L 8.74768088867187 7.751196171875  C 8.71643393554687 7.86348989257812  8.67249291992188 7.97090127929688  8.61683428710938 8.06952446289062  L 8.41861145507812 8.42007616210937  L 8.06805975585938 8.61829899414062  C 7.96943657226563 8.6739576171875  7.86300166015625 8.71789864257812  7.74973146484375 8.74914559570312  L 7.36207401367188 8.85655697265625  L 6.9744165625 8.74816912109375  C 6.86212284179688 8.71692216796875  6.75471145507813 8.67298115234375  6.65608827148438 8.61732251953125  L 6.30553657226563 8.4190996875  L 6.10731374023438 8.06854798828125  C 6.0516551171875 7.9699248046875  6.00771409179688 7.86348989257813  5.97646713867188 7.75021969726562  L 5.86905575195313 7.36353872070313  L 5.97744360351563 6.97588126953125  C 6.00869055664063 6.86358754882812  6.05263157226563 6.75617616210937  6.10829020507813 6.65755297851562  L 6.30651303710937 6.30700127929688  L 6.65706473632812 6.10877844726563  C 6.75568791992187 6.05311982421875  6.86212283203125 6.00917879882813  6.97539302734375 5.97793184570313  L 7.36305047851562 5.86954399414063  L 7.7507079296875 5.97793184570313  C 7.86300165039063 6.00917879882813  7.97041303710937 6.05311981445313  8.06903622070312 6.10877844726563  L 8.41958791992187 6.30700127929688  L 8.61781075195312 6.65755297851562  C 8.673469375 6.75617616210937  8.71741040039062 6.86261107421875  8.74865735351562 6.97588126953125  L 8.85704520507812 7.36353872070312  Z M 8.35123522460938 7.3635387109375  C 8.351235234375 6.81671711914063  7.90889561523437 6.3743775  7.36207401367188 6.3743775  C 6.81622887695313 6.3743775  6.37291280273438 6.81671711914063  6.37291280273438 7.3635387109375  C 6.37291280273438 7.90938384765625  6.815252421875 8.352699921875  7.36207401367188 8.352699921875  C 7.90791915039063 8.352699921875  8.35123522460938 7.91036030273438  8.35123522460938 7.3635387109375  Z M 7.72629625976563 7.36256224609375  C 7.72629625976563 7.56371448242187  7.56322625 7.7267844921875  7.36207401367188 7.7267844921875  C 7.16092178710938 7.7267844921875  6.99785176757812 7.56371448242187  6.99785176757812 7.36256224609375  C 6.99785176757812 7.16141000976562  7.16092177734375 6.99834  7.36207401367188 6.99834  C 7.56322625 6.99834  7.72629625976563 7.16141000976562  7.72629625976563 7.36256224609375  Z " fill-rule="nonzero" fill="#ffffff" stroke="none" transform="matrix(1 0 0 1 5 5 )" />
  </g>
</svg>