<?xml version="1.0" encoding="utf-8"?>
<svg version="1.1" xmlns:xlink="http://www.w3.org/1999/xlink" width="176px" height="140px" xmlns="http://www.w3.org/2000/svg">
  <g transform="matrix(1 0 0 1 1 0 )">
    <path d="M 0 6  A 5 5 0 0 1 5 1 L 169 1  A 5 5 0 0 1 174 6 L 174 134  A 5 5 0 0 1 169 139 L 5 139  A 5 5 0 0 1 0 134 L 0 6  Z " fill-rule="nonzero" fill="#ffffff" stroke="none" />
    <path d="M -0.5 6  A 5.5 5.5 0 0 1 5 0.5 L 169 0.5  A 5.5 5.5 0 0 1 174.5 6 L 174.5 134  A 5.5 5.5 0 0 1 169 139.5 L 5 139.5  A 5.5 5.5 0 0 1 -0.5 134 L -0.5 6  Z " stroke-width="1" stroke="#797979" fill="none" stroke-opacity="0.392156862745098" />
  </g>
</svg>