<?xml version="1.0" encoding="utf-8"?>
<svg version="1.1" xmlns:xlink="http://www.w3.org/1999/xlink" width="148px" height="26px" xmlns="http://www.w3.org/2000/svg">
  <g transform="matrix(1 0 0 1 -42 0 )">
    <path d="M 43 3  A 2 2 0 0 1 45 1 L 187 1  A 2 2 0 0 1 189 3 L 189 23  A 2 2 0 0 1 187 25 L 45 25  A 2 2 0 0 1 43 23 L 43 3  Z " fill-rule="nonzero" fill="#ffffff" stroke="none" />
    <path d="M 42.5 3  A 2.5 2.5 0 0 1 45 0.5 L 187 0.5  A 2.5 2.5 0 0 1 189.5 3 L 189.5 23  A 2.5 2.5 0 0 1 187 25.5 L 45 25.5  A 2.5 2.5 0 0 1 42.5 23 L 42.5 3  Z " stroke-width="1" stroke="#797979" fill="none" stroke-opacity="0.392156862745098" />
  </g>
</svg>