<?xml version="1.0" encoding="utf-8"?>
<svg version="1.1" xmlns:xlink="http://www.w3.org/1999/xlink" width="5px" height="3px" xmlns="http://www.w3.org/2000/svg">
  <defs>
    <mask fill="white" id="clip106">
      <path d="M 4.9072265625 0.0989583333333335  C 4.96907552083333 0.164930555555555  5 0.243055555555555  5 0.333333333333333  C 5 0.423611111111111  4.96907552083333 0.501736111111111  4.9072265625 0.567708333333333  L 2.7197265625 2.90104166666667  C 2.65787760416667 2.96701388888889  2.58463541666667 3  2.5 3  C 2.41536458333333 3  2.34212239583333 2.96701388888889  2.2802734375 2.90104166666667  L 0.0927734375 0.567708333333333  C 0.0309244791666667 0.501736111111111  0 0.423611111111111  0 0.333333333333333  C 0 0.243055555555555  0.0309244791666667 0.164930555555555  0.0927734375 0.0989583333333335  C 0.154622395833333 0.0329861111111107  0.227864583333333 0  0.3125 0  L 4.6875 0  C 4.77213541666667 0  4.84537760416667 0.0329861111111107  4.9072265625 0.0989583333333335  Z " fill-rule="evenodd" />
    </mask>
  </defs>
  <g transform="matrix(1 0 0 1 -149 -10 )">
    <path d="M 4.9072265625 0.0989583333333335  C 4.96907552083333 0.164930555555555  5 0.243055555555555  5 0.333333333333333  C 5 0.423611111111111  4.96907552083333 0.501736111111111  4.9072265625 0.567708333333333  L 2.7197265625 2.90104166666667  C 2.65787760416667 2.96701388888889  2.58463541666667 3  2.5 3  C 2.41536458333333 3  2.34212239583333 2.96701388888889  2.2802734375 2.90104166666667  L 0.0927734375 0.567708333333333  C 0.0309244791666667 0.501736111111111  0 0.423611111111111  0 0.333333333333333  C 0 0.243055555555555  0.0309244791666667 0.164930555555555  0.0927734375 0.0989583333333335  C 0.154622395833333 0.0329861111111107  0.227864583333333 0  0.3125 0  L 4.6875 0  C 4.77213541666667 0  4.84537760416667 0.0329861111111107  4.9072265625 0.0989583333333335  Z " fill-rule="nonzero" fill="#ffffff" stroke="none" transform="matrix(1 0 0 1 149 10 )" />
    <path d="M 4.9072265625 0.0989583333333335  C 4.96907552083333 0.164930555555555  5 0.243055555555555  5 0.333333333333333  C 5 0.423611111111111  4.96907552083333 0.501736111111111  4.9072265625 0.567708333333333  L 2.7197265625 2.90104166666667  C 2.65787760416667 2.96701388888889  2.58463541666667 3  2.5 3  C 2.41536458333333 3  2.34212239583333 2.96701388888889  2.2802734375 2.90104166666667  L 0.0927734375 0.567708333333333  C 0.0309244791666667 0.501736111111111  0 0.423611111111111  0 0.333333333333333  C 0 0.243055555555555  0.0309244791666667 0.164930555555555  0.0927734375 0.0989583333333335  C 0.154622395833333 0.0329861111111107  0.227864583333333 0  0.3125 0  L 4.6875 0  C 4.77213541666667 0  4.84537760416667 0.0329861111111107  4.9072265625 0.0989583333333335  Z " stroke-width="2" stroke="#999999" fill="none" transform="matrix(1 0 0 1 149 10 )" mask="url(#clip106)" />
  </g>
</svg>