<?xml version="1.0" encoding="utf-8"?>
<svg version="1.1" xmlns:xlink="http://www.w3.org/1999/xlink" width="10px" height="10px" xmlns="http://www.w3.org/2000/svg">
  <g transform="matrix(1 0 0 1 -492 -33 )">
    <path d="M 2.10213416673148 0.985638027123918  C 2.78282743603702 0.503317653425088  3.58856621821293 0.195073307446098  4.42079980947197 0.100812717870841  C 5.39417386655261 -0.0115654791860888  6.39973784897737 0.163245047433223  7.27208501827514 0.606392210570833  C 8.04489102962906 0.997389990292288  8.71196549109573 1.59061958247229  9.1854051248153 2.30993798579406  C 9.59817911579438 2.93401649330552  9.86436509448635 3.65162107226959  9.95548736293647 4.39175027133534  C 10.0627046037795 5.2432783227766  9.94360185473209 6.12271731317461  9.606102768489 6.91377170519314  C 9.19530970526479 7.8847781161273  8.46014114627887 8.71794371430494  7.54248046115561 9.25192377985602  C 6.90759594447469 9.62504877865457  6.18654143012676 9.85617083630492  5.45038243642585 9.91835833930854  C 4.58051139279882 9.9976841243356  3.69008832335329 9.84564302515355  2.89821597713664 9.48059751424919  C 2.17443770899759 9.14713539835257  1.53336281981492 8.64033175363558  1.04630435881484 8.01429459520766  C 0.515665701065404 7.33537357368729  0.168757271171944 6.51714276083467  0.0551020491484586 5.66634918906969  C -0.0684577727661532 4.76242692765352  0.0640161754413284 3.82496260108995  0.442124095963919 2.99253150181178  C 0.801908507660008 2.19315279534029  1.38231775410219 1.49366584308109  2.10213416673148 0.985638027123918  Z M 7.88592229178009 3.7040152630213  C 7.9876920055992 3.34900787170442  7.581603623921 2.97955536740323  7.23271426627265 3.11984450341692  C 7.13441117116417 3.15240724310608  7.06012670114317 3.22659155506002  6.99005169531068 3.29857235109235  C 6.17713208647641 4.10235803173749  5.36446008632087 4.90614373160581  4.55129284936621 5.70943973991022  C 4.04541566218213 5.20973623840601  3.53978610311844 4.70954308378427  3.03415654405475 4.2095947557213  C 2.97150997355938 4.14789692505839  2.91133956761801 4.08032310319969  2.83061711641652 4.0416395265328  C 2.68081011353916 3.96525173710364  2.49014666770356 3.97773819917148  2.3522251924722 4.07322295998692  C 2.24426510615134 4.15059009409751  2.15116190994634 4.25905097009832  2.12466712030485 4.39150542555339  C 2.08826773077223 4.5472190192328  2.14224778365348 4.71786737901404  2.25912199626721 4.82804209859574  C 2.91084433081889 5.47219688372853  3.56207142857144 6.11708614853759  4.21453660860099 6.76075128055285  C 4.33908688467222 6.88488144077815  4.53668354848745 6.9272375119424  4.70258552375769 6.86749833219596  C 4.8244120460378 6.82832510241154  4.90488686911891 6.72500571870704  5.00170429271328 6.64861791005469  C 5.9156507698888 5.74738881767764  6.82736873007233 4.84346655626147  7.74081997044872 3.94174781076691  C 7.80916167664672 3.87686715794734  7.86388455556421 3.79607237512134  7.88592229178009 3.7040152630213  Z " fill-rule="nonzero" fill="#4077f0" stroke="none" transform="matrix(1 0 0 1 492 33 )" />
  </g>
</svg>