<?xml version="1.0" encoding="utf-8"?>
<svg version="1.1" xmlns:xlink="http://www.w3.org/1999/xlink" width="14px" height="10px" xmlns="http://www.w3.org/2000/svg">
  <g transform="matrix(1 0 0 1 -324 -6 )">
    <path d="M 7.66293279022403 9.47311827956989  C 7.31602172437203 9.82437275985663  7.09504412763069 10  7 10  C 6.90495587236931 10  6.68397827562797 9.82437275985663  6.33706720977597 9.47311827956989  C 5.99015614392397 9.12186379928315  5.81670061099796 8.8984468339307  5.81670061099796 8.80286738351255  C 5.81670061099796 8.64994026284349  5.96520706042091 8.52090800477897  6.2622199592668 8.415770609319  C 6.5592328581127 8.31063321385902  6.80515953835709 8.25806451612903  7 8.25806451612903  C 7.19484046164291 8.25806451612903  7.4407671418873 8.31063321385902  7.7377800407332 8.415770609319  C 8.03479293957909 8.52090800477897  8.18329938900204 8.64994026284349  8.18329938900204 8.80286738351255  C 8.18329938900204 8.8984468339307  8.00984385607604 9.12186379928315  7.66293279022403 9.47311827956989  Z M 9.59114052953157 7.51971326164875  C 9.23234894772573 7.87813620071685  9.010183299389 8.0573476702509  8.92464358452139 8.0573476702509  C 8.91513917175832 8.0573476702509  8.82009504412763 7.99761051373955  8.63951120162933 7.87813620071685  C 8.45892735913102 7.75866188769414  8.21775288526816 7.63918757467144  7.91598778004073 7.51971326164875  C 7.61422267481331 7.40023894862605  7.30889341479973 7.3405017921147  7 7.3405017921147  C 6.69110658520027 7.3405017921147  6.38577732518669 7.40023894862605  6.08401221995927 7.51971326164875  C 5.78224711473184 7.63918757467144  5.54226069246436 7.75866188769414  5.36405295315682 7.87813620071685  C 5.18584521384929 7.99761051373955  5.08961303462322 8.0573476702509  5.07535641547861 8.0573476702509  C 4.989816700611 8.0573476702509  4.76765105227427 7.87813620071685  4.40885947046843 7.51971326164875  C 4.05006788866259 7.16129032258064  3.87067209775967 6.93906810035842  3.87067209775967 6.85304659498208  C 3.87067209775967 6.79091995221027  3.89443312966735 6.73596176821983  3.94195519348269 6.68817204301075  C 4.31262729124236 6.32019115890084  4.77834351663272 6.0310633213859  5.33910386965377 5.82078853046595  C 5.89986422267481 5.610513739546  6.45349626612356 5.50537634408602  7 5.50537634408602  C 7.54650373387644 5.50537634408602  8.10013577732519 5.610513739546  8.66089613034623 5.82078853046595  C 9.22165648336728 6.0310633213859  9.68737270875764 6.32019115890084  10.0580448065173 6.68817204301075  C 10.1055668703327 6.73596176821983  10.1293279022403 6.79091995221027  10.1293279022403 6.85304659498208  C 10.1293279022403 6.93906810035842  9.94993211133741 7.16129032258064  9.59114052953157 7.51971326164875  Z M 11.5264765784114 5.56989247311828  C 11.1700610997963 5.92831541218638  10.9514596062458 6.10752688172043  10.8706720977597 6.10752688172043  C 10.8183978275628 6.10752688172043  10.7637474541752 6.0884109916368  10.7067209775967 6.05017921146953  C 10.0604209097081 5.54838709677419  9.46164290563476 5.17921146953405  8.91038696537678 4.9426523297491  C 8.35913102511881 4.70609318996416  7.72233536999321 4.58781362007168  7 4.58781362007168  C 6.59606245756959 4.58781362007168  6.19093686354379 4.64038231780167  5.78462321792261 4.74551971326165  C 5.37830957230143 4.85065710872162  5.02427019687712 4.97729988052569  4.72250509164969 5.12544802867384  C 4.42073998642227 5.27359617682198  4.1510522742702 5.42174432497013  3.91344195519348 5.56989247311828  C 3.67583163611677 5.71804062126643  3.48811948404616 5.84468339307049  3.35030549898167 5.94982078853047  C 3.21249151391718 6.05495818399044  3.13883231500339 6.10752688172043  3.12932790224033 6.10752688172043  C 3.04854039375424 6.10752688172043  2.82993890020367 5.92831541218638  2.47352342158859 5.56989247311828  C 2.11710794297352 5.21146953405018  1.93890020366599 4.98924731182796  1.93890020366599 4.90322580645161  C 1.93890020366599 4.84587813620072  1.96266123557366 4.79330943847073  2.010183299389 4.74551971326165  C 2.63747454175153 4.11469534050179  3.39782756279701 3.62485065710872  4.29124236252546 3.27598566308244  C 5.1846571622539 2.92712066905615  6.08757637474542 2.75268817204301  7 2.75268817204301  C 7.91242362525458 2.75268817204301  8.8153428377461 2.92712066905615  9.70875763747454 3.27598566308244  C 10.602172437203 3.62485065710872  11.3625254582485 4.11469534050179  11.989816700611 4.74551971326165  C 12.0373387644263 4.79330943847073  12.061099796334 4.84587813620072  12.061099796334 4.90322580645161  C 12.061099796334 4.98924731182796  11.8828920570265 5.21146953405018  11.5264765784114 5.56989247311828  Z M 13.4618126272912 3.62724014336918  C 13.1030210454854 3.98566308243728  12.8832315003394 4.16487455197133  12.8024439918534 4.16487455197133  C 12.7501697216565 4.16487455197133  12.6978954514596 4.14336917562724  12.6456211812627 4.10035842293907  C 11.7949762389681 3.35005973715651  10.9122539035981 2.78494623655914  9.99745417515275 2.40501792114695  C 9.0826544467074 2.02508960573477  8.08350305498982 1.83512544802867  7 1.83512544802867  C 5.91649694501018 1.83512544802867  4.9173455532926 2.02508960573477  4.00254582484725 2.40501792114695  C 3.0877460964019 2.78494623655914  2.20502376103191 3.35005973715651  1.35437881873727 4.10035842293907  C 1.30210454854039 4.14336917562724  1.24983027834352 4.16487455197133  1.19755600814664 4.16487455197133  C 1.11676849966056 4.16487455197133  0.896978954514596 3.98566308243728  0.538187372708758 3.62724014336918  C 0.179395790902919 3.26881720430108  0 3.04659498207885  0 2.96057347670251  C 0 2.8984468339307  0.0237610319076714 2.84348864994026  0.0712830957230143 2.79569892473118  C 0.959945689069926 1.90681003584229  2.0173116089613 1.21863799283154  3.24338085539715 0.731182795698925  C 4.46945010183299 0.243727598566308  5.72165648336728 0  7 0  C 8.27834351663272 0  9.53054989816701 0.243727598566308  10.7566191446029 0.731182795698925  C 11.9826883910387 1.21863799283154  13.0400543109301 1.90681003584229  13.928716904277 2.79569892473118  C 13.9762389680923 2.84348864994026  14 2.8984468339307  14 2.96057347670251  C 14 3.04659498207885  13.8206042090971 3.26881720430108  13.4618126272912 3.62724014336918  Z " fill-rule="nonzero" fill="#ffffff" stroke="none" transform="matrix(1 0 0 1 324 6 )" />
  </g>
</svg>