<?xml version="1.0" encoding="utf-8"?>
<svg version="1.1" xmlns:xlink="http://www.w3.org/1999/xlink" width="14px" height="14px" xmlns="http://www.w3.org/2000/svg">
  <g transform="matrix(1 0 0 1 -343 -57 )">
    <path d="M 350 57  C 353.92 57  357 60.08  357 64  C 357 67.92  353.92 71  350 71  C 346.08 71  343 67.92  343 64  C 343 60.08  346.08 57  350 57  Z " fill-rule="nonzero" fill="#ffffff" stroke="none" fill-opacity="0" />
    <path d="M 350 57.5  C 353.64 57.5  356.5 60.36  356.5 64  C 356.5 67.64  353.64 70.5  350 70.5  C 346.36 70.5  343.5 67.64  343.5 64  C 343.5 60.36  346.36 57.5  350 57.5  Z " stroke-width="1" stroke="#ffffff" fill="none" />
  </g>
</svg>