<?xml version="1.0" encoding="utf-8"?>
<svg version="1.1" xmlns:xlink="http://www.w3.org/1999/xlink" width="18px" height="17px" xmlns="http://www.w3.org/2000/svg">
  <g transform="matrix(1 0 0 1 -29 -55 )">
    <path d="M 17.5603157720171 10.1816744639376  C 18.0331440167583 9.67522424260884  18.0331440167583 8.88308415062541  17.5471816531378 8.37663391203704  L 9.91625909051235 0.714951072124757  L 9.40402848913328 0.19551494679987  C 9.28582141921969 0.0786418108349581  9.12821201012481 0.0137123081140355  8.97060260102994 0.0137123081140355  C 8.79985907305577 0.0137123081140355  8.64224964650432 0.0786418280945423  8.53717671292659 0.19551494679987  L 0.394023548922056 8.36364802530052  C 0.0262682377585755 8.72725330267219  -0.0788047132757266 9.27266123598928  0.11820706991359 9.75313964932586  C 0.31521883564633 10.2206321586663  0.788047080387536 10.5322938373132  1.30027768176661 10.5322938373132  L 2.14086123767129 10.5322938373132  L 2.14086123767129 17  L 15.8134780832679 17  L 15.8134780832679 10.5452797413093  L 16.6671957580518 10.5452797413093  C 17.0086828314567 10.5452797413093  17.3239016671031 10.4154207013483  17.5603157720171 10.1816744639376  Z M 10.0738685170638 15.5708242598684  L 10.0607343981845 15.5708242598684  L 7.85420256611678 15.5708242598684  L 7.85420256611678 11.5322083759747  L 10.0738685170638 11.5322083759747  L 10.0738685170638 15.5708242598684  Z M 16.2731722091298 9.12981630929175  L 14.3687250938291 9.11683040529564  L 14.3687250938291 15.5708242598684  L 11.3347438421925 15.5708242598684  L 11.3347438421925 11.0517299626381  C 11.3347438421925 10.84395551596  11.2559391289168 10.636181069282  11.1114638387012 10.4933361253249  C 10.9669885484856 10.3504911986274  10.756842646417 10.2595898706546  10.546696761805 10.2595898706546  L 7.38137432137558 10.2595898706546  C 7.17122843676355 10.2595898706546  6.97421667103081 10.3504911986274  6.81660724447936 10.4933361253249  C 6.67213195426377 10.6361810520224  6.58019312210876 10.84395551596  6.59332724098804 11.0517299626381  L 6.59332724098804 15.5708242598684  L 3.5462118704722 15.5708242598684  L 3.5462118704722 9.11683040529565  L 1.64176475517151 9.11683040529565  L 8.95746848215065 1.79278103476283  L 9.41716260801257 2.26027354410331  L 16.2731722091298 9.12981630929175  Z " fill-rule="nonzero" fill="#ffffff" stroke="none" transform="matrix(1 0 0 1 29 55 )" />
  </g>
</svg>