<svg t="1611021150893" class="icon" viewBox="0 0 1024 1024" version="1.1" xmlns="http://www.w3.org/2000/svg" p-id="2561" width="200" height="200"><path d="M645.789099 526.135952 378.210901 526.135952c-113.320928 0-206.03861 92.717681-206.03861 206.039633l0 189.247178c0 18.768459 15.214517 33.981952 33.981952 33.981952l611.691513 0c18.768459 0 33.981952-15.214517 33.981952-33.981952L851.827709 732.174562C851.827709 618.853633 759.110027 526.135952 645.789099 526.135952zM820.645522 921.422763c0 1.544169-1.25662 2.800789-2.800789 2.800789l-611.691513 0c-1.544169 0-2.800789-1.25662-2.800789-2.800789L203.352431 732.175585c0-46.478568 18.250666-90.326215 51.390437-123.465986 33.139771-33.139771 76.987419-51.391461 123.465986-51.391461l267.578198 0c46.477544 0 90.326215 18.250666 123.465986 51.391461 33.139771 33.139771 51.390437 76.987419 51.390437 123.465986L820.643476 921.422763z" p-id="2562" fill="#ffffff"></path><path d="M278.45185 414.413428l30.066783 0c14.827707 0 26.959002-12.131295 26.959002-26.959002l0-13.527085c26.920116 71.330582 95.885837 122.202203 176.522366 122.202203 77.341482 0 143.946436-46.800909 173.014472-113.564475l0 4.889357c0 14.827707 12.131295 26.959002 26.957978 26.959002l2.279926 0c-4.533246 8.562003-9.611915 16.85897-15.241123 24.829502l-1.616824-1.248434c-9.230222-7.128351-22.614044-5.409197-29.741371 3.820002l-15.319917 19.833721c-7.128351 9.230222-5.409197 22.614044 3.820002 29.742395l6.377244 4.926196c9.230222 7.128351 22.614044 5.409197 29.742395-3.820002l15.318894-19.833721c4.181229-5.414313 5.29561-12.252045 3.659343-18.423605 9.271154-12.559037 17.282618-25.89067 23.963785-39.826054l6.823406 0c14.827707 0 26.959002-12.131295 26.959002-26.959002L768.997212 253.122975c0-14.827707-12.131295-26.959002-26.959002-26.959002l-8.91402 0C701.487655 134.457318 614.31834 68.396763 512 68.396763S322.511321 134.457318 290.874787 226.163973l-12.422937 0c-14.827707 0-26.959002 12.131295-26.959002 26.959002l0 134.331451C251.492848 402.282133 263.624143 414.413428 278.45185 414.413428zM512 464.947358c-86.801948 0-157.419286-70.617337-157.419286-157.419286s70.617337-157.420309 157.419286-157.420309 157.419286 70.618361 157.419286 157.420309S598.801948 464.947358 512 464.947358zM512 87.10587c91.852988 0 170.429601 57.870012 201.223954 139.058103l-1.251503 0c-10.225899 0-19.168572 5.77247-23.734564 14.217816-27.117614-70.938656-95.883791-121.457236-176.23891-121.457236-82.006735 0-151.943574 52.616358-177.856757 125.857453-3.312442-10.101055-12.456706-17.615193-23.405059-18.518772C341.505931 145.022954 420.110173 87.10587 512 87.10587z" p-id="2563" fill="#ffffff"></path></svg>