<?xml version="1.0" encoding="utf-8"?>
<svg version="1.1" xmlns:xlink="http://www.w3.org/1999/xlink" width="22px" height="22px" xmlns="http://www.w3.org/2000/svg">
  <g transform="matrix(1 0 0 1 -225 -67 )">
    <path d="M 22 11  C 22 17.0751322481387  17.0751322481387 22  11 22  C 4.92486775186127 22  0 17.0751322481387  0 11  C 0 4.92486775186127  4.92486775186127 0  11 0  C 17.0751322481387 0  22 4.92486775186127  22 11  Z M 11 1.99999999804688  C 6.02943725044418 1.99999999804688  1.99999999804688 6.02943725044418  1.99999999804688 11  C 1.99999999804688 15.9705627495558  6.02943725044418 20.0000000019531  11 20.0000000019531  C 15.9705627495558 20.0000000019531  20.0000000019531 15.9705627495558  20.0000000019531 11  C 20.0000000019531 6.02943725044418  15.9705627495558 1.99999999804688  11 1.99999999804688  Z M 15.3580000019531 13.9954999980469  C 15.0771626497653 14.4725322312356  14.4649148429431 14.6350108060884  13.9844999980469 14.3599999941406  L 10.5000000058594 12.3674999980469  C 10.1082721901445 12.1443844678774  9.91687206588628 11.6846952324943  10.0345000078125 11.2495000019531  C 10.0125303439631 11.1681197988608  10.0009384118998 11.084288332228  9.99999999023438 11  L 9.99999999023437 5.00000000585938  C 10.0000000135114 4.44771526709455  10.4477152612352 4.0000000382406  11 4.0000000382406  C 11.5522847552242 4.0000000382406  12.0000000097656 4.44771529278202  12.0000000097656 5.00000004800622  L 12.0000000097656 10.9250000019531  L 14.9900000078125 12.6344999902344  C 15.3006234071876 12.8104259219054  15.4926220672266 13.1398209135211  15.4926220672266 13.4968038678391  C 15.4926220672266 13.672013720113  15.4461700081734 13.8440914700937  15.3580000019531 13.9954999980469  Z M 9.21100000390625 4.32900000585938  C 7.08308264818552 4.86633112577309  5.32906248758197 6.36819123350218  4.47050000976563 8.38800000585938  L 3.51799999804688 8.07450000585938  C 4.47723065294659 5.75634538363244  6.46656410358221 4.02106781431998  8.8935 3.3854999921875  L 9.21100000390625 4.32900000585938  Z " fill-rule="nonzero" fill="#ffffff" stroke="none" transform="matrix(1 0 0 1 225 67 )" />
  </g>
</svg>