<?xml version="1.0" encoding="utf-8"?>
<svg version="1.1" xmlns:xlink="http://www.w3.org/1999/xlink" width="115px" height="26px" xmlns="http://www.w3.org/2000/svg">
  <g transform="matrix(1 0 0 1 -60 0 )">
    <path d="M 61 2  A 1 1 0 0 1 62 1 L 173 1  A 1 1 0 0 1 174 2 L 174 24  A 1 1 0 0 1 173 25 L 62 25  A 1 1 0 0 1 61 24 L 61 2  Z " fill-rule="nonzero" fill="#d9dce2" stroke="none" />
    <path d="M 60.5 2  A 1.5 1.5 0 0 1 62 0.5 L 173 0.5  A 1.5 1.5 0 0 1 174.5 2 L 174.5 24  A 1.5 1.5 0 0 1 173 25.5 L 62 25.5  A 1.5 1.5 0 0 1 60.5 24 L 60.5 2  Z " stroke-width="1" stroke="#000000" fill="none" stroke-opacity="0.356862745098039" />
  </g>
</svg>