<?xml version="1.0" encoding="utf-8"?>
<svg version="1.1" xmlns:xlink="http://www.w3.org/1999/xlink" width="16px" height="16px" xmlns="http://www.w3.org/2000/svg">
  <g transform="matrix(1 0 0 1 -750 -149 )">
    <path d="M 7.46188340807175 12  L 7.96412556053812 12  L 9.00448430493273 10.6818181818182  L 7.64125560538117 8.95454545454545  L 6.60089686098655 10.2727272727273  L 6.60089686098655 10.9090909090909  L 7.46188340807175 10.9090909090909  L 7.46188340807175 12  Z M 11.9013452914798 4.19318181818182  C 12.0029895366218 4.06439393939394  12.0059790732436 3.93939393939394  11.9103139013453 3.81818181818182  C 11.8146487294469 3.6969696969697  11.7159940209268 3.70075757575757  11.6143497757848 3.82954545454546  L 8.47533632286996 7.80681818181818  C 8.37369207772795 7.93560606060606  8.37070254110613 8.06060606060606  8.46636771300448 8.18181818181818  C 8.56203288490284 8.3030303030303  8.66068759342302 8.29924242424242  8.76233183856502 8.17045454545455  L 11.9013452914798 4.19318181818182  Z M 12.4484304932735 10.2386363636364  C 12.5680119581465 10.2992424242424  12.627802690583 10.4090909090909  12.627802690583 10.5681818181818  L 12.627802690583 12.7272727272727  C 12.627802690583 13.6287878787879  12.3751868460389 14.3996212121212  11.8699551569507 15.0397727272727  C 11.3647234678625 15.6799242424242  10.7563527653214 16  10.0448430493274 16  L 2.58295964125561 16  C 1.87144992526158 16  1.26307922272048 15.6799242424242  0.757847533632287 15.0397727272727  C 0.252615844544096 14.3996212121212  0 13.6287878787879  0 12.7272727272727  L 0 3.27272727272727  C 0 2.37121212121212  0.252615844544096 1.60037878787879  0.757847533632287 0.960227272727273  C 1.26307922272048 0.320075757575756  1.87144992526158 0  2.58295964125561 0  L 10.0448430493274 0  C 10.4215246636771 0  10.7713004484305 0.0946969696969688  11.0941704035874 0.284090909090908  C 11.1838565022422 0.337121212121211  11.237668161435 0.424242424242424  11.2556053811659 0.545454545454545  C 11.2735426008969 0.674242424242424  11.2466367713004 0.784090909090908  11.1748878923767 0.875  L 10.7354260089686 1.43181818181818  C 10.6517189835575 1.53787878787879  10.5560538116592 1.56818181818182  10.4484304932735 1.52272727272727  C 10.3109118086697 1.47727272727273  10.1763826606876 1.45454545454546  10.0448430493274 1.45454545454546  L 2.58295964125561 1.45454545454546  C 2.18834080717489 1.45454545454546  1.85052316890882 1.63257575757576  1.5695067264574 1.98863636363636  C 1.28849028400598 2.34469696969697  1.14798206278027 2.77272727272727  1.14798206278027 3.27272727272727  L 1.14798206278027 12.7272727272727  C 1.14798206278027 13.2272727272727  1.28849028400598 13.655303030303  1.5695067264574 14.0113636363636  C 1.85052316890882 14.3674242424242  2.18834080717489 14.5454545454545  2.58295964125561 14.5454545454545  L 10.0448430493274 14.5454545454545  C 10.4394618834081 14.5454545454545  10.7772795216741 14.3674242424242  11.0582959641256 14.0113636363636  C 11.339312406577 13.655303030303  11.4798206278027 13.2272727272727  11.4798206278027 12.7272727272727  L 11.4798206278027 11.2954545454545  C 11.4798206278027 11.1969696969697  11.5067264573991 11.1136363636364  11.5605381165919 11.0454545454545  L 12.1345291479821 10.3181818181818  C 12.2242152466368 10.2045454545455  12.3288490284006 10.1780303030303  12.4484304932735 10.2386363636364  Z M 5.73991031390135 9.81818181818182  L 11.7668161434978 2.18181818181818  L 14.3497757847534 5.45454545454546  L 8.32286995515695 13.0909090909091  L 5.73991031390135 13.0909090909091  L 5.73991031390135 9.81818181818182  Z M 16 2.90909090909091  C 16 3.21212121212121  15.9162929745889 3.46969696969697  15.7488789237668 3.68181818181818  L 14.9237668161435 4.72727272727273  L 12.3408071748879 1.45454545454546  L 13.1659192825112 0.409090909090908  C 13.3333333333333 0.196969696969695  13.5366218236173 0.0909090909090917  13.7757847533632 0.0909090909090917  C 14.0149476831091 0.0909090909090917  14.2182361733931 0.196969696969695  14.3856502242152 0.409090909090908  L 15.7488789237668 2.13636363636364  C 15.9162929745889 2.34848484848485  16 2.60606060606061  16 2.90909090909091  Z " fill-rule="nonzero" fill="#4077f0" stroke="none" transform="matrix(1 0 0 1 750 149 )" />
  </g>
</svg>