<svg t="1613989623730" class="icon" viewBox="0 0 1024 1024" version="1.1" xmlns="http://www.w3.org/2000/svg" p-id="3773" width="200" height="200"><path d="M412.8 586.88A64 64 0 0 0 448 704a60.16 60.16 0 0 0 35.2-10.88l192-128a64 64 0 0 0 0-106.24l-192-128a64 64 0 0 0-70.4 106.24l16 10.88H64a64 64 0 0 0 0 128h364.8z" p-id="3774" fill="#1296db"></path><path d="M512 0a535.68 535.68 0 0 0-384 172.8 64 64 0 1 0 96.64 83.2 407.68 407.68 0 0 1 279.04-128H512a396.16 396.16 0 0 1 384 384 384 384 0 0 1-384 384 423.68 423.68 0 0 1-288.64-128A64 64 0 1 0 128 850.56 542.08 542.08 0 0 0 512 1024a512 512 0 0 0 512-512A527.36 527.36 0 0 0 512 0z" p-id="3775" fill="#1296db"></path></svg>