<svg t="1613989220433" class="icon" viewBox="0 0 1024 1024" version="1.1" xmlns="http://www.w3.org/2000/svg" p-id="2124" width="200" height="200"><path d="M518.166 137.251c-216.353 0-392.386 176.022-392.386 392.386s176.033 392.386 392.386 392.386 392.386-176.022 392.386-392.386-176.033-392.386-392.386-392.386z m0 741.174c-192.319 0-348.788-156.469-348.788-348.788s156.469-348.788 348.788-348.788 348.788 156.469 348.788 348.788-156.47 348.788-348.788 348.788z" fill="#d81e06" p-id="2125"></path><path d="M495.855 626.031h39.341l25.312-286.477c1.49-18.106-4.449-36.776-15.477-48.729-7.706-8.356-17.754-12.986-28.313-13.05h-0.213c-10.006 0-19.521 4.226-26.781 11.921-11.07 11.709-17.542 31.219-16.498 49.815l22.246 281.495 0.383 5.025zM518.144 687.692c-25.865 0-46.898 21.044-46.898 46.909s21.033 46.909 46.898 46.909c25.865 0 46.919-21.044 46.919-46.909s-21.053-46.909-46.919-46.909z" fill="#d81e06" p-id="2126"></path></svg>