<?xml version="1.0" encoding="utf-8"?>
<svg version="1.1" xmlns:xlink="http://www.w3.org/1999/xlink" width="287px" height="365px" xmlns="http://www.w3.org/2000/svg">
  <g transform="matrix(1 0 0 1 -331 -279 )">
    <path d="M 331 279  L 618 279  L 618 644  L 331 644  L 331 279  " fill-rule="nonzero" fill="#cccccc" stroke="none" />
    <path d="M 351 299  L 598 299  L 598 624  L 351 624  L 351 299  " fill-rule="nonzero" fill="#ffffff" stroke="none" />
    <path d="M 501.765 376.8  C 489.711 376.8  480.24 367.329  480.24 355.275  C 480.24 343.221  489.711 333.75  501.765 333.75  C 513.819 333.75  523.29 343.221  523.29 355.275  C 523.29 367.329  513.819 376.8  501.765 376.8  " fill-rule="nonzero" fill="#cccccc" stroke="none" />
    <path d="M 358 617  L 358 445.95  L 416.25 368.2  L 497.8 430.4  L 544.4 414.85  L 591 430.4  L 591 617  L 358 617  " fill-rule="nonzero" fill="#169bd5" stroke="none" />
  </g>
</svg>