<?xml version="1.0" encoding="utf-8"?>
<svg version="1.1" xmlns:xlink="http://www.w3.org/1999/xlink" width="7px" height="5px" xmlns="http://www.w3.org/2000/svg">
  <defs>
    <mask fill="white" id="clip248">
      <path d="M 6.8701171875 4.05381944444444  C 6.95670572916667 4.16377314814815  7 4.29398148148148  7 4.44444444444444  C 7 4.59490740740741  6.95670572916667 4.72511574074074  6.8701171875 4.83506944444444  C 6.78352864583333 4.94502314814815  6.68098958333333 5  6.5625 5  L 0.4375 5  C 0.319010416666667 5  0.216471354166667 4.94502314814815  0.1298828125 4.83506944444444  C 0.0432942708333333 4.72511574074074  0 4.59490740740741  0 4.44444444444444  C 0 4.29398148148148  0.0432942708333333 4.16377314814815  0.1298828125 4.05381944444444  L 3.1923828125 0.164930555555556  C 3.27897135416667 0.0549768518518512  3.38151041666667 0  3.5 0  C 3.61848958333333 0  3.72102864583333 0.0549768518518512  3.8076171875 0.164930555555556  L 6.8701171875 4.05381944444444  Z " fill-rule="evenodd" />
    </mask>
  </defs>
  <g transform="matrix(1 0 0 1 -190 -13 )">
    <path d="M 6.8701171875 4.05381944444444  C 6.95670572916667 4.16377314814815  7 4.29398148148148  7 4.44444444444444  C 7 4.59490740740741  6.95670572916667 4.72511574074074  6.8701171875 4.83506944444444  C 6.78352864583333 4.94502314814815  6.68098958333333 5  6.5625 5  L 0.4375 5  C 0.319010416666667 5  0.216471354166667 4.94502314814815  0.1298828125 4.83506944444444  C 0.0432942708333333 4.72511574074074  0 4.59490740740741  0 4.44444444444444  C 0 4.29398148148148  0.0432942708333333 4.16377314814815  0.1298828125 4.05381944444444  L 3.1923828125 0.164930555555556  C 3.27897135416667 0.0549768518518512  3.38151041666667 0  3.5 0  C 3.61848958333333 0  3.72102864583333 0.0549768518518512  3.8076171875 0.164930555555556  L 6.8701171875 4.05381944444444  Z " fill-rule="nonzero" fill="#ffffff" stroke="none" transform="matrix(1 0 0 1 190 13 )" />
    <path d="M 6.8701171875 4.05381944444444  C 6.95670572916667 4.16377314814815  7 4.29398148148148  7 4.44444444444444  C 7 4.59490740740741  6.95670572916667 4.72511574074074  6.8701171875 4.83506944444444  C 6.78352864583333 4.94502314814815  6.68098958333333 5  6.5625 5  L 0.4375 5  C 0.319010416666667 5  0.216471354166667 4.94502314814815  0.1298828125 4.83506944444444  C 0.0432942708333333 4.72511574074074  0 4.59490740740741  0 4.44444444444444  C 0 4.29398148148148  0.0432942708333333 4.16377314814815  0.1298828125 4.05381944444444  L 3.1923828125 0.164930555555556  C 3.27897135416667 0.0549768518518512  3.38151041666667 0  3.5 0  C 3.61848958333333 0  3.72102864583333 0.0549768518518512  3.8076171875 0.164930555555556  L 6.8701171875 4.05381944444444  Z " stroke-width="2" stroke="#999999" fill="none" transform="matrix(1 0 0 1 190 13 )" mask="url(#clip248)" />
  </g>
</svg>