<?xml version="1.0" encoding="utf-8"?>
<svg version="1.1" xmlns:xlink="http://www.w3.org/1999/xlink" width="20px" height="20px" xmlns="http://www.w3.org/2000/svg">
  <g transform="matrix(1 0 0 1 -344 -106 )">
    <path d="M 4.121212109375 19.1969697265625  C 3.69830707449416 19.6276321680057  3.11872241130542 19.8682144801409  2.51515149739583 19.8636363932292  C 1.91158058348625 19.8682144801409  1.3319959202975 19.6276321680057  0.909090885416665 19.1969697265625  C 0.479739294485945 18.7728274772464  0.238089312558965 18.1944316380153  0.238089312558965 17.5909091145833  C 0.238089312558965 16.9873865911514  0.479739294485941 16.4089907519203  0.909090885416665 15.9848485026042  L 16.0606060546875 0.833333333333331  C 16.4813005449838 0.441326095698802  17.0349501302384 0.223358396218243  17.6099749371151 0.223358396218243  C 18.8651675536356 0.223358396218243  19.8827022157609 1.24089305834354  19.8827022157609 2.49608567486408  C 19.8827022157609 3.07111048174071  19.6647345162804 3.62476006699537  19.2727272786458 4.04545455729166  L 4.121212109375 19.1969697265625  Z " fill-rule="nonzero" fill="#1890ff" stroke="none" transform="matrix(1 0 0 1 344 106 )" />
  </g>
</svg>