<?xml version="1.0" encoding="utf-8"?>
<svg version="1.1" xmlns:xlink="http://www.w3.org/1999/xlink" width="11px" height="11px" xmlns="http://www.w3.org/2000/svg">
  <g transform="matrix(1 0 0 1 -84 -174 )">
    <path d="M 8.3359375 9.989375  C 8.41967147435897 9.90229166666667  8.46153846153846 9.79916666666667  8.46153846153846 9.68  C 8.46153846153846 9.56083333333333  8.41967147435897 9.45770833333333  8.3359375 9.370625  C 8.25220352564103 9.28354166666667  8.15304487179487 9.24  8.03846153846154 9.24  C 7.92387820512821 9.24  7.82471955128205 9.28354166666667  7.74098557692308 9.370625  C 7.6572516025641 9.45770833333333  7.61538461538462 9.56083333333333  7.61538461538462 9.68  C 7.61538461538462 9.79916666666667  7.6572516025641 9.90229166666667  7.74098557692308 9.989375  C 7.82471955128205 10.0764583333333  7.92387820512821 10.12  8.03846153846154 10.12  C 8.15304487179487 10.12  8.25220352564103 10.0764583333333  8.3359375 9.989375  Z M 10.0282451923077 9.989375  C 10.1119791666667 9.90229166666667  10.1538461538462 9.79916666666667  10.1538461538462 9.68  C 10.1538461538462 9.56083333333333  10.1119791666667 9.45770833333333  10.0282451923077 9.370625  C 9.94451121794872 9.28354166666667  9.84535256410256 9.24  9.73076923076923 9.24  C 9.6161858974359 9.24  9.51702724358974 9.28354166666667  9.43329326923077 9.370625  C 9.3495592948718 9.45770833333333  9.30769230769231 9.56083333333333  9.30769230769231 9.68  C 9.30769230769231 9.79916666666667  9.3495592948718 9.90229166666667  9.43329326923077 9.989375  C 9.51702724358974 10.0764583333333  9.6161858974359 10.12  9.73076923076923 10.12  C 9.84535256410256 10.12  9.94451121794872 10.0764583333333  10.0282451923077 9.989375  Z M 10.8149038461538 7.6725  C 10.9383012820513 7.80083333333333  11 7.95666666666667  11 8.14  L 11 10.34  C 11 10.5233333333333  10.9383012820513 10.6791666666667  10.8149038461538 10.8075  C 10.6915064102564 10.9358333333333  10.5416666666667 11  10.3653846153846 11  L 0.634615384615385 11  C 0.458333333333333 11  0.30849358974359 10.9358333333333  0.185096153846154 10.8075  C 0.0616987179487179 10.6791666666667  0 10.5233333333333  0 10.34  L 0 8.14  C 0 7.95666666666667  0.0616987179487179 7.80083333333333  0.185096153846154 7.6725  C 0.30849358974359 7.54416666666667  0.458333333333333 7.48  0.634615384615385 7.48  L 3.45733173076923 7.48  C 3.54987980769231 7.73666666666667  3.70522836538462 7.9475  3.92337740384615 8.1125  C 4.14152644230769 8.2775  4.38501602564103 8.36  4.65384615384615 8.36  L 6.34615384615385 8.36  C 6.61498397435897 8.36  6.85847355769231 8.2775  7.07662259615385 8.1125  C 7.29477163461539 7.9475  7.45012019230769 7.73666666666667  7.54266826923077 7.48  L 10.3653846153846 7.48  C 10.5416666666667 7.48  10.6915064102564 7.54416666666667  10.8149038461538 7.6725  Z M 8.75901442307692 3.210625  C 8.89563301282051 3.348125  8.92648237179487 3.50625  8.8515625 3.685  C 8.77664262820513 3.86833333333333  8.64663461538462 3.96  8.46153846153846 3.96  L 6.76923076923077 3.96  L 6.76923076923077 7.04  C 6.76923076923077 7.15916666666667  6.72736378205128 7.26229166666667  6.64362980769231 7.349375  C 6.55989583333333 7.43645833333333  6.46073717948718 7.48  6.34615384615385 7.48  L 4.65384615384615 7.48  C 4.53926282051282 7.48  4.44010416666667 7.43645833333333  4.35637019230769 7.349375  C 4.27263621794872 7.26229166666667  4.23076923076923 7.15916666666667  4.23076923076923 7.04  L 4.23076923076923 3.96  L 2.53846153846154 3.96  C 2.35336538461538 3.96  2.22335737179487 3.86833333333333  2.1484375 3.685  C 2.07351762820513 3.50625  2.10436698717949 3.348125  2.24098557692308 3.210625  L 5.20252403846154 0.130625  C 5.28185096153846 0.0435416666666661  5.38100961538462 0  5.5 0  C 5.61899038461539 0  5.71814903846154 0.0435416666666661  5.79747596153846 0.130625  L 8.75901442307692 3.210625  Z " fill-rule="nonzero" fill="#ffffff" stroke="none" fill-opacity="0.996078431372549" transform="matrix(1 0 0 1 84 174 )" />
  </g>
</svg>