<?xml version="1.0" encoding="utf-8"?>
<svg version="1.1" xmlns:xlink="http://www.w3.org/1999/xlink" width="14px" height="14px" xmlns="http://www.w3.org/2000/svg">
  <g transform="matrix(1 0 0 1 -84 -14 )">
    <path d="M 13.9355828220859 7.00168788580247  C 13.9355828220859 3.14149305555555  10.8254409509202 0.0121527777777778  6.98892829754601 0.0121527777777778  C 3.15241564417178 0.0121527777777778  0.042273773006135 3.14149305555555  0.042273773006135 7.00168788580247  C 0.042273773006135 10.8618827160494  3.15241564417178 13.9912229938272  6.98892829754601 13.9912229938272  C 10.8254409509202 13.9912229938272  13.9355828220859 10.8618827160494  13.9355828220859 7.00168788580247  Z M 6.92685966257669 9.99937307098765  C 7.43850651840491 9.99937307098765  7.85285659509202 10.4162808641975  7.85285659509202 10.9310860339506  C 7.85285659509202 11.4458912037037  7.43850651840491 11.8627989969136  6.92685966257669 11.8627989969136  L 6.80607745398773 11.8627989969136  C 6.29443059815951 11.8627989969136  5.88008052147239 11.4458912037037  5.88008052147239 10.9310860339506  C 5.88008052147239 10.4162808641975  6.29443059815951 9.99937307098765  6.80607745398773 9.99937307098765  L 6.92685966257669 9.99937307098765  Z M 10.1074578220859 5.09944058641975  C 10.1594612730061 6.01765046296296  9.6763324386503 6.80082947530864  8.6580713190184 7.44897762345679  C 7.93337806748466 7.9620949074074  7.59787193251534 8.46170910493827  7.65155291411043 8.94782021604938  L 7.65155291411043 9.27189429012346  L 6.04112346625767 9.27189429012346  L 6.04112346625767 8.8262924382716  C 6.01428297546012 7.98910108024691  6.36320935582822 7.32744984567901  7.08790260736196 6.8413387345679  C 7.75891487730061 6.32822145061728  8.08100076687117 5.84211033950617  8.05416027607362 5.38300540123457  C 8.00047929447853 4.81587577160494  7.67839340490798 4.50530478395062  7.08790260736196 4.4512924382716  C 6.55948044478528 4.4512924382716  6.1719708588957 4.71122685185185  5.93040644171779 5.22940779320988  C 5.74755559815951 5.61930941358025  5.32481786809816 5.83198302469136  4.9054351993865 5.74927662037037  C 4.28978144171779 5.62774884259259  3.9626629601227 4.94415509259259  4.25287576687116 4.38546489197531  C 4.81484854294478 3.30859375  5.85324003067485 2.79041280864197  7.37140529141104 2.83092206790123  C 9.0355157208589 2.93894675925926  9.94641487730061 3.69511959876543  10.1074578220859 5.09944058641975  Z " fill-rule="nonzero" fill="#111111" stroke="none" fill-opacity="0.588235294117647" transform="matrix(1 0 0 1 84 14 )" />
  </g>
</svg>