<?xml version="1.0" encoding="utf-8"?>
<svg version="1.1" xmlns:xlink="http://www.w3.org/1999/xlink" width="27px" height="21px" xmlns="http://www.w3.org/2000/svg">
  <g transform="matrix(1 0 0 1 -492 -11 )">
    <path d="M 5.0625 10.5  L 8.4375 10.5  L 8.4375 17.5  L 5.0625 17.5  L 5.0625 10.5  Z M 10.125 3.5  L 13 3.5  L 13 17.5  L 10.125 17.5  L 10.125 3.5  Z M 2 19  L 27 19  L 27 21  L 0 21  L 0 0  L 2 0  L 2 19  Z M 15 7  L 18.5625 7  L 18.5625 17.5  L 15 17.5  L 15 7  Z M 20 1.75  L 23.625 1.75  L 23.625 17.5  L 20 17.5  L 20 1.75  Z " fill-rule="nonzero" fill="#000000" stroke="none" fill-opacity="0.450980392156863" transform="matrix(1 0 0 1 492 11 )" />
  </g>
</svg>