<?xml version="1.0" encoding="utf-8"?>
<svg version="1.1" xmlns:xlink="http://www.w3.org/1999/xlink" width="301px" height="137px" xmlns="http://www.w3.org/2000/svg">
  <g transform="matrix(1 0 0 1 -812 -441 )">
    <path d="M 813 447  A 5 5 0 0 1 818 442 L 1107 442  A 5 5 0 0 1 1112 447 L 1112 572  A 5 5 0 0 1 1107 577 L 818 577  A 5 5 0 0 1 813 572 L 813 447  Z " fill-rule="nonzero" fill="#ffffff" stroke="none" />
    <path d="M 812.5 447  A 5.5 5.5 0 0 1 818 441.5 L 1107 441.5  A 5.5 5.5 0 0 1 1112.5 447 L 1112.5 572  A 5.5 5.5 0 0 1 1107 577.5 L 818 577.5  A 5.5 5.5 0 0 1 812.5 572 L 812.5 447  Z " stroke-width="1" stroke="#797979" fill="none" stroke-opacity="0.392156862745098" />
  </g>
</svg>