<?xml version="1.0" encoding="utf-8"?>
<svg version="1.1" xmlns:xlink="http://www.w3.org/1999/xlink" width="12px" height="12px" viewBox="225 196  12 12" xmlns="http://www.w3.org/2000/svg">
  <path d="M 231 196  C 234.36 196  237 198.64  237 202  C 237 205.36  234.36 208  231 208  C 227.64 208  225 205.36  225 202  C 225 198.64  227.64 196  231 196  Z " fill-rule="nonzero" fill="#ffffff" stroke="none" />
  <path d="M 231 196.5  C 234.08 196.5  236.5 198.92  236.5 202  C 236.5 205.08  234.08 207.5  231 207.5  C 227.92 207.5  225.5 205.08  225.5 202  C 225.5 198.92  227.92 196.5  231 196.5  Z " stroke-width="1" stroke="#797979" fill="none" />
  <path d="M 231 205  C 229.32 205  228 203.68  228 202  C 228 200.32  229.32 199  231 199  C 232.68 199  234 200.32  234 202  C 234 203.68  232.68 205  231 205  " fill-rule="nonzero" fill="#797979" stroke="none" />
</svg>