<?xml version="1.0" encoding="utf-8"?>
<svg version="1.1" xmlns:xlink="http://www.w3.org/1999/xlink" width="454px" height="307px" xmlns="http://www.w3.org/2000/svg">
  <g transform="matrix(1 0 0 1 -824 -399 )">
    <path d="M 825 405  A 5 5 0 0 1 830 400 L 1272 400  A 5 5 0 0 1 1277 405 L 1277 700  A 5 5 0 0 1 1272 705 L 830 705  A 5 5 0 0 1 825 700 L 825 405  Z " fill-rule="nonzero" fill="#ffffff" stroke="none" />
    <path d="M 824.5 405  A 5.5 5.5 0 0 1 830 399.5 L 1272 399.5  A 5.5 5.5 0 0 1 1277.5 405 L 1277.5 700  A 5.5 5.5 0 0 1 1272 705.5 L 830 705.5  A 5.5 5.5 0 0 1 824.5 700 L 824.5 405  Z " stroke-width="1" stroke="#797979" fill="none" stroke-opacity="0.392156862745098" />
  </g>
</svg>